M48
; DRILL file {KiCad (5.1.6)-1} date 01/19/21 11:25:02
; FORMAT={-:-/ absolute / inch / decimal}
; #@! TF.CreationDate,2021-01-19T11:25:02+01:00
; #@! TF.GenerationSoftware,Kicad,Pcbnew,(5.1.6)-1
FMAT,2
INCH
T1C0.0394
T2C0.0400
%
G90
G05
T1
X6.84Y-3.3325
X8.525Y-3.175
X8.525Y-3.275
X7.025Y-4.25
X7.125Y-4.25
X7.7Y-3.7475
X7.7Y-3.8475
X7.8Y-3.7475
X7.8Y-3.8475
X7.9Y-3.7475
X7.9Y-3.8475
X8.0Y-3.7475
X8.0Y-3.8475
X8.1Y-3.7475
X8.1Y-3.8475
X8.2Y-3.7475
X8.2Y-3.8475
X8.3Y-3.7475
X8.3Y-3.8475
X8.4Y-3.7475
X8.4Y-3.8475
X6.94Y-3.3325
X7.04Y-3.3325
X7.14Y-3.3325
X7.24Y-3.3325
X7.34Y-3.3325
X7.44Y-3.3325
X7.54Y-3.3325
X7.64Y-3.3325
T2
X6.7401Y-2.4988
X6.8401Y-2.4988
X6.9401Y-2.4988
X7.0401Y-2.4988
X7.1001Y-4.3988
X7.1401Y-2.4988
X7.2001Y-4.3988
X7.2401Y-2.4988
X7.3001Y-4.3988
X7.3401Y-2.4988
X7.4001Y-4.3988
X7.4401Y-2.4988
X7.5001Y-4.3988
X7.5401Y-2.4988
X7.6001Y-4.3988
X7.6401Y-2.4988
X7.7001Y-4.3988
X7.8001Y-2.4988
X7.8001Y-4.3988
X7.9001Y-2.4988
X8.0001Y-2.4988
X8.0001Y-4.3988
X8.1001Y-2.4988
X8.1001Y-4.3988
X8.2001Y-2.4988
X8.2001Y-4.3988
X8.3001Y-2.4988
X8.3001Y-4.3988
X8.4001Y-2.4988
X8.4001Y-4.3988
X8.5001Y-2.4988
X8.5001Y-4.3988
T0
M30
