G04 #@! TF.GenerationSoftware,KiCad,Pcbnew,(5.1.6)-1*
G04 #@! TF.CreationDate,2021-01-19T11:24:55+01:00*
G04 #@! TF.ProjectId,Thermolino 2A,54686572-6d6f-46c6-996e-6f2032412e6b,rev?*
G04 #@! TF.SameCoordinates,Original*
G04 #@! TF.FileFunction,Legend,Top*
G04 #@! TF.FilePolarity,Positive*
%FSLAX46Y46*%
G04 Gerber Fmt 4.6, Leading zero omitted, Abs format (unit mm)*
G04 Created by KiCad (PCBNEW (5.1.6)-1) date 2021-01-19 11:24:55*
%MOMM*%
%LPD*%
G01*
G04 APERTURE LIST*
%ADD10C,0.150000*%
%ADD11C,0.200000*%
%ADD12C,0.010000*%
%ADD13C,0.120000*%
%ADD14O,1.727200X1.727200*%
%ADD15O,1.700000X1.700000*%
%ADD16R,1.700000X1.700000*%
%ADD17R,1.300000X2.000000*%
%ADD18R,2.000000X2.000000*%
%ADD19C,1.700000*%
G04 APERTURE END LIST*
D10*
X202033619Y-84383571D02*
X202366952Y-84383571D01*
X202509809Y-84907380D02*
X202033619Y-84907380D01*
X202033619Y-83907380D01*
X202509809Y-83907380D01*
X203081238Y-84907380D02*
X202986000Y-84859761D01*
X202938380Y-84764523D01*
X202938380Y-83907380D01*
X203890761Y-84859761D02*
X203795523Y-84907380D01*
X203605047Y-84907380D01*
X203509809Y-84859761D01*
X203462190Y-84812142D01*
X203414571Y-84716904D01*
X203414571Y-84431190D01*
X203462190Y-84335952D01*
X203509809Y-84288333D01*
X203605047Y-84240714D01*
X203795523Y-84240714D01*
X203890761Y-84288333D01*
X204319333Y-84907380D02*
X204319333Y-83907380D01*
X204747904Y-84907380D02*
X204747904Y-84383571D01*
X204700285Y-84288333D01*
X204605047Y-84240714D01*
X204462190Y-84240714D01*
X204366952Y-84288333D01*
X204319333Y-84335952D01*
X205128857Y-84240714D02*
X205319333Y-84907380D01*
X205509809Y-84431190D01*
X205700285Y-84907380D01*
X205890761Y-84240714D01*
X206414571Y-84907380D02*
X206319333Y-84859761D01*
X206271714Y-84812142D01*
X206224095Y-84716904D01*
X206224095Y-84431190D01*
X206271714Y-84335952D01*
X206319333Y-84288333D01*
X206414571Y-84240714D01*
X206557428Y-84240714D01*
X206652666Y-84288333D01*
X206700285Y-84335952D01*
X206747904Y-84431190D01*
X206747904Y-84716904D01*
X206700285Y-84812142D01*
X206652666Y-84859761D01*
X206557428Y-84907380D01*
X206414571Y-84907380D01*
X207176476Y-84907380D02*
X207176476Y-84240714D01*
X207176476Y-84431190D02*
X207224095Y-84335952D01*
X207271714Y-84288333D01*
X207366952Y-84240714D01*
X207462190Y-84240714D01*
X207795523Y-84907380D02*
X207795523Y-83907380D01*
X207890761Y-84526428D02*
X208176476Y-84907380D01*
X208176476Y-84240714D02*
X207795523Y-84621666D01*
X208557428Y-84859761D02*
X208652666Y-84907380D01*
X208843142Y-84907380D01*
X208938380Y-84859761D01*
X208986000Y-84764523D01*
X208986000Y-84716904D01*
X208938380Y-84621666D01*
X208843142Y-84574047D01*
X208700285Y-84574047D01*
X208605047Y-84526428D01*
X208557428Y-84431190D01*
X208557428Y-84383571D01*
X208605047Y-84288333D01*
X208700285Y-84240714D01*
X208843142Y-84240714D01*
X208938380Y-84288333D01*
D11*
X197557428Y-80649071D02*
X198414571Y-80649071D01*
X197986000Y-82149071D02*
X197986000Y-80649071D01*
X198914571Y-82149071D02*
X198914571Y-80649071D01*
X199557428Y-82149071D02*
X199557428Y-81363357D01*
X199486000Y-81220500D01*
X199343142Y-81149071D01*
X199128857Y-81149071D01*
X198986000Y-81220500D01*
X198914571Y-81291928D01*
X200843142Y-82077642D02*
X200700285Y-82149071D01*
X200414571Y-82149071D01*
X200271714Y-82077642D01*
X200200285Y-81934785D01*
X200200285Y-81363357D01*
X200271714Y-81220500D01*
X200414571Y-81149071D01*
X200700285Y-81149071D01*
X200843142Y-81220500D01*
X200914571Y-81363357D01*
X200914571Y-81506214D01*
X200200285Y-81649071D01*
X201557428Y-82149071D02*
X201557428Y-81149071D01*
X201557428Y-81434785D02*
X201628857Y-81291928D01*
X201700285Y-81220500D01*
X201843142Y-81149071D01*
X201986000Y-81149071D01*
X202486000Y-82149071D02*
X202486000Y-81149071D01*
X202486000Y-81291928D02*
X202557428Y-81220500D01*
X202700285Y-81149071D01*
X202914571Y-81149071D01*
X203057428Y-81220500D01*
X203128857Y-81363357D01*
X203128857Y-82149071D01*
X203128857Y-81363357D02*
X203200285Y-81220500D01*
X203343142Y-81149071D01*
X203557428Y-81149071D01*
X203700285Y-81220500D01*
X203771714Y-81363357D01*
X203771714Y-82149071D01*
X204700285Y-82149071D02*
X204557428Y-82077642D01*
X204486000Y-82006214D01*
X204414571Y-81863357D01*
X204414571Y-81434785D01*
X204486000Y-81291928D01*
X204557428Y-81220500D01*
X204700285Y-81149071D01*
X204914571Y-81149071D01*
X205057428Y-81220500D01*
X205128857Y-81291928D01*
X205200285Y-81434785D01*
X205200285Y-81863357D01*
X205128857Y-82006214D01*
X205057428Y-82077642D01*
X204914571Y-82149071D01*
X204700285Y-82149071D01*
X206057428Y-82149071D02*
X205914571Y-82077642D01*
X205843142Y-81934785D01*
X205843142Y-80649071D01*
X206628857Y-82149071D02*
X206628857Y-81149071D01*
X206628857Y-80649071D02*
X206557428Y-80720500D01*
X206628857Y-80791928D01*
X206700285Y-80720500D01*
X206628857Y-80649071D01*
X206628857Y-80791928D01*
X207343142Y-81149071D02*
X207343142Y-82149071D01*
X207343142Y-81291928D02*
X207414571Y-81220500D01*
X207557428Y-81149071D01*
X207771714Y-81149071D01*
X207914571Y-81220500D01*
X207986000Y-81363357D01*
X207986000Y-82149071D01*
X208914571Y-82149071D02*
X208771714Y-82077642D01*
X208700285Y-82006214D01*
X208628857Y-81863357D01*
X208628857Y-81434785D01*
X208700285Y-81291928D01*
X208771714Y-81220500D01*
X208914571Y-81149071D01*
X209128857Y-81149071D01*
X209271714Y-81220500D01*
X209343142Y-81291928D01*
X209414571Y-81434785D01*
X209414571Y-81863357D01*
X209343142Y-82006214D01*
X209271714Y-82077642D01*
X209128857Y-82149071D01*
X208914571Y-82149071D01*
X211128857Y-80791928D02*
X211200285Y-80720500D01*
X211343142Y-80649071D01*
X211700285Y-80649071D01*
X211843142Y-80720500D01*
X211914571Y-80791928D01*
X211986000Y-80934785D01*
X211986000Y-81077642D01*
X211914571Y-81291928D01*
X211057428Y-82149071D01*
X211986000Y-82149071D01*
X212557428Y-81720500D02*
X213271714Y-81720500D01*
X212414571Y-82149071D02*
X212914571Y-80649071D01*
X213414571Y-82149071D01*
D12*
G36*
X200411847Y-67036420D02*
G01*
X200634600Y-67258140D01*
X200634600Y-70624700D01*
X201193400Y-70624700D01*
X201193400Y-69321680D01*
X201193707Y-69010817D01*
X201194677Y-68747704D01*
X201196379Y-68529294D01*
X201198882Y-68352540D01*
X201202257Y-68214395D01*
X201206572Y-68111812D01*
X201211897Y-68041745D01*
X201218303Y-68001145D01*
X201223879Y-67988180D01*
X201267181Y-67971839D01*
X201354820Y-67961438D01*
X201480603Y-67957701D01*
X201483727Y-67957700D01*
X201713095Y-67957700D01*
X201935847Y-68179420D01*
X202158600Y-68401140D01*
X202158600Y-70624700D01*
X202717400Y-70624700D01*
X202717400Y-69893180D01*
X202718053Y-69661063D01*
X202720109Y-69476087D01*
X202723715Y-69334608D01*
X202729016Y-69232983D01*
X202736157Y-69167567D01*
X202745285Y-69134716D01*
X202747879Y-69131180D01*
X202791195Y-69114847D01*
X202878957Y-69104451D01*
X203005084Y-69100702D01*
X203008759Y-69100700D01*
X203239159Y-69100700D01*
X203460879Y-69323452D01*
X203682600Y-69546204D01*
X203682600Y-70624700D01*
X207289400Y-70624700D01*
X207289400Y-69546204D01*
X207732840Y-69100700D01*
X207963240Y-69100700D01*
X208090268Y-69104269D01*
X208179087Y-69114504D01*
X208223615Y-69130694D01*
X208224120Y-69131180D01*
X208233764Y-69156499D01*
X208241385Y-69213478D01*
X208247130Y-69305761D01*
X208251144Y-69436991D01*
X208253572Y-69610812D01*
X208254560Y-69830868D01*
X208254600Y-69893180D01*
X208254600Y-70624700D01*
X208813400Y-70624700D01*
X208813400Y-68401140D01*
X209258904Y-67957700D01*
X209488272Y-67957700D01*
X209614819Y-67961282D01*
X209703356Y-67971546D01*
X209747691Y-67987765D01*
X209748120Y-67988180D01*
X209755384Y-68008605D01*
X209761516Y-68056205D01*
X209766585Y-68134027D01*
X209770661Y-68245117D01*
X209773814Y-68392522D01*
X209776112Y-68579290D01*
X209777627Y-68808467D01*
X209778427Y-69083099D01*
X209778600Y-69321680D01*
X209778600Y-70624700D01*
X210337400Y-70624700D01*
X210337400Y-67258140D01*
X210782904Y-66814700D01*
X211012272Y-66814700D01*
X211138819Y-66818282D01*
X211227356Y-66828546D01*
X211271691Y-66844765D01*
X211272120Y-66845180D01*
X211277908Y-66863036D01*
X211282985Y-66905956D01*
X211287387Y-66976435D01*
X211291148Y-67076971D01*
X211294305Y-67210058D01*
X211296895Y-67378192D01*
X211298953Y-67583871D01*
X211300514Y-67829590D01*
X211301616Y-68117845D01*
X211302293Y-68451132D01*
X211302583Y-68831948D01*
X211302600Y-68960144D01*
X211302600Y-71044628D01*
X211016452Y-71329964D01*
X210730305Y-71615300D01*
X210095226Y-71615299D01*
X209460146Y-71615299D01*
X209207100Y-71869299D01*
X208954053Y-72123299D01*
X207695161Y-72123299D01*
X207784380Y-72300465D01*
X207873600Y-72477631D01*
X207873600Y-73832681D01*
X207238600Y-75039167D01*
X206603600Y-76245654D01*
X206603600Y-77775628D01*
X206317452Y-78060964D01*
X206031305Y-78346300D01*
X204939071Y-78346300D01*
X204653735Y-78060152D01*
X204368400Y-77774005D01*
X204368400Y-76245654D01*
X203733400Y-75039167D01*
X203098400Y-73832681D01*
X203098400Y-72631300D01*
X203301600Y-72631300D01*
X203301600Y-73741345D01*
X203936600Y-74947832D01*
X204571600Y-76154318D01*
X204571600Y-76450209D01*
X204572273Y-76566015D01*
X204574105Y-76660569D01*
X204576813Y-76723908D01*
X204579994Y-76746100D01*
X204598130Y-76727304D01*
X204635932Y-76678911D01*
X204668894Y-76633997D01*
X204749400Y-76521895D01*
X204749400Y-73705455D01*
X204450961Y-73168377D01*
X204152523Y-72631300D01*
X203301600Y-72631300D01*
X203098400Y-72631300D01*
X203098400Y-72477631D01*
X203136134Y-72402700D01*
X203377908Y-72402700D01*
X204263340Y-72402700D01*
X204311592Y-72472550D01*
X204337303Y-72514137D01*
X204383371Y-72593082D01*
X204445714Y-72702208D01*
X204520249Y-72834338D01*
X204602895Y-72982294D01*
X204656222Y-73078472D01*
X204952600Y-73614545D01*
X204952600Y-76635802D01*
X204762753Y-76887801D01*
X204572907Y-77139800D01*
X204572253Y-77411350D01*
X204574244Y-77528567D01*
X204580240Y-77622221D01*
X204589368Y-77682185D01*
X204597000Y-77698600D01*
X204612059Y-77685332D01*
X204620718Y-77627127D01*
X204621572Y-77597000D01*
X204825600Y-77597000D01*
X204839333Y-77677097D01*
X204884819Y-77721668D01*
X204968489Y-77736607D01*
X204978000Y-77736700D01*
X205047599Y-77728697D01*
X205096583Y-77709138D01*
X205099920Y-77706220D01*
X205121781Y-77660349D01*
X205130400Y-77597000D01*
X205116666Y-77516902D01*
X205071180Y-77472331D01*
X204987510Y-77457392D01*
X204978000Y-77457300D01*
X204890621Y-77469888D01*
X204841998Y-77511584D01*
X204825700Y-77588282D01*
X204825600Y-77597000D01*
X204621572Y-77597000D01*
X204622400Y-77567819D01*
X204625489Y-77480041D01*
X204640432Y-77420985D01*
X204675737Y-77368688D01*
X204716454Y-77325020D01*
X204770852Y-77272676D01*
X204816849Y-77243823D01*
X204873202Y-77231495D01*
X204958668Y-77228722D01*
X204975733Y-77228700D01*
X205067929Y-77230754D01*
X205128451Y-77241493D01*
X205176394Y-77267785D01*
X205230852Y-77316496D01*
X205237279Y-77322754D01*
X205287925Y-77374943D01*
X205316739Y-77418850D01*
X205329868Y-77471830D01*
X205333458Y-77551239D01*
X205333600Y-77594733D01*
X205332005Y-77690170D01*
X205323188Y-77752457D01*
X205301100Y-77799231D01*
X205259694Y-77848127D01*
X205239545Y-77868979D01*
X205179160Y-77925732D01*
X205127192Y-77954378D01*
X205060777Y-77964351D01*
X205006193Y-77965300D01*
X204866895Y-77965300D01*
X204939900Y-78041500D01*
X205012904Y-78117700D01*
X205959095Y-78117700D01*
X206032100Y-78041500D01*
X206105104Y-77965300D01*
X205968073Y-77965300D01*
X205882192Y-77961416D01*
X205823002Y-77943343D01*
X205766595Y-77901445D01*
X205734720Y-77871245D01*
X205684074Y-77819056D01*
X205655260Y-77775149D01*
X205642131Y-77722169D01*
X205638541Y-77642760D01*
X205638400Y-77599266D01*
X205638437Y-77597000D01*
X205841600Y-77597000D01*
X205855333Y-77677097D01*
X205900819Y-77721668D01*
X205984489Y-77736607D01*
X205994000Y-77736700D01*
X206063599Y-77728697D01*
X206112583Y-77709138D01*
X206115920Y-77706220D01*
X206137781Y-77660349D01*
X206146400Y-77597000D01*
X206132666Y-77516902D01*
X206087180Y-77472331D01*
X206003510Y-77457392D01*
X205994000Y-77457300D01*
X205906621Y-77469888D01*
X205857998Y-77511584D01*
X205841700Y-77588282D01*
X205841600Y-77597000D01*
X205638437Y-77597000D01*
X205639994Y-77503829D01*
X205648811Y-77441542D01*
X205670899Y-77394768D01*
X205712305Y-77345872D01*
X205732454Y-77325020D01*
X205786852Y-77272676D01*
X205832849Y-77243823D01*
X205889202Y-77231495D01*
X205974668Y-77228722D01*
X205991733Y-77228700D01*
X206083929Y-77230754D01*
X206144451Y-77241493D01*
X206192394Y-77267785D01*
X206246852Y-77316496D01*
X206253279Y-77322754D01*
X206308240Y-77380660D01*
X206337024Y-77430099D01*
X206348004Y-77492185D01*
X206349600Y-77565553D01*
X206353460Y-77650945D01*
X206364345Y-77694961D01*
X206375000Y-77698600D01*
X206385774Y-77667639D01*
X206394015Y-77596033D01*
X206398850Y-77493909D01*
X206399746Y-77411350D01*
X206399092Y-77139800D01*
X206019400Y-76635802D01*
X206019400Y-73705455D01*
X206222600Y-73705455D01*
X206222600Y-76521895D01*
X206305150Y-76637054D01*
X206387700Y-76752214D01*
X206413100Y-76123800D01*
X207670400Y-73741632D01*
X207670400Y-72631300D01*
X206819476Y-72631300D01*
X206521038Y-73168377D01*
X206222600Y-73705455D01*
X206019400Y-73705455D01*
X206019400Y-73614545D01*
X206315777Y-73078472D01*
X206401394Y-72924325D01*
X206481421Y-72781571D01*
X206551778Y-72657387D01*
X206608381Y-72558951D01*
X206647150Y-72493438D01*
X206660407Y-72472549D01*
X206708659Y-72402699D01*
X207151375Y-72402700D01*
X207594091Y-72402700D01*
X207200644Y-71615300D01*
X207442351Y-71615300D01*
X207510867Y-71755000D01*
X207579382Y-71894700D01*
X208878635Y-71894700D01*
X209016600Y-71755000D01*
X209154564Y-71615300D01*
X207442351Y-71615300D01*
X207200644Y-71615300D01*
X206819887Y-70853300D01*
X207061103Y-70853300D01*
X207326381Y-71386700D01*
X210653895Y-71386700D01*
X210876647Y-71164979D01*
X211099400Y-70943259D01*
X211099400Y-67043300D01*
X210979433Y-67043300D01*
X210919143Y-67045681D01*
X210871616Y-67057602D01*
X210824188Y-67086225D01*
X210764194Y-67138711D01*
X210700033Y-67201316D01*
X210540600Y-67359332D01*
X210540600Y-69075836D01*
X210540378Y-69434102D01*
X210539683Y-69744288D01*
X210538467Y-70009113D01*
X210536682Y-70231296D01*
X210534281Y-70413555D01*
X210531216Y-70558609D01*
X210527440Y-70669177D01*
X210522906Y-70747976D01*
X210517566Y-70797727D01*
X210511373Y-70821146D01*
X210510119Y-70822820D01*
X210473126Y-70834818D01*
X210395999Y-70844019D01*
X210289328Y-70850424D01*
X210163700Y-70854032D01*
X210029706Y-70854843D01*
X209897935Y-70852858D01*
X209778975Y-70848076D01*
X209683415Y-70840497D01*
X209621846Y-70830122D01*
X209605880Y-70822820D01*
X209598615Y-70802394D01*
X209592483Y-70754794D01*
X209587414Y-70676972D01*
X209583338Y-70565882D01*
X209580185Y-70418477D01*
X209577887Y-70231709D01*
X209576372Y-70002532D01*
X209575572Y-69727900D01*
X209575400Y-69489320D01*
X209575400Y-68186300D01*
X209455433Y-68186300D01*
X209395143Y-68188681D01*
X209347616Y-68200602D01*
X209300188Y-68229225D01*
X209240194Y-68281711D01*
X209176033Y-68344316D01*
X209016600Y-68502332D01*
X209016600Y-69647336D01*
X209016238Y-69938273D01*
X209015098Y-70181616D01*
X209013097Y-70380565D01*
X209010152Y-70538320D01*
X209006180Y-70658083D01*
X209001097Y-70743053D01*
X208994821Y-70796432D01*
X208987269Y-70821419D01*
X208986120Y-70822819D01*
X208949126Y-70834818D01*
X208871999Y-70844019D01*
X208765328Y-70850424D01*
X208639700Y-70854032D01*
X208505706Y-70854843D01*
X208373935Y-70852858D01*
X208254975Y-70848076D01*
X208159415Y-70840497D01*
X208097846Y-70830122D01*
X208081880Y-70822820D01*
X208072235Y-70797500D01*
X208064614Y-70740521D01*
X208058869Y-70648238D01*
X208054855Y-70517008D01*
X208052427Y-70343187D01*
X208051439Y-70123131D01*
X208051400Y-70060820D01*
X208051400Y-69329300D01*
X207931433Y-69329300D01*
X207871143Y-69331681D01*
X207823616Y-69343602D01*
X207776188Y-69372225D01*
X207716194Y-69424711D01*
X207652033Y-69487316D01*
X207492600Y-69645332D01*
X207492600Y-70218836D01*
X207491670Y-70425145D01*
X207488758Y-70584379D01*
X207483678Y-70700232D01*
X207476241Y-70776396D01*
X207466263Y-70816564D01*
X207462120Y-70822819D01*
X207419791Y-70839415D01*
X207338679Y-70850105D01*
X207246371Y-70853300D01*
X207061103Y-70853300D01*
X206819887Y-70853300D01*
X204152112Y-70853300D01*
X203377908Y-72402700D01*
X203136134Y-72402700D01*
X203276838Y-72123299D01*
X202017946Y-72123299D01*
X201764899Y-71869299D01*
X201511854Y-71615300D01*
X201817435Y-71615300D01*
X201955400Y-71755000D01*
X202093364Y-71894700D01*
X203392617Y-71894700D01*
X203461132Y-71755000D01*
X203529648Y-71615300D01*
X201817435Y-71615300D01*
X201511854Y-71615300D01*
X201511853Y-71615299D01*
X200875962Y-71615299D01*
X200240071Y-71615300D01*
X199954735Y-71329152D01*
X199669400Y-71043005D01*
X199669400Y-68959332D01*
X199669576Y-68563343D01*
X199670130Y-68215657D01*
X199671096Y-67913777D01*
X199672512Y-67655206D01*
X199674413Y-67437447D01*
X199676835Y-67258005D01*
X199679813Y-67114382D01*
X199682114Y-67043300D01*
X199872600Y-67043300D01*
X199872600Y-70941195D01*
X200094320Y-71163947D01*
X200316040Y-71386700D01*
X203645618Y-71386700D01*
X203910896Y-70853300D01*
X203725628Y-70853300D01*
X203620522Y-70849066D01*
X203543959Y-70837480D01*
X203509880Y-70822820D01*
X203498950Y-70794385D01*
X203490635Y-70731216D01*
X203484747Y-70629621D01*
X203481100Y-70485907D01*
X203479507Y-70296383D01*
X203479400Y-70220253D01*
X203479399Y-69648166D01*
X203321383Y-69488733D01*
X203243566Y-69411938D01*
X203188079Y-69364802D01*
X203142300Y-69340123D01*
X203093606Y-69330698D01*
X203041983Y-69329300D01*
X202920600Y-69329300D01*
X202920600Y-70060820D01*
X202919946Y-70292936D01*
X202917890Y-70477912D01*
X202914284Y-70619391D01*
X202908983Y-70721016D01*
X202901842Y-70786432D01*
X202892714Y-70819283D01*
X202890119Y-70822820D01*
X202853126Y-70834818D01*
X202775999Y-70844019D01*
X202669328Y-70850424D01*
X202543700Y-70854032D01*
X202409706Y-70854843D01*
X202277935Y-70852858D01*
X202158975Y-70848076D01*
X202063415Y-70840497D01*
X202001846Y-70830122D01*
X201985879Y-70822819D01*
X201978140Y-70801496D01*
X201971689Y-70752217D01*
X201966445Y-70671779D01*
X201962323Y-70556980D01*
X201959242Y-70404619D01*
X201957117Y-70211492D01*
X201955866Y-69974399D01*
X201955406Y-69690138D01*
X201955399Y-69648753D01*
X201955399Y-68505166D01*
X201797383Y-68345733D01*
X201719566Y-68268938D01*
X201664079Y-68221802D01*
X201618300Y-68197123D01*
X201569606Y-68187698D01*
X201517983Y-68186299D01*
X201396600Y-68186300D01*
X201396600Y-69489319D01*
X201396292Y-69800182D01*
X201395322Y-70063295D01*
X201393620Y-70281705D01*
X201391117Y-70458459D01*
X201387742Y-70596604D01*
X201383427Y-70699187D01*
X201378102Y-70769254D01*
X201371696Y-70809854D01*
X201366120Y-70822819D01*
X201329126Y-70834818D01*
X201251999Y-70844019D01*
X201145328Y-70850424D01*
X201019700Y-70854032D01*
X200885706Y-70854843D01*
X200753935Y-70852858D01*
X200634975Y-70848076D01*
X200539415Y-70840497D01*
X200477846Y-70830122D01*
X200461879Y-70822820D01*
X200455519Y-70804005D01*
X200450022Y-70759363D01*
X200445340Y-70686174D01*
X200441425Y-70581718D01*
X200438232Y-70443277D01*
X200435711Y-70268130D01*
X200433815Y-70053557D01*
X200432498Y-69796840D01*
X200431711Y-69495259D01*
X200431407Y-69146093D01*
X200431400Y-69077253D01*
X200431399Y-67362166D01*
X200273383Y-67202733D01*
X200195566Y-67125938D01*
X200140079Y-67078802D01*
X200094300Y-67054123D01*
X200045606Y-67044698D01*
X199993983Y-67043300D01*
X199872600Y-67043300D01*
X199682114Y-67043300D01*
X199683385Y-67004082D01*
X199687586Y-66924610D01*
X199692452Y-66873467D01*
X199698019Y-66848157D01*
X199699879Y-66845180D01*
X199743181Y-66828839D01*
X199830820Y-66818438D01*
X199956603Y-66814701D01*
X199959727Y-66814700D01*
X200189095Y-66814700D01*
X200411847Y-67036420D01*
G37*
X200411847Y-67036420D02*
X200634600Y-67258140D01*
X200634600Y-70624700D01*
X201193400Y-70624700D01*
X201193400Y-69321680D01*
X201193707Y-69010817D01*
X201194677Y-68747704D01*
X201196379Y-68529294D01*
X201198882Y-68352540D01*
X201202257Y-68214395D01*
X201206572Y-68111812D01*
X201211897Y-68041745D01*
X201218303Y-68001145D01*
X201223879Y-67988180D01*
X201267181Y-67971839D01*
X201354820Y-67961438D01*
X201480603Y-67957701D01*
X201483727Y-67957700D01*
X201713095Y-67957700D01*
X201935847Y-68179420D01*
X202158600Y-68401140D01*
X202158600Y-70624700D01*
X202717400Y-70624700D01*
X202717400Y-69893180D01*
X202718053Y-69661063D01*
X202720109Y-69476087D01*
X202723715Y-69334608D01*
X202729016Y-69232983D01*
X202736157Y-69167567D01*
X202745285Y-69134716D01*
X202747879Y-69131180D01*
X202791195Y-69114847D01*
X202878957Y-69104451D01*
X203005084Y-69100702D01*
X203008759Y-69100700D01*
X203239159Y-69100700D01*
X203460879Y-69323452D01*
X203682600Y-69546204D01*
X203682600Y-70624700D01*
X207289400Y-70624700D01*
X207289400Y-69546204D01*
X207732840Y-69100700D01*
X207963240Y-69100700D01*
X208090268Y-69104269D01*
X208179087Y-69114504D01*
X208223615Y-69130694D01*
X208224120Y-69131180D01*
X208233764Y-69156499D01*
X208241385Y-69213478D01*
X208247130Y-69305761D01*
X208251144Y-69436991D01*
X208253572Y-69610812D01*
X208254560Y-69830868D01*
X208254600Y-69893180D01*
X208254600Y-70624700D01*
X208813400Y-70624700D01*
X208813400Y-68401140D01*
X209258904Y-67957700D01*
X209488272Y-67957700D01*
X209614819Y-67961282D01*
X209703356Y-67971546D01*
X209747691Y-67987765D01*
X209748120Y-67988180D01*
X209755384Y-68008605D01*
X209761516Y-68056205D01*
X209766585Y-68134027D01*
X209770661Y-68245117D01*
X209773814Y-68392522D01*
X209776112Y-68579290D01*
X209777627Y-68808467D01*
X209778427Y-69083099D01*
X209778600Y-69321680D01*
X209778600Y-70624700D01*
X210337400Y-70624700D01*
X210337400Y-67258140D01*
X210782904Y-66814700D01*
X211012272Y-66814700D01*
X211138819Y-66818282D01*
X211227356Y-66828546D01*
X211271691Y-66844765D01*
X211272120Y-66845180D01*
X211277908Y-66863036D01*
X211282985Y-66905956D01*
X211287387Y-66976435D01*
X211291148Y-67076971D01*
X211294305Y-67210058D01*
X211296895Y-67378192D01*
X211298953Y-67583871D01*
X211300514Y-67829590D01*
X211301616Y-68117845D01*
X211302293Y-68451132D01*
X211302583Y-68831948D01*
X211302600Y-68960144D01*
X211302600Y-71044628D01*
X211016452Y-71329964D01*
X210730305Y-71615300D01*
X210095226Y-71615299D01*
X209460146Y-71615299D01*
X209207100Y-71869299D01*
X208954053Y-72123299D01*
X207695161Y-72123299D01*
X207784380Y-72300465D01*
X207873600Y-72477631D01*
X207873600Y-73832681D01*
X207238600Y-75039167D01*
X206603600Y-76245654D01*
X206603600Y-77775628D01*
X206317452Y-78060964D01*
X206031305Y-78346300D01*
X204939071Y-78346300D01*
X204653735Y-78060152D01*
X204368400Y-77774005D01*
X204368400Y-76245654D01*
X203733400Y-75039167D01*
X203098400Y-73832681D01*
X203098400Y-72631300D01*
X203301600Y-72631300D01*
X203301600Y-73741345D01*
X203936600Y-74947832D01*
X204571600Y-76154318D01*
X204571600Y-76450209D01*
X204572273Y-76566015D01*
X204574105Y-76660569D01*
X204576813Y-76723908D01*
X204579994Y-76746100D01*
X204598130Y-76727304D01*
X204635932Y-76678911D01*
X204668894Y-76633997D01*
X204749400Y-76521895D01*
X204749400Y-73705455D01*
X204450961Y-73168377D01*
X204152523Y-72631300D01*
X203301600Y-72631300D01*
X203098400Y-72631300D01*
X203098400Y-72477631D01*
X203136134Y-72402700D01*
X203377908Y-72402700D01*
X204263340Y-72402700D01*
X204311592Y-72472550D01*
X204337303Y-72514137D01*
X204383371Y-72593082D01*
X204445714Y-72702208D01*
X204520249Y-72834338D01*
X204602895Y-72982294D01*
X204656222Y-73078472D01*
X204952600Y-73614545D01*
X204952600Y-76635802D01*
X204762753Y-76887801D01*
X204572907Y-77139800D01*
X204572253Y-77411350D01*
X204574244Y-77528567D01*
X204580240Y-77622221D01*
X204589368Y-77682185D01*
X204597000Y-77698600D01*
X204612059Y-77685332D01*
X204620718Y-77627127D01*
X204621572Y-77597000D01*
X204825600Y-77597000D01*
X204839333Y-77677097D01*
X204884819Y-77721668D01*
X204968489Y-77736607D01*
X204978000Y-77736700D01*
X205047599Y-77728697D01*
X205096583Y-77709138D01*
X205099920Y-77706220D01*
X205121781Y-77660349D01*
X205130400Y-77597000D01*
X205116666Y-77516902D01*
X205071180Y-77472331D01*
X204987510Y-77457392D01*
X204978000Y-77457300D01*
X204890621Y-77469888D01*
X204841998Y-77511584D01*
X204825700Y-77588282D01*
X204825600Y-77597000D01*
X204621572Y-77597000D01*
X204622400Y-77567819D01*
X204625489Y-77480041D01*
X204640432Y-77420985D01*
X204675737Y-77368688D01*
X204716454Y-77325020D01*
X204770852Y-77272676D01*
X204816849Y-77243823D01*
X204873202Y-77231495D01*
X204958668Y-77228722D01*
X204975733Y-77228700D01*
X205067929Y-77230754D01*
X205128451Y-77241493D01*
X205176394Y-77267785D01*
X205230852Y-77316496D01*
X205237279Y-77322754D01*
X205287925Y-77374943D01*
X205316739Y-77418850D01*
X205329868Y-77471830D01*
X205333458Y-77551239D01*
X205333600Y-77594733D01*
X205332005Y-77690170D01*
X205323188Y-77752457D01*
X205301100Y-77799231D01*
X205259694Y-77848127D01*
X205239545Y-77868979D01*
X205179160Y-77925732D01*
X205127192Y-77954378D01*
X205060777Y-77964351D01*
X205006193Y-77965300D01*
X204866895Y-77965300D01*
X204939900Y-78041500D01*
X205012904Y-78117700D01*
X205959095Y-78117700D01*
X206032100Y-78041500D01*
X206105104Y-77965300D01*
X205968073Y-77965300D01*
X205882192Y-77961416D01*
X205823002Y-77943343D01*
X205766595Y-77901445D01*
X205734720Y-77871245D01*
X205684074Y-77819056D01*
X205655260Y-77775149D01*
X205642131Y-77722169D01*
X205638541Y-77642760D01*
X205638400Y-77599266D01*
X205638437Y-77597000D01*
X205841600Y-77597000D01*
X205855333Y-77677097D01*
X205900819Y-77721668D01*
X205984489Y-77736607D01*
X205994000Y-77736700D01*
X206063599Y-77728697D01*
X206112583Y-77709138D01*
X206115920Y-77706220D01*
X206137781Y-77660349D01*
X206146400Y-77597000D01*
X206132666Y-77516902D01*
X206087180Y-77472331D01*
X206003510Y-77457392D01*
X205994000Y-77457300D01*
X205906621Y-77469888D01*
X205857998Y-77511584D01*
X205841700Y-77588282D01*
X205841600Y-77597000D01*
X205638437Y-77597000D01*
X205639994Y-77503829D01*
X205648811Y-77441542D01*
X205670899Y-77394768D01*
X205712305Y-77345872D01*
X205732454Y-77325020D01*
X205786852Y-77272676D01*
X205832849Y-77243823D01*
X205889202Y-77231495D01*
X205974668Y-77228722D01*
X205991733Y-77228700D01*
X206083929Y-77230754D01*
X206144451Y-77241493D01*
X206192394Y-77267785D01*
X206246852Y-77316496D01*
X206253279Y-77322754D01*
X206308240Y-77380660D01*
X206337024Y-77430099D01*
X206348004Y-77492185D01*
X206349600Y-77565553D01*
X206353460Y-77650945D01*
X206364345Y-77694961D01*
X206375000Y-77698600D01*
X206385774Y-77667639D01*
X206394015Y-77596033D01*
X206398850Y-77493909D01*
X206399746Y-77411350D01*
X206399092Y-77139800D01*
X206019400Y-76635802D01*
X206019400Y-73705455D01*
X206222600Y-73705455D01*
X206222600Y-76521895D01*
X206305150Y-76637054D01*
X206387700Y-76752214D01*
X206413100Y-76123800D01*
X207670400Y-73741632D01*
X207670400Y-72631300D01*
X206819476Y-72631300D01*
X206521038Y-73168377D01*
X206222600Y-73705455D01*
X206019400Y-73705455D01*
X206019400Y-73614545D01*
X206315777Y-73078472D01*
X206401394Y-72924325D01*
X206481421Y-72781571D01*
X206551778Y-72657387D01*
X206608381Y-72558951D01*
X206647150Y-72493438D01*
X206660407Y-72472549D01*
X206708659Y-72402699D01*
X207151375Y-72402700D01*
X207594091Y-72402700D01*
X207200644Y-71615300D01*
X207442351Y-71615300D01*
X207510867Y-71755000D01*
X207579382Y-71894700D01*
X208878635Y-71894700D01*
X209016600Y-71755000D01*
X209154564Y-71615300D01*
X207442351Y-71615300D01*
X207200644Y-71615300D01*
X206819887Y-70853300D01*
X207061103Y-70853300D01*
X207326381Y-71386700D01*
X210653895Y-71386700D01*
X210876647Y-71164979D01*
X211099400Y-70943259D01*
X211099400Y-67043300D01*
X210979433Y-67043300D01*
X210919143Y-67045681D01*
X210871616Y-67057602D01*
X210824188Y-67086225D01*
X210764194Y-67138711D01*
X210700033Y-67201316D01*
X210540600Y-67359332D01*
X210540600Y-69075836D01*
X210540378Y-69434102D01*
X210539683Y-69744288D01*
X210538467Y-70009113D01*
X210536682Y-70231296D01*
X210534281Y-70413555D01*
X210531216Y-70558609D01*
X210527440Y-70669177D01*
X210522906Y-70747976D01*
X210517566Y-70797727D01*
X210511373Y-70821146D01*
X210510119Y-70822820D01*
X210473126Y-70834818D01*
X210395999Y-70844019D01*
X210289328Y-70850424D01*
X210163700Y-70854032D01*
X210029706Y-70854843D01*
X209897935Y-70852858D01*
X209778975Y-70848076D01*
X209683415Y-70840497D01*
X209621846Y-70830122D01*
X209605880Y-70822820D01*
X209598615Y-70802394D01*
X209592483Y-70754794D01*
X209587414Y-70676972D01*
X209583338Y-70565882D01*
X209580185Y-70418477D01*
X209577887Y-70231709D01*
X209576372Y-70002532D01*
X209575572Y-69727900D01*
X209575400Y-69489320D01*
X209575400Y-68186300D01*
X209455433Y-68186300D01*
X209395143Y-68188681D01*
X209347616Y-68200602D01*
X209300188Y-68229225D01*
X209240194Y-68281711D01*
X209176033Y-68344316D01*
X209016600Y-68502332D01*
X209016600Y-69647336D01*
X209016238Y-69938273D01*
X209015098Y-70181616D01*
X209013097Y-70380565D01*
X209010152Y-70538320D01*
X209006180Y-70658083D01*
X209001097Y-70743053D01*
X208994821Y-70796432D01*
X208987269Y-70821419D01*
X208986120Y-70822819D01*
X208949126Y-70834818D01*
X208871999Y-70844019D01*
X208765328Y-70850424D01*
X208639700Y-70854032D01*
X208505706Y-70854843D01*
X208373935Y-70852858D01*
X208254975Y-70848076D01*
X208159415Y-70840497D01*
X208097846Y-70830122D01*
X208081880Y-70822820D01*
X208072235Y-70797500D01*
X208064614Y-70740521D01*
X208058869Y-70648238D01*
X208054855Y-70517008D01*
X208052427Y-70343187D01*
X208051439Y-70123131D01*
X208051400Y-70060820D01*
X208051400Y-69329300D01*
X207931433Y-69329300D01*
X207871143Y-69331681D01*
X207823616Y-69343602D01*
X207776188Y-69372225D01*
X207716194Y-69424711D01*
X207652033Y-69487316D01*
X207492600Y-69645332D01*
X207492600Y-70218836D01*
X207491670Y-70425145D01*
X207488758Y-70584379D01*
X207483678Y-70700232D01*
X207476241Y-70776396D01*
X207466263Y-70816564D01*
X207462120Y-70822819D01*
X207419791Y-70839415D01*
X207338679Y-70850105D01*
X207246371Y-70853300D01*
X207061103Y-70853300D01*
X206819887Y-70853300D01*
X204152112Y-70853300D01*
X203377908Y-72402700D01*
X203136134Y-72402700D01*
X203276838Y-72123299D01*
X202017946Y-72123299D01*
X201764899Y-71869299D01*
X201511854Y-71615300D01*
X201817435Y-71615300D01*
X201955400Y-71755000D01*
X202093364Y-71894700D01*
X203392617Y-71894700D01*
X203461132Y-71755000D01*
X203529648Y-71615300D01*
X201817435Y-71615300D01*
X201511854Y-71615300D01*
X201511853Y-71615299D01*
X200875962Y-71615299D01*
X200240071Y-71615300D01*
X199954735Y-71329152D01*
X199669400Y-71043005D01*
X199669400Y-68959332D01*
X199669576Y-68563343D01*
X199670130Y-68215657D01*
X199671096Y-67913777D01*
X199672512Y-67655206D01*
X199674413Y-67437447D01*
X199676835Y-67258005D01*
X199679813Y-67114382D01*
X199682114Y-67043300D01*
X199872600Y-67043300D01*
X199872600Y-70941195D01*
X200094320Y-71163947D01*
X200316040Y-71386700D01*
X203645618Y-71386700D01*
X203910896Y-70853300D01*
X203725628Y-70853300D01*
X203620522Y-70849066D01*
X203543959Y-70837480D01*
X203509880Y-70822820D01*
X203498950Y-70794385D01*
X203490635Y-70731216D01*
X203484747Y-70629621D01*
X203481100Y-70485907D01*
X203479507Y-70296383D01*
X203479400Y-70220253D01*
X203479399Y-69648166D01*
X203321383Y-69488733D01*
X203243566Y-69411938D01*
X203188079Y-69364802D01*
X203142300Y-69340123D01*
X203093606Y-69330698D01*
X203041983Y-69329300D01*
X202920600Y-69329300D01*
X202920600Y-70060820D01*
X202919946Y-70292936D01*
X202917890Y-70477912D01*
X202914284Y-70619391D01*
X202908983Y-70721016D01*
X202901842Y-70786432D01*
X202892714Y-70819283D01*
X202890119Y-70822820D01*
X202853126Y-70834818D01*
X202775999Y-70844019D01*
X202669328Y-70850424D01*
X202543700Y-70854032D01*
X202409706Y-70854843D01*
X202277935Y-70852858D01*
X202158975Y-70848076D01*
X202063415Y-70840497D01*
X202001846Y-70830122D01*
X201985879Y-70822819D01*
X201978140Y-70801496D01*
X201971689Y-70752217D01*
X201966445Y-70671779D01*
X201962323Y-70556980D01*
X201959242Y-70404619D01*
X201957117Y-70211492D01*
X201955866Y-69974399D01*
X201955406Y-69690138D01*
X201955399Y-69648753D01*
X201955399Y-68505166D01*
X201797383Y-68345733D01*
X201719566Y-68268938D01*
X201664079Y-68221802D01*
X201618300Y-68197123D01*
X201569606Y-68187698D01*
X201517983Y-68186299D01*
X201396600Y-68186300D01*
X201396600Y-69489319D01*
X201396292Y-69800182D01*
X201395322Y-70063295D01*
X201393620Y-70281705D01*
X201391117Y-70458459D01*
X201387742Y-70596604D01*
X201383427Y-70699187D01*
X201378102Y-70769254D01*
X201371696Y-70809854D01*
X201366120Y-70822819D01*
X201329126Y-70834818D01*
X201251999Y-70844019D01*
X201145328Y-70850424D01*
X201019700Y-70854032D01*
X200885706Y-70854843D01*
X200753935Y-70852858D01*
X200634975Y-70848076D01*
X200539415Y-70840497D01*
X200477846Y-70830122D01*
X200461879Y-70822820D01*
X200455519Y-70804005D01*
X200450022Y-70759363D01*
X200445340Y-70686174D01*
X200441425Y-70581718D01*
X200438232Y-70443277D01*
X200435711Y-70268130D01*
X200433815Y-70053557D01*
X200432498Y-69796840D01*
X200431711Y-69495259D01*
X200431407Y-69146093D01*
X200431400Y-69077253D01*
X200431399Y-67362166D01*
X200273383Y-67202733D01*
X200195566Y-67125938D01*
X200140079Y-67078802D01*
X200094300Y-67054123D01*
X200045606Y-67044698D01*
X199993983Y-67043300D01*
X199872600Y-67043300D01*
X199682114Y-67043300D01*
X199683385Y-67004082D01*
X199687586Y-66924610D01*
X199692452Y-66873467D01*
X199698019Y-66848157D01*
X199699879Y-66845180D01*
X199743181Y-66828839D01*
X199830820Y-66818438D01*
X199956603Y-66814701D01*
X199959727Y-66814700D01*
X200189095Y-66814700D01*
X200411847Y-67036420D01*
G36*
X204096545Y-72880020D02*
G01*
X204146131Y-72933819D01*
X204174285Y-72979329D01*
X204187053Y-73034188D01*
X204190485Y-73116032D01*
X204190600Y-73154266D01*
X204189120Y-73249265D01*
X204180582Y-73310827D01*
X204158841Y-73356308D01*
X204117750Y-73403064D01*
X204094279Y-73426245D01*
X203997958Y-73520300D01*
X203540509Y-73520300D01*
X203446454Y-73423979D01*
X203396868Y-73370180D01*
X203368714Y-73324670D01*
X203355946Y-73269811D01*
X203352514Y-73187967D01*
X203352407Y-73152000D01*
X203555600Y-73152000D01*
X203564893Y-73217769D01*
X203586080Y-73261220D01*
X203629883Y-73279016D01*
X203705563Y-73288874D01*
X203794819Y-73290794D01*
X203879352Y-73284777D01*
X203940862Y-73270821D01*
X203956920Y-73261219D01*
X203978781Y-73215349D01*
X203987400Y-73152000D01*
X203978424Y-73082669D01*
X203945733Y-73040005D01*
X203880684Y-73018414D01*
X203774632Y-73012302D01*
X203771500Y-73012300D01*
X203664353Y-73018107D01*
X203598418Y-73039260D01*
X203565049Y-73081351D01*
X203555604Y-73149973D01*
X203555600Y-73152000D01*
X203352407Y-73152000D01*
X203352400Y-73149733D01*
X203353879Y-73054734D01*
X203362417Y-72993172D01*
X203384158Y-72947691D01*
X203425249Y-72900935D01*
X203448720Y-72877754D01*
X203545041Y-72783700D01*
X204002490Y-72783700D01*
X204096545Y-72880020D01*
G37*
X204096545Y-72880020D02*
X204146131Y-72933819D01*
X204174285Y-72979329D01*
X204187053Y-73034188D01*
X204190485Y-73116032D01*
X204190600Y-73154266D01*
X204189120Y-73249265D01*
X204180582Y-73310827D01*
X204158841Y-73356308D01*
X204117750Y-73403064D01*
X204094279Y-73426245D01*
X203997958Y-73520300D01*
X203540509Y-73520300D01*
X203446454Y-73423979D01*
X203396868Y-73370180D01*
X203368714Y-73324670D01*
X203355946Y-73269811D01*
X203352514Y-73187967D01*
X203352407Y-73152000D01*
X203555600Y-73152000D01*
X203564893Y-73217769D01*
X203586080Y-73261220D01*
X203629883Y-73279016D01*
X203705563Y-73288874D01*
X203794819Y-73290794D01*
X203879352Y-73284777D01*
X203940862Y-73270821D01*
X203956920Y-73261219D01*
X203978781Y-73215349D01*
X203987400Y-73152000D01*
X203978424Y-73082669D01*
X203945733Y-73040005D01*
X203880684Y-73018414D01*
X203774632Y-73012302D01*
X203771500Y-73012300D01*
X203664353Y-73018107D01*
X203598418Y-73039260D01*
X203565049Y-73081351D01*
X203555604Y-73149973D01*
X203555600Y-73152000D01*
X203352407Y-73152000D01*
X203352400Y-73149733D01*
X203353879Y-73054734D01*
X203362417Y-72993172D01*
X203384158Y-72947691D01*
X203425249Y-72900935D01*
X203448720Y-72877754D01*
X203545041Y-72783700D01*
X204002490Y-72783700D01*
X204096545Y-72880020D01*
G36*
X207525545Y-72880020D02*
G01*
X207575131Y-72933819D01*
X207603285Y-72979329D01*
X207616053Y-73034188D01*
X207619485Y-73116032D01*
X207619600Y-73154266D01*
X207618120Y-73249265D01*
X207609582Y-73310827D01*
X207587841Y-73356308D01*
X207546750Y-73403064D01*
X207523279Y-73426245D01*
X207426958Y-73520300D01*
X206969509Y-73520300D01*
X206875454Y-73423979D01*
X206825868Y-73370180D01*
X206797714Y-73324670D01*
X206784946Y-73269811D01*
X206781514Y-73187967D01*
X206781407Y-73152000D01*
X206984600Y-73152000D01*
X206993893Y-73217769D01*
X207015080Y-73261220D01*
X207058883Y-73279016D01*
X207134563Y-73288874D01*
X207223819Y-73290794D01*
X207308352Y-73284777D01*
X207369862Y-73270821D01*
X207385920Y-73261219D01*
X207407781Y-73215349D01*
X207416400Y-73152000D01*
X207407424Y-73082669D01*
X207374733Y-73040005D01*
X207309684Y-73018414D01*
X207203632Y-73012302D01*
X207200500Y-73012300D01*
X207093353Y-73018107D01*
X207027418Y-73039260D01*
X206994049Y-73081351D01*
X206984604Y-73149973D01*
X206984600Y-73152000D01*
X206781407Y-73152000D01*
X206781400Y-73149733D01*
X206782879Y-73054734D01*
X206791417Y-72993172D01*
X206813158Y-72947691D01*
X206854249Y-72900935D01*
X206877720Y-72877754D01*
X206974041Y-72783700D01*
X207431490Y-72783700D01*
X207525545Y-72880020D01*
G37*
X207525545Y-72880020D02*
X207575131Y-72933819D01*
X207603285Y-72979329D01*
X207616053Y-73034188D01*
X207619485Y-73116032D01*
X207619600Y-73154266D01*
X207618120Y-73249265D01*
X207609582Y-73310827D01*
X207587841Y-73356308D01*
X207546750Y-73403064D01*
X207523279Y-73426245D01*
X207426958Y-73520300D01*
X206969509Y-73520300D01*
X206875454Y-73423979D01*
X206825868Y-73370180D01*
X206797714Y-73324670D01*
X206784946Y-73269811D01*
X206781514Y-73187967D01*
X206781407Y-73152000D01*
X206984600Y-73152000D01*
X206993893Y-73217769D01*
X207015080Y-73261220D01*
X207058883Y-73279016D01*
X207134563Y-73288874D01*
X207223819Y-73290794D01*
X207308352Y-73284777D01*
X207369862Y-73270821D01*
X207385920Y-73261219D01*
X207407781Y-73215349D01*
X207416400Y-73152000D01*
X207407424Y-73082669D01*
X207374733Y-73040005D01*
X207309684Y-73018414D01*
X207203632Y-73012302D01*
X207200500Y-73012300D01*
X207093353Y-73018107D01*
X207027418Y-73039260D01*
X206994049Y-73081351D01*
X206984604Y-73149973D01*
X206984600Y-73152000D01*
X206781407Y-73152000D01*
X206781400Y-73149733D01*
X206782879Y-73054734D01*
X206791417Y-72993172D01*
X206813158Y-72947691D01*
X206854249Y-72900935D01*
X206877720Y-72877754D01*
X206974041Y-72783700D01*
X207431490Y-72783700D01*
X207525545Y-72880020D01*
D10*
X152402000Y-60929500D02*
X216918000Y-60929500D01*
X152402000Y-114269500D02*
X218442000Y-114269500D01*
X216918000Y-60929500D02*
X218442000Y-62453500D01*
X218442000Y-114269500D02*
X218442000Y-112999500D01*
X218442000Y-112999500D02*
X220982000Y-110459500D01*
X220982000Y-110459500D02*
X220982000Y-76169500D01*
X220982000Y-76169500D02*
X218442000Y-73629500D01*
X218442000Y-73629500D02*
X218442000Y-62453500D01*
X152402000Y-60929500D02*
X152402000Y-114269500D01*
D13*
X215205000Y-79315000D02*
X216535000Y-79315000D01*
X215205000Y-80645000D02*
X215205000Y-79315000D01*
X215205000Y-81915000D02*
X217865000Y-81915000D01*
X217865000Y-81915000D02*
X217865000Y-84515000D01*
X215205000Y-81915000D02*
X215205000Y-84515000D01*
X215205000Y-84515000D02*
X217865000Y-84515000D01*
X172509000Y-97175500D02*
X172509000Y-92435500D01*
X177249000Y-97175500D02*
X177249000Y-92435500D01*
X173639000Y-92435500D02*
X172509000Y-92435500D01*
X177249000Y-92435500D02*
X176119000Y-92435500D01*
X175138000Y-97175500D02*
X174619000Y-97175500D01*
X177249000Y-97175500D02*
X176918000Y-97175500D01*
X172839000Y-97175500D02*
X172509000Y-97175500D01*
X182305000Y-106620000D02*
X182305000Y-107950000D01*
X180975000Y-106620000D02*
X182305000Y-106620000D01*
X179705000Y-106620000D02*
X179705000Y-109280000D01*
X179705000Y-109280000D02*
X177105000Y-109280000D01*
X179705000Y-106620000D02*
X177105000Y-106620000D01*
X177105000Y-106620000D02*
X177105000Y-109280000D01*
X195386000Y-83315500D02*
X195386000Y-84645500D01*
X194056000Y-83315500D02*
X195386000Y-83315500D01*
X192786000Y-83315500D02*
X192786000Y-85975500D01*
X192786000Y-85975500D02*
X172406000Y-85975500D01*
X192786000Y-83315500D02*
X172406000Y-83315500D01*
X172406000Y-83315500D02*
X172406000Y-85975500D01*
X196080000Y-102406500D02*
X195580000Y-101406500D01*
X195080000Y-102406500D02*
X196080000Y-102406500D01*
X195580000Y-101406500D02*
X195080000Y-102406500D01*
X206520000Y-99706500D02*
X206520000Y-101016500D01*
X206520000Y-99706500D02*
X206520000Y-99706500D01*
X217270000Y-99706500D02*
X206520000Y-99706500D01*
X217270000Y-93206500D02*
X217270000Y-99706500D01*
X191670000Y-93206500D02*
X217270000Y-93206500D01*
X191670000Y-99706500D02*
X191670000Y-93206500D01*
X202420000Y-99706500D02*
X191670000Y-99706500D01*
X202420000Y-101016500D02*
X202420000Y-99706500D01*
X218570000Y-101016500D02*
X190370000Y-101016500D01*
X218570000Y-91896500D02*
X218570000Y-101016500D01*
X190370000Y-91896500D02*
X218570000Y-91896500D01*
X190370000Y-101016500D02*
X190370000Y-91896500D01*
X178945000Y-103930267D02*
X178945000Y-103587733D01*
X177925000Y-103930267D02*
X177925000Y-103587733D01*
D10*
X153703904Y-59365880D02*
X154370571Y-60365880D01*
X154370571Y-59365880D02*
X153703904Y-60365880D01*
X154703904Y-60080166D02*
X155180095Y-60080166D01*
X154608666Y-60365880D02*
X154942000Y-59365880D01*
X155275333Y-60365880D01*
X156132476Y-60365880D02*
X155561047Y-60365880D01*
X155846761Y-60365880D02*
X155846761Y-59365880D01*
X155751523Y-59508738D01*
X155656285Y-59603976D01*
X155561047Y-59651595D01*
X215201666Y-78719761D02*
X215344523Y-78767380D01*
X215582619Y-78767380D01*
X215677857Y-78719761D01*
X215725476Y-78672142D01*
X215773095Y-78576904D01*
X215773095Y-78481666D01*
X215725476Y-78386428D01*
X215677857Y-78338809D01*
X215582619Y-78291190D01*
X215392142Y-78243571D01*
X215296904Y-78195952D01*
X215249285Y-78148333D01*
X215201666Y-78053095D01*
X215201666Y-77957857D01*
X215249285Y-77862619D01*
X215296904Y-77815000D01*
X215392142Y-77767380D01*
X215630238Y-77767380D01*
X215773095Y-77815000D01*
X216106428Y-77767380D02*
X216344523Y-78767380D01*
X216535000Y-78053095D01*
X216725476Y-78767380D01*
X216963571Y-77767380D01*
X217868333Y-78767380D02*
X217296904Y-78767380D01*
X217582619Y-78767380D02*
X217582619Y-77767380D01*
X217487380Y-77910238D01*
X217392142Y-78005476D01*
X217296904Y-78053095D01*
X174283761Y-99507880D02*
X173950428Y-99031690D01*
X173712333Y-99507880D02*
X173712333Y-98507880D01*
X174093285Y-98507880D01*
X174188523Y-98555500D01*
X174236142Y-98603119D01*
X174283761Y-98698357D01*
X174283761Y-98841214D01*
X174236142Y-98936452D01*
X174188523Y-98984071D01*
X174093285Y-99031690D01*
X173712333Y-99031690D01*
X174569476Y-98507880D02*
X174902809Y-99507880D01*
X175236142Y-98507880D01*
X176093285Y-99507880D02*
X175521857Y-99507880D01*
X175807571Y-99507880D02*
X175807571Y-98507880D01*
X175712333Y-98650738D01*
X175617095Y-98745976D01*
X175521857Y-98793595D01*
X182757380Y-108783333D02*
X183471666Y-108783333D01*
X183614523Y-108830952D01*
X183709761Y-108926190D01*
X183757380Y-109069047D01*
X183757380Y-109164285D01*
X183757380Y-108307142D02*
X182757380Y-108307142D01*
X182757380Y-107926190D01*
X182805000Y-107830952D01*
X182852619Y-107783333D01*
X182947857Y-107735714D01*
X183090714Y-107735714D01*
X183185952Y-107783333D01*
X183233571Y-107830952D01*
X183281190Y-107926190D01*
X183281190Y-108307142D01*
X183757380Y-106783333D02*
X183757380Y-107354761D01*
X183757380Y-107069047D02*
X182757380Y-107069047D01*
X182900238Y-107164285D01*
X182995476Y-107259523D01*
X183043095Y-107354761D01*
X195838380Y-84978833D02*
X196552666Y-84978833D01*
X196695523Y-85026452D01*
X196790761Y-85121690D01*
X196838380Y-85264547D01*
X196838380Y-85359785D01*
X195933619Y-84550261D02*
X195886000Y-84502642D01*
X195838380Y-84407404D01*
X195838380Y-84169309D01*
X195886000Y-84074071D01*
X195933619Y-84026452D01*
X196028857Y-83978833D01*
X196124095Y-83978833D01*
X196266952Y-84026452D01*
X196838380Y-84597880D01*
X196838380Y-83978833D01*
X188932380Y-96789833D02*
X189646666Y-96789833D01*
X189789523Y-96837452D01*
X189884761Y-96932690D01*
X189932380Y-97075547D01*
X189932380Y-97170785D01*
X189932380Y-95789833D02*
X189932380Y-96361261D01*
X189932380Y-96075547D02*
X188932380Y-96075547D01*
X189075238Y-96170785D01*
X189170476Y-96266023D01*
X189218095Y-96361261D01*
X177362142Y-103925666D02*
X177409761Y-103973285D01*
X177457380Y-104116142D01*
X177457380Y-104211380D01*
X177409761Y-104354238D01*
X177314523Y-104449476D01*
X177219285Y-104497095D01*
X177028809Y-104544714D01*
X176885952Y-104544714D01*
X176695476Y-104497095D01*
X176600238Y-104449476D01*
X176505000Y-104354238D01*
X176457380Y-104211380D01*
X176457380Y-104116142D01*
X176505000Y-103973285D01*
X176552619Y-103925666D01*
X177457380Y-102973285D02*
X177457380Y-103544714D01*
X177457380Y-103259000D02*
X176457380Y-103259000D01*
X176600238Y-103354238D01*
X176695476Y-103449476D01*
X176743095Y-103544714D01*
%LPC*%
D14*
X215902000Y-111729500D03*
X213362000Y-111729500D03*
X210822000Y-111729500D03*
X208282000Y-111729500D03*
X205742000Y-111729500D03*
X180342000Y-111729500D03*
X186438000Y-63469500D03*
X183898000Y-63469500D03*
X181358000Y-63469500D03*
X176278000Y-63469500D03*
X173738000Y-63469500D03*
X171198000Y-63469500D03*
X188978000Y-63469500D03*
X191518000Y-63469500D03*
X194058000Y-63469500D03*
X178818000Y-63469500D03*
X198122000Y-63469500D03*
X200662000Y-63469500D03*
X203202000Y-63469500D03*
X205742000Y-63469500D03*
X208282000Y-63469500D03*
X210822000Y-63469500D03*
X213362000Y-63469500D03*
X215902000Y-63469500D03*
X182882000Y-111729500D03*
X185422000Y-111729500D03*
X187962000Y-111729500D03*
X190502000Y-111729500D03*
X193042000Y-111729500D03*
X195582000Y-111729500D03*
X198122000Y-111729500D03*
X203202000Y-111729500D03*
D15*
X216535000Y-83185000D03*
D16*
X216535000Y-80645000D03*
D17*
X176029000Y-96805500D03*
D18*
X174879000Y-92805500D03*
D17*
X173729000Y-96805500D03*
D15*
X178435000Y-107950000D03*
D16*
X180975000Y-107950000D03*
D15*
X173736000Y-84645500D03*
X176276000Y-84645500D03*
X178816000Y-84645500D03*
X181356000Y-84645500D03*
X183896000Y-84645500D03*
X186436000Y-84645500D03*
X188976000Y-84645500D03*
X191516000Y-84645500D03*
D16*
X194056000Y-84645500D03*
D19*
X213360000Y-95186500D03*
X210820000Y-95186500D03*
X208280000Y-95186500D03*
X205740000Y-95186500D03*
X203200000Y-95186500D03*
X200660000Y-95186500D03*
X198120000Y-95186500D03*
X195580000Y-95186500D03*
X213360000Y-97726500D03*
X210820000Y-97726500D03*
X208280000Y-97726500D03*
X205740000Y-97726500D03*
X203200000Y-97726500D03*
X200660000Y-97726500D03*
X198120000Y-97726500D03*
G36*
G01*
X196180000Y-98576500D02*
X194980000Y-98576500D01*
G75*
G02*
X194730000Y-98326500I0J250000D01*
G01*
X194730000Y-97126500D01*
G75*
G02*
X194980000Y-96876500I250000J0D01*
G01*
X196180000Y-96876500D01*
G75*
G02*
X196430000Y-97126500I0J-250000D01*
G01*
X196430000Y-98326500D01*
G75*
G02*
X196180000Y-98576500I-250000J0D01*
G01*
G37*
G36*
G01*
X178672500Y-103409000D02*
X178197500Y-103409000D01*
G75*
G02*
X177960000Y-103171500I0J237500D01*
G01*
X177960000Y-102596500D01*
G75*
G02*
X178197500Y-102359000I237500J0D01*
G01*
X178672500Y-102359000D01*
G75*
G02*
X178910000Y-102596500I0J-237500D01*
G01*
X178910000Y-103171500D01*
G75*
G02*
X178672500Y-103409000I-237500J0D01*
G01*
G37*
G36*
G01*
X178672500Y-105159000D02*
X178197500Y-105159000D01*
G75*
G02*
X177960000Y-104921500I0J237500D01*
G01*
X177960000Y-104346500D01*
G75*
G02*
X178197500Y-104109000I237500J0D01*
G01*
X178672500Y-104109000D01*
G75*
G02*
X178910000Y-104346500I0J-237500D01*
G01*
X178910000Y-104921500D01*
G75*
G02*
X178672500Y-105159000I-237500J0D01*
G01*
G37*
M02*
