G04 #@! TF.GenerationSoftware,KiCad,Pcbnew,(5.1.6)-1*
G04 #@! TF.CreationDate,2021-01-19T11:24:55+01:00*
G04 #@! TF.ProjectId,Thermolino 2A,54686572-6d6f-46c6-996e-6f2032412e6b,rev?*
G04 #@! TF.SameCoordinates,Original*
G04 #@! TF.FileFunction,Legend,Bot*
G04 #@! TF.FilePolarity,Positive*
%FSLAX46Y46*%
G04 Gerber Fmt 4.6, Leading zero omitted, Abs format (unit mm)*
G04 Created by KiCad (PCBNEW (5.1.6)-1) date 2021-01-19 11:24:55*
%MOMM*%
%LPD*%
G01*
G04 APERTURE LIST*
%ADD10O,1.727200X1.727200*%
%ADD11O,1.700000X1.700000*%
%ADD12R,1.700000X1.700000*%
%ADD13C,1.700000*%
G04 APERTURE END LIST*
%LPC*%
D10*
X215902000Y-111729500D03*
X213362000Y-111729500D03*
X210822000Y-111729500D03*
X208282000Y-111729500D03*
X205742000Y-111729500D03*
X180342000Y-111729500D03*
X186438000Y-63469500D03*
X183898000Y-63469500D03*
X181358000Y-63469500D03*
X176278000Y-63469500D03*
X173738000Y-63469500D03*
X171198000Y-63469500D03*
X188978000Y-63469500D03*
X191518000Y-63469500D03*
X194058000Y-63469500D03*
X178818000Y-63469500D03*
X198122000Y-63469500D03*
X200662000Y-63469500D03*
X203202000Y-63469500D03*
X205742000Y-63469500D03*
X208282000Y-63469500D03*
X210822000Y-63469500D03*
X213362000Y-63469500D03*
X215902000Y-63469500D03*
X182882000Y-111729500D03*
X185422000Y-111729500D03*
X187962000Y-111729500D03*
X190502000Y-111729500D03*
X193042000Y-111729500D03*
X195582000Y-111729500D03*
X198122000Y-111729500D03*
X203202000Y-111729500D03*
D11*
X216535000Y-83185000D03*
D12*
X216535000Y-80645000D03*
D11*
X178435000Y-107950000D03*
D12*
X180975000Y-107950000D03*
D11*
X173736000Y-84645500D03*
X176276000Y-84645500D03*
X178816000Y-84645500D03*
X181356000Y-84645500D03*
X183896000Y-84645500D03*
X186436000Y-84645500D03*
X188976000Y-84645500D03*
X191516000Y-84645500D03*
D12*
X194056000Y-84645500D03*
D13*
X213360000Y-95186500D03*
X210820000Y-95186500D03*
X208280000Y-95186500D03*
X205740000Y-95186500D03*
X203200000Y-95186500D03*
X200660000Y-95186500D03*
X198120000Y-95186500D03*
X195580000Y-95186500D03*
X213360000Y-97726500D03*
X210820000Y-97726500D03*
X208280000Y-97726500D03*
X205740000Y-97726500D03*
X203200000Y-97726500D03*
X200660000Y-97726500D03*
X198120000Y-97726500D03*
G36*
G01*
X196180000Y-98576500D02*
X194980000Y-98576500D01*
G75*
G02*
X194730000Y-98326500I0J250000D01*
G01*
X194730000Y-97126500D01*
G75*
G02*
X194980000Y-96876500I250000J0D01*
G01*
X196180000Y-96876500D01*
G75*
G02*
X196430000Y-97126500I0J-250000D01*
G01*
X196430000Y-98326500D01*
G75*
G02*
X196180000Y-98576500I-250000J0D01*
G01*
G37*
M02*
