G04 #@! TF.GenerationSoftware,KiCad,Pcbnew,(5.1.6)-1*
G04 #@! TF.CreationDate,2021-01-19T11:24:55+01:00*
G04 #@! TF.ProjectId,Thermolino 2A,54686572-6d6f-46c6-996e-6f2032412e6b,rev?*
G04 #@! TF.SameCoordinates,Original*
G04 #@! TF.FileFunction,Copper,L1,Top*
G04 #@! TF.FilePolarity,Positive*
%FSLAX46Y46*%
G04 Gerber Fmt 4.6, Leading zero omitted, Abs format (unit mm)*
G04 Created by KiCad (PCBNEW (5.1.6)-1) date 2021-01-19 11:24:55*
%MOMM*%
%LPD*%
G01*
G04 APERTURE LIST*
G04 #@! TA.AperFunction,ComponentPad*
%ADD10O,1.727200X1.727200*%
G04 #@! TD*
G04 #@! TA.AperFunction,ComponentPad*
%ADD11O,1.700000X1.700000*%
G04 #@! TD*
G04 #@! TA.AperFunction,ComponentPad*
%ADD12R,1.700000X1.700000*%
G04 #@! TD*
G04 #@! TA.AperFunction,SMDPad,CuDef*
%ADD13R,1.300000X2.000000*%
G04 #@! TD*
G04 #@! TA.AperFunction,SMDPad,CuDef*
%ADD14R,2.000000X2.000000*%
G04 #@! TD*
G04 #@! TA.AperFunction,ComponentPad*
%ADD15C,1.700000*%
G04 #@! TD*
G04 #@! TA.AperFunction,Conductor*
%ADD16C,0.250000*%
G04 #@! TD*
G04 APERTURE END LIST*
D10*
X215902000Y-111729500D03*
X213362000Y-111729500D03*
X210822000Y-111729500D03*
X208282000Y-111729500D03*
X205742000Y-111729500D03*
X180342000Y-111729500D03*
X186438000Y-63469500D03*
X183898000Y-63469500D03*
X181358000Y-63469500D03*
X176278000Y-63469500D03*
X173738000Y-63469500D03*
X171198000Y-63469500D03*
X188978000Y-63469500D03*
X191518000Y-63469500D03*
X194058000Y-63469500D03*
X178818000Y-63469500D03*
X198122000Y-63469500D03*
X200662000Y-63469500D03*
X203202000Y-63469500D03*
X205742000Y-63469500D03*
X208282000Y-63469500D03*
X210822000Y-63469500D03*
X213362000Y-63469500D03*
X215902000Y-63469500D03*
X182882000Y-111729500D03*
X185422000Y-111729500D03*
X187962000Y-111729500D03*
X190502000Y-111729500D03*
X193042000Y-111729500D03*
X195582000Y-111729500D03*
X198122000Y-111729500D03*
X203202000Y-111729500D03*
D11*
X216535000Y-83185000D03*
D12*
X216535000Y-80645000D03*
D13*
X176029000Y-96805500D03*
D14*
X174879000Y-92805500D03*
D13*
X173729000Y-96805500D03*
D11*
X178435000Y-107950000D03*
D12*
X180975000Y-107950000D03*
D11*
X173736000Y-84645500D03*
X176276000Y-84645500D03*
X178816000Y-84645500D03*
X181356000Y-84645500D03*
X183896000Y-84645500D03*
X186436000Y-84645500D03*
X188976000Y-84645500D03*
X191516000Y-84645500D03*
D12*
X194056000Y-84645500D03*
D15*
X213360000Y-95186500D03*
X210820000Y-95186500D03*
X208280000Y-95186500D03*
X205740000Y-95186500D03*
X203200000Y-95186500D03*
X200660000Y-95186500D03*
X198120000Y-95186500D03*
X195580000Y-95186500D03*
X213360000Y-97726500D03*
X210820000Y-97726500D03*
X208280000Y-97726500D03*
X205740000Y-97726500D03*
X203200000Y-97726500D03*
X200660000Y-97726500D03*
X198120000Y-97726500D03*
G04 #@! TA.AperFunction,ComponentPad*
G36*
G01*
X196180000Y-98576500D02*
X194980000Y-98576500D01*
G75*
G02*
X194730000Y-98326500I0J250000D01*
G01*
X194730000Y-97126500D01*
G75*
G02*
X194980000Y-96876500I250000J0D01*
G01*
X196180000Y-96876500D01*
G75*
G02*
X196430000Y-97126500I0J-250000D01*
G01*
X196430000Y-98326500D01*
G75*
G02*
X196180000Y-98576500I-250000J0D01*
G01*
G37*
G04 #@! TD.AperFunction*
G04 #@! TA.AperFunction,SMDPad,CuDef*
G36*
G01*
X178672500Y-103409000D02*
X178197500Y-103409000D01*
G75*
G02*
X177960000Y-103171500I0J237500D01*
G01*
X177960000Y-102596500D01*
G75*
G02*
X178197500Y-102359000I237500J0D01*
G01*
X178672500Y-102359000D01*
G75*
G02*
X178910000Y-102596500I0J-237500D01*
G01*
X178910000Y-103171500D01*
G75*
G02*
X178672500Y-103409000I-237500J0D01*
G01*
G37*
G04 #@! TD.AperFunction*
G04 #@! TA.AperFunction,SMDPad,CuDef*
G36*
G01*
X178672500Y-105159000D02*
X178197500Y-105159000D01*
G75*
G02*
X177960000Y-104921500I0J237500D01*
G01*
X177960000Y-104346500D01*
G75*
G02*
X178197500Y-104109000I237500J0D01*
G01*
X178672500Y-104109000D01*
G75*
G02*
X178910000Y-104346500I0J-237500D01*
G01*
X178910000Y-104921500D01*
G75*
G02*
X178672500Y-105159000I-237500J0D01*
G01*
G37*
G04 #@! TD.AperFunction*
D16*
X178435000Y-104634000D02*
X178435000Y-107950000D01*
X172886001Y-95962501D02*
X173729000Y-96805500D01*
X173736000Y-84645500D02*
X172886001Y-85495499D01*
X172886001Y-85495499D02*
X172886001Y-95962501D01*
X173729000Y-97973500D02*
X173729000Y-96805500D01*
X175514000Y-99758500D02*
X173729000Y-97973500D01*
X178531000Y-99758500D02*
X175514000Y-99758500D01*
X190502000Y-111729500D02*
X178531000Y-99758500D01*
X209486500Y-101600000D02*
X213360000Y-97726500D01*
X205627250Y-105459250D02*
X209486500Y-101600000D01*
X196772250Y-105459250D02*
X205627250Y-105459250D01*
X190502000Y-111729500D02*
X196772250Y-105459250D01*
X174879000Y-92805500D02*
X182721500Y-92805500D01*
X182721500Y-92805500D02*
X190182500Y-100266500D01*
X195580000Y-100266500D02*
X198120000Y-97726500D01*
X190182500Y-100266500D02*
X195580000Y-100266500D01*
X181642500Y-107950000D02*
X180975000Y-107950000D01*
X185422000Y-111729500D02*
X181642500Y-107950000D01*
X216535000Y-98396500D02*
X216535000Y-83185000D01*
X203202000Y-111729500D02*
X216535000Y-98396500D01*
G36*
X218040001Y-62649686D02*
G01*
X218040000Y-73386353D01*
X218040000Y-73640354D01*
X218038065Y-73660000D01*
X218040000Y-73679646D01*
X218045788Y-73738413D01*
X218068660Y-73813813D01*
X218105803Y-73883302D01*
X218155789Y-73944211D01*
X218171052Y-73956737D01*
X220580001Y-76365686D01*
X220580000Y-109620646D01*
X220580001Y-109620656D01*
X220580000Y-110260815D01*
X218171048Y-112669767D01*
X218155790Y-112682289D01*
X218143268Y-112697547D01*
X218143265Y-112697550D01*
X218105803Y-112743198D01*
X218068661Y-112812686D01*
X218045788Y-112888087D01*
X218038065Y-112966500D01*
X218040001Y-112986156D01*
X218040000Y-113836500D01*
X169945000Y-113836500D01*
X169945000Y-111607509D01*
X179103400Y-111607509D01*
X179103400Y-111851491D01*
X179150999Y-112090786D01*
X179244367Y-112316197D01*
X179379917Y-112519061D01*
X179552439Y-112691583D01*
X179755303Y-112827133D01*
X179980714Y-112920501D01*
X180220009Y-112968100D01*
X180463991Y-112968100D01*
X180703286Y-112920501D01*
X180928697Y-112827133D01*
X181131561Y-112691583D01*
X181304083Y-112519061D01*
X181439633Y-112316197D01*
X181533001Y-112090786D01*
X181580600Y-111851491D01*
X181580600Y-111607509D01*
X181643400Y-111607509D01*
X181643400Y-111851491D01*
X181690999Y-112090786D01*
X181784367Y-112316197D01*
X181919917Y-112519061D01*
X182092439Y-112691583D01*
X182295303Y-112827133D01*
X182520714Y-112920501D01*
X182760009Y-112968100D01*
X183003991Y-112968100D01*
X183243286Y-112920501D01*
X183468697Y-112827133D01*
X183671561Y-112691583D01*
X183844083Y-112519061D01*
X183979633Y-112316197D01*
X184073001Y-112090786D01*
X184120600Y-111851491D01*
X184120600Y-111607509D01*
X184073001Y-111368214D01*
X183979633Y-111142803D01*
X183844083Y-110939939D01*
X183671561Y-110767417D01*
X183468697Y-110631867D01*
X183243286Y-110538499D01*
X183003991Y-110490900D01*
X182760009Y-110490900D01*
X182520714Y-110538499D01*
X182295303Y-110631867D01*
X182092439Y-110767417D01*
X181919917Y-110939939D01*
X181784367Y-111142803D01*
X181690999Y-111368214D01*
X181643400Y-111607509D01*
X181580600Y-111607509D01*
X181533001Y-111368214D01*
X181439633Y-111142803D01*
X181304083Y-110939939D01*
X181131561Y-110767417D01*
X180928697Y-110631867D01*
X180703286Y-110538499D01*
X180463991Y-110490900D01*
X180220009Y-110490900D01*
X179980714Y-110538499D01*
X179755303Y-110631867D01*
X179552439Y-110767417D01*
X179379917Y-110939939D01*
X179244367Y-111142803D01*
X179150999Y-111368214D01*
X179103400Y-111607509D01*
X169945000Y-111607509D01*
X169945000Y-107829348D01*
X177210000Y-107829348D01*
X177210000Y-108070652D01*
X177257076Y-108307319D01*
X177349419Y-108530255D01*
X177483481Y-108730892D01*
X177654108Y-108901519D01*
X177854745Y-109035581D01*
X178077681Y-109127924D01*
X178314348Y-109175000D01*
X178555652Y-109175000D01*
X178792319Y-109127924D01*
X179015255Y-109035581D01*
X179215892Y-108901519D01*
X179386519Y-108730892D01*
X179520581Y-108530255D01*
X179612924Y-108307319D01*
X179660000Y-108070652D01*
X179660000Y-107829348D01*
X179612924Y-107592681D01*
X179520581Y-107369745D01*
X179386519Y-107169108D01*
X179317411Y-107100000D01*
X179748186Y-107100000D01*
X179748186Y-108800000D01*
X179755426Y-108873513D01*
X179776869Y-108944200D01*
X179811691Y-109009347D01*
X179858552Y-109066448D01*
X179915653Y-109113309D01*
X179980800Y-109148131D01*
X180051487Y-109169574D01*
X180125000Y-109176814D01*
X181825000Y-109176814D01*
X181898513Y-109169574D01*
X181969200Y-109148131D01*
X182034347Y-109113309D01*
X182069695Y-109084300D01*
X184266910Y-111281516D01*
X184230999Y-111368214D01*
X184183400Y-111607509D01*
X184183400Y-111851491D01*
X184230999Y-112090786D01*
X184324367Y-112316197D01*
X184459917Y-112519061D01*
X184632439Y-112691583D01*
X184835303Y-112827133D01*
X185060714Y-112920501D01*
X185300009Y-112968100D01*
X185543991Y-112968100D01*
X185783286Y-112920501D01*
X186008697Y-112827133D01*
X186211561Y-112691583D01*
X186384083Y-112519061D01*
X186519633Y-112316197D01*
X186613001Y-112090786D01*
X186660600Y-111851491D01*
X186660600Y-111607509D01*
X186723400Y-111607509D01*
X186723400Y-111851491D01*
X186770999Y-112090786D01*
X186864367Y-112316197D01*
X186999917Y-112519061D01*
X187172439Y-112691583D01*
X187375303Y-112827133D01*
X187600714Y-112920501D01*
X187840009Y-112968100D01*
X188083991Y-112968100D01*
X188323286Y-112920501D01*
X188548697Y-112827133D01*
X188751561Y-112691583D01*
X188924083Y-112519061D01*
X189059633Y-112316197D01*
X189153001Y-112090786D01*
X189200600Y-111851491D01*
X189200600Y-111607509D01*
X189153001Y-111368214D01*
X189059633Y-111142803D01*
X188924083Y-110939939D01*
X188751561Y-110767417D01*
X188548697Y-110631867D01*
X188323286Y-110538499D01*
X188083991Y-110490900D01*
X187840009Y-110490900D01*
X187600714Y-110538499D01*
X187375303Y-110631867D01*
X187172439Y-110767417D01*
X186999917Y-110939939D01*
X186864367Y-111142803D01*
X186770999Y-111368214D01*
X186723400Y-111607509D01*
X186660600Y-111607509D01*
X186613001Y-111368214D01*
X186519633Y-111142803D01*
X186384083Y-110939939D01*
X186211561Y-110767417D01*
X186008697Y-110631867D01*
X185783286Y-110538499D01*
X185543991Y-110490900D01*
X185300009Y-110490900D01*
X185060714Y-110538499D01*
X184974016Y-110574410D01*
X182201814Y-107802209D01*
X182201814Y-107100000D01*
X182194574Y-107026487D01*
X182173131Y-106955800D01*
X182138309Y-106890653D01*
X182091448Y-106833552D01*
X182034347Y-106786691D01*
X181969200Y-106751869D01*
X181898513Y-106730426D01*
X181825000Y-106723186D01*
X180125000Y-106723186D01*
X180051487Y-106730426D01*
X179980800Y-106751869D01*
X179915653Y-106786691D01*
X179858552Y-106833552D01*
X179811691Y-106890653D01*
X179776869Y-106955800D01*
X179755426Y-107026487D01*
X179748186Y-107100000D01*
X179317411Y-107100000D01*
X179215892Y-106998481D01*
X179015255Y-106864419D01*
X178935000Y-106831176D01*
X178935000Y-105474400D01*
X179013795Y-105432283D01*
X179106886Y-105355886D01*
X179183283Y-105262795D01*
X179240052Y-105156588D01*
X179275010Y-105041347D01*
X179286814Y-104921500D01*
X179286814Y-104346500D01*
X179275010Y-104226653D01*
X179240052Y-104111412D01*
X179183283Y-104005205D01*
X179169292Y-103988157D01*
X179263378Y-103937867D01*
X179359764Y-103858764D01*
X179438867Y-103762378D01*
X179497646Y-103652411D01*
X179533841Y-103533090D01*
X179546063Y-103409000D01*
X179543000Y-103171250D01*
X179384750Y-103013000D01*
X178564000Y-103013000D01*
X178564000Y-103033000D01*
X178306000Y-103033000D01*
X178306000Y-103013000D01*
X177485250Y-103013000D01*
X177327000Y-103171250D01*
X177323937Y-103409000D01*
X177336159Y-103533090D01*
X177372354Y-103652411D01*
X177431133Y-103762378D01*
X177510236Y-103858764D01*
X177606622Y-103937867D01*
X177700708Y-103988157D01*
X177686717Y-104005205D01*
X177629948Y-104111412D01*
X177594990Y-104226653D01*
X177583186Y-104346500D01*
X177583186Y-104921500D01*
X177594990Y-105041347D01*
X177629948Y-105156588D01*
X177686717Y-105262795D01*
X177763114Y-105355886D01*
X177856205Y-105432283D01*
X177935000Y-105474400D01*
X177935001Y-106831176D01*
X177854745Y-106864419D01*
X177654108Y-106998481D01*
X177483481Y-107169108D01*
X177349419Y-107369745D01*
X177257076Y-107592681D01*
X177210000Y-107829348D01*
X169945000Y-107829348D01*
X169945000Y-102359000D01*
X177323937Y-102359000D01*
X177327000Y-102596750D01*
X177485250Y-102755000D01*
X178306000Y-102755000D01*
X178306000Y-101884250D01*
X178564000Y-101884250D01*
X178564000Y-102755000D01*
X179384750Y-102755000D01*
X179543000Y-102596750D01*
X179546063Y-102359000D01*
X179533841Y-102234910D01*
X179497646Y-102115589D01*
X179438867Y-102005622D01*
X179359764Y-101909236D01*
X179263378Y-101830133D01*
X179153411Y-101771354D01*
X179034090Y-101735159D01*
X178910000Y-101722937D01*
X178722250Y-101726000D01*
X178564000Y-101884250D01*
X178306000Y-101884250D01*
X178147750Y-101726000D01*
X177960000Y-101722937D01*
X177835910Y-101735159D01*
X177716589Y-101771354D01*
X177606622Y-101830133D01*
X177510236Y-101909236D01*
X177431133Y-102005622D01*
X177372354Y-102115589D01*
X177336159Y-102234910D01*
X177323937Y-102359000D01*
X169945000Y-102359000D01*
X169945000Y-85495499D01*
X172383582Y-85495499D01*
X172386001Y-85520059D01*
X172386002Y-95937931D01*
X172383582Y-95962501D01*
X172393236Y-96060518D01*
X172416746Y-96138019D01*
X172421827Y-96154768D01*
X172468256Y-96241630D01*
X172530738Y-96317765D01*
X172549820Y-96333425D01*
X172702186Y-96485791D01*
X172702186Y-97805500D01*
X172709426Y-97879013D01*
X172730869Y-97949700D01*
X172765691Y-98014847D01*
X172812552Y-98071948D01*
X172869653Y-98118809D01*
X172934800Y-98153631D01*
X173005487Y-98175074D01*
X173079000Y-98182314D01*
X173273670Y-98182314D01*
X173311254Y-98252629D01*
X173373736Y-98328764D01*
X173392824Y-98344429D01*
X175143075Y-100094681D01*
X175158736Y-100113764D01*
X175234871Y-100176246D01*
X175321733Y-100222675D01*
X175415983Y-100251265D01*
X175489440Y-100258500D01*
X175489441Y-100258500D01*
X175513999Y-100260919D01*
X175538557Y-100258500D01*
X178323895Y-100258500D01*
X189346910Y-111281517D01*
X189310999Y-111368214D01*
X189263400Y-111607509D01*
X189263400Y-111851491D01*
X189310999Y-112090786D01*
X189404367Y-112316197D01*
X189539917Y-112519061D01*
X189712439Y-112691583D01*
X189915303Y-112827133D01*
X190140714Y-112920501D01*
X190380009Y-112968100D01*
X190623991Y-112968100D01*
X190863286Y-112920501D01*
X191088697Y-112827133D01*
X191291561Y-112691583D01*
X191464083Y-112519061D01*
X191599633Y-112316197D01*
X191633366Y-112234759D01*
X191633920Y-112236586D01*
X191759903Y-112501545D01*
X191935157Y-112736835D01*
X192152946Y-112933414D01*
X192404901Y-113083727D01*
X192681339Y-113181998D01*
X192913000Y-113062285D01*
X192913000Y-111858500D01*
X193171000Y-111858500D01*
X193171000Y-113062285D01*
X193402661Y-113181998D01*
X193679099Y-113083727D01*
X193931054Y-112933414D01*
X194148843Y-112736835D01*
X194312000Y-112517786D01*
X194475157Y-112736835D01*
X194692946Y-112933414D01*
X194944901Y-113083727D01*
X195221339Y-113181998D01*
X195453000Y-113062285D01*
X195453000Y-111858500D01*
X193171000Y-111858500D01*
X192913000Y-111858500D01*
X192893000Y-111858500D01*
X192893000Y-111600500D01*
X192913000Y-111600500D01*
X192913000Y-110396715D01*
X193171000Y-110396715D01*
X193171000Y-111600500D01*
X195453000Y-111600500D01*
X195453000Y-110396715D01*
X195711000Y-110396715D01*
X195711000Y-111600500D01*
X195731000Y-111600500D01*
X195731000Y-111858500D01*
X195711000Y-111858500D01*
X195711000Y-113062285D01*
X195942661Y-113181998D01*
X196219099Y-113083727D01*
X196471054Y-112933414D01*
X196688843Y-112736835D01*
X196864097Y-112501545D01*
X196990080Y-112236586D01*
X196990634Y-112234759D01*
X197024367Y-112316197D01*
X197159917Y-112519061D01*
X197332439Y-112691583D01*
X197535303Y-112827133D01*
X197760714Y-112920501D01*
X198000009Y-112968100D01*
X198243991Y-112968100D01*
X198483286Y-112920501D01*
X198708697Y-112827133D01*
X198911561Y-112691583D01*
X199084083Y-112519061D01*
X199219633Y-112316197D01*
X199313001Y-112090786D01*
X199360600Y-111851491D01*
X199360600Y-111607509D01*
X201963400Y-111607509D01*
X201963400Y-111851491D01*
X202010999Y-112090786D01*
X202104367Y-112316197D01*
X202239917Y-112519061D01*
X202412439Y-112691583D01*
X202615303Y-112827133D01*
X202840714Y-112920501D01*
X203080009Y-112968100D01*
X203323991Y-112968100D01*
X203563286Y-112920501D01*
X203788697Y-112827133D01*
X203991561Y-112691583D01*
X204164083Y-112519061D01*
X204299633Y-112316197D01*
X204393001Y-112090786D01*
X204440600Y-111851491D01*
X204440600Y-111607509D01*
X204503400Y-111607509D01*
X204503400Y-111851491D01*
X204550999Y-112090786D01*
X204644367Y-112316197D01*
X204779917Y-112519061D01*
X204952439Y-112691583D01*
X205155303Y-112827133D01*
X205380714Y-112920501D01*
X205620009Y-112968100D01*
X205863991Y-112968100D01*
X206103286Y-112920501D01*
X206328697Y-112827133D01*
X206531561Y-112691583D01*
X206704083Y-112519061D01*
X206839633Y-112316197D01*
X206933001Y-112090786D01*
X206980600Y-111851491D01*
X206980600Y-111607509D01*
X207043400Y-111607509D01*
X207043400Y-111851491D01*
X207090999Y-112090786D01*
X207184367Y-112316197D01*
X207319917Y-112519061D01*
X207492439Y-112691583D01*
X207695303Y-112827133D01*
X207920714Y-112920501D01*
X208160009Y-112968100D01*
X208403991Y-112968100D01*
X208643286Y-112920501D01*
X208868697Y-112827133D01*
X209071561Y-112691583D01*
X209244083Y-112519061D01*
X209379633Y-112316197D01*
X209473001Y-112090786D01*
X209520600Y-111851491D01*
X209520600Y-111607509D01*
X209583400Y-111607509D01*
X209583400Y-111851491D01*
X209630999Y-112090786D01*
X209724367Y-112316197D01*
X209859917Y-112519061D01*
X210032439Y-112691583D01*
X210235303Y-112827133D01*
X210460714Y-112920501D01*
X210700009Y-112968100D01*
X210943991Y-112968100D01*
X211183286Y-112920501D01*
X211408697Y-112827133D01*
X211611561Y-112691583D01*
X211784083Y-112519061D01*
X211919633Y-112316197D01*
X212013001Y-112090786D01*
X212060600Y-111851491D01*
X212060600Y-111607509D01*
X212123400Y-111607509D01*
X212123400Y-111851491D01*
X212170999Y-112090786D01*
X212264367Y-112316197D01*
X212399917Y-112519061D01*
X212572439Y-112691583D01*
X212775303Y-112827133D01*
X213000714Y-112920501D01*
X213240009Y-112968100D01*
X213483991Y-112968100D01*
X213723286Y-112920501D01*
X213948697Y-112827133D01*
X214151561Y-112691583D01*
X214324083Y-112519061D01*
X214459633Y-112316197D01*
X214553001Y-112090786D01*
X214600600Y-111851491D01*
X214600600Y-111607509D01*
X214663400Y-111607509D01*
X214663400Y-111851491D01*
X214710999Y-112090786D01*
X214804367Y-112316197D01*
X214939917Y-112519061D01*
X215112439Y-112691583D01*
X215315303Y-112827133D01*
X215540714Y-112920501D01*
X215780009Y-112968100D01*
X216023991Y-112968100D01*
X216263286Y-112920501D01*
X216488697Y-112827133D01*
X216691561Y-112691583D01*
X216864083Y-112519061D01*
X216999633Y-112316197D01*
X217093001Y-112090786D01*
X217140600Y-111851491D01*
X217140600Y-111607509D01*
X217093001Y-111368214D01*
X216999633Y-111142803D01*
X216864083Y-110939939D01*
X216691561Y-110767417D01*
X216488697Y-110631867D01*
X216263286Y-110538499D01*
X216023991Y-110490900D01*
X215780009Y-110490900D01*
X215540714Y-110538499D01*
X215315303Y-110631867D01*
X215112439Y-110767417D01*
X214939917Y-110939939D01*
X214804367Y-111142803D01*
X214710999Y-111368214D01*
X214663400Y-111607509D01*
X214600600Y-111607509D01*
X214553001Y-111368214D01*
X214459633Y-111142803D01*
X214324083Y-110939939D01*
X214151561Y-110767417D01*
X213948697Y-110631867D01*
X213723286Y-110538499D01*
X213483991Y-110490900D01*
X213240009Y-110490900D01*
X213000714Y-110538499D01*
X212775303Y-110631867D01*
X212572439Y-110767417D01*
X212399917Y-110939939D01*
X212264367Y-111142803D01*
X212170999Y-111368214D01*
X212123400Y-111607509D01*
X212060600Y-111607509D01*
X212013001Y-111368214D01*
X211919633Y-111142803D01*
X211784083Y-110939939D01*
X211611561Y-110767417D01*
X211408697Y-110631867D01*
X211183286Y-110538499D01*
X210943991Y-110490900D01*
X210700009Y-110490900D01*
X210460714Y-110538499D01*
X210235303Y-110631867D01*
X210032439Y-110767417D01*
X209859917Y-110939939D01*
X209724367Y-111142803D01*
X209630999Y-111368214D01*
X209583400Y-111607509D01*
X209520600Y-111607509D01*
X209473001Y-111368214D01*
X209379633Y-111142803D01*
X209244083Y-110939939D01*
X209071561Y-110767417D01*
X208868697Y-110631867D01*
X208643286Y-110538499D01*
X208403991Y-110490900D01*
X208160009Y-110490900D01*
X207920714Y-110538499D01*
X207695303Y-110631867D01*
X207492439Y-110767417D01*
X207319917Y-110939939D01*
X207184367Y-111142803D01*
X207090999Y-111368214D01*
X207043400Y-111607509D01*
X206980600Y-111607509D01*
X206933001Y-111368214D01*
X206839633Y-111142803D01*
X206704083Y-110939939D01*
X206531561Y-110767417D01*
X206328697Y-110631867D01*
X206103286Y-110538499D01*
X205863991Y-110490900D01*
X205620009Y-110490900D01*
X205380714Y-110538499D01*
X205155303Y-110631867D01*
X204952439Y-110767417D01*
X204779917Y-110939939D01*
X204644367Y-111142803D01*
X204550999Y-111368214D01*
X204503400Y-111607509D01*
X204440600Y-111607509D01*
X204393001Y-111368214D01*
X204357089Y-111281516D01*
X216871187Y-98767420D01*
X216890264Y-98751764D01*
X216952746Y-98675629D01*
X216999175Y-98588767D01*
X217027765Y-98494517D01*
X217035000Y-98421060D01*
X217035000Y-98421051D01*
X217037418Y-98396501D01*
X217035000Y-98371951D01*
X217035000Y-84303824D01*
X217115255Y-84270581D01*
X217315892Y-84136519D01*
X217486519Y-83965892D01*
X217620581Y-83765255D01*
X217712924Y-83542319D01*
X217760000Y-83305652D01*
X217760000Y-83064348D01*
X217712924Y-82827681D01*
X217620581Y-82604745D01*
X217486519Y-82404108D01*
X217315892Y-82233481D01*
X217160787Y-82129843D01*
X217385000Y-82131063D01*
X217509090Y-82118841D01*
X217628411Y-82082646D01*
X217738378Y-82023867D01*
X217834764Y-81944764D01*
X217913867Y-81848378D01*
X217972646Y-81738411D01*
X218008841Y-81619090D01*
X218021063Y-81495000D01*
X218018000Y-80932250D01*
X217859750Y-80774000D01*
X216664000Y-80774000D01*
X216664000Y-80794000D01*
X216406000Y-80794000D01*
X216406000Y-80774000D01*
X215210250Y-80774000D01*
X215052000Y-80932250D01*
X215048937Y-81495000D01*
X215061159Y-81619090D01*
X215097354Y-81738411D01*
X215156133Y-81848378D01*
X215235236Y-81944764D01*
X215331622Y-82023867D01*
X215441589Y-82082646D01*
X215560910Y-82118841D01*
X215685000Y-82131063D01*
X215909213Y-82129843D01*
X215754108Y-82233481D01*
X215583481Y-82404108D01*
X215449419Y-82604745D01*
X215357076Y-82827681D01*
X215310000Y-83064348D01*
X215310000Y-83305652D01*
X215357076Y-83542319D01*
X215449419Y-83765255D01*
X215583481Y-83965892D01*
X215754108Y-84136519D01*
X215954745Y-84270581D01*
X216035001Y-84303824D01*
X216035000Y-98189393D01*
X203649984Y-110574411D01*
X203563286Y-110538499D01*
X203323991Y-110490900D01*
X203080009Y-110490900D01*
X202840714Y-110538499D01*
X202615303Y-110631867D01*
X202412439Y-110767417D01*
X202239917Y-110939939D01*
X202104367Y-111142803D01*
X202010999Y-111368214D01*
X201963400Y-111607509D01*
X199360600Y-111607509D01*
X199313001Y-111368214D01*
X199219633Y-111142803D01*
X199084083Y-110939939D01*
X198911561Y-110767417D01*
X198708697Y-110631867D01*
X198483286Y-110538499D01*
X198243991Y-110490900D01*
X198000009Y-110490900D01*
X197760714Y-110538499D01*
X197535303Y-110631867D01*
X197332439Y-110767417D01*
X197159917Y-110939939D01*
X197024367Y-111142803D01*
X196990634Y-111224241D01*
X196990080Y-111222414D01*
X196864097Y-110957455D01*
X196688843Y-110722165D01*
X196471054Y-110525586D01*
X196219099Y-110375273D01*
X195942661Y-110277002D01*
X195711000Y-110396715D01*
X195453000Y-110396715D01*
X195221339Y-110277002D01*
X194944901Y-110375273D01*
X194692946Y-110525586D01*
X194475157Y-110722165D01*
X194312000Y-110941214D01*
X194148843Y-110722165D01*
X193931054Y-110525586D01*
X193679099Y-110375273D01*
X193402661Y-110277002D01*
X193171000Y-110396715D01*
X192913000Y-110396715D01*
X192681339Y-110277002D01*
X192650718Y-110287887D01*
X196979357Y-105959250D01*
X205602690Y-105959250D01*
X205627250Y-105961669D01*
X205651810Y-105959250D01*
X205725267Y-105952015D01*
X205819517Y-105923425D01*
X205906379Y-105876996D01*
X205982514Y-105814514D01*
X205998179Y-105795426D01*
X209857420Y-101936187D01*
X209857429Y-101936176D01*
X212922425Y-98871181D01*
X213002681Y-98904424D01*
X213239348Y-98951500D01*
X213480652Y-98951500D01*
X213717319Y-98904424D01*
X213940255Y-98812081D01*
X214140892Y-98678019D01*
X214311519Y-98507392D01*
X214445581Y-98306755D01*
X214537924Y-98083819D01*
X214585000Y-97847152D01*
X214585000Y-97605848D01*
X214537924Y-97369181D01*
X214445581Y-97146245D01*
X214311519Y-96945608D01*
X214140892Y-96774981D01*
X213940255Y-96640919D01*
X213827534Y-96594228D01*
X213994865Y-96534673D01*
X214128252Y-96463376D01*
X214206169Y-96215103D01*
X213360000Y-95368934D01*
X212513831Y-96215103D01*
X212591748Y-96463376D01*
X212855616Y-96588720D01*
X212886783Y-96596583D01*
X212779745Y-96640919D01*
X212579108Y-96774981D01*
X212408481Y-96945608D01*
X212274419Y-97146245D01*
X212182076Y-97369181D01*
X212135000Y-97605848D01*
X212135000Y-97847152D01*
X212182076Y-98083819D01*
X212215319Y-98164075D01*
X209150324Y-101229071D01*
X209150313Y-101229080D01*
X205420145Y-104959250D01*
X196796810Y-104959250D01*
X196772250Y-104956831D01*
X196747690Y-104959250D01*
X196674233Y-104966485D01*
X196579983Y-104995075D01*
X196493121Y-105041504D01*
X196416986Y-105103986D01*
X196401330Y-105123063D01*
X190949984Y-110574410D01*
X190863286Y-110538499D01*
X190623991Y-110490900D01*
X190380009Y-110490900D01*
X190140714Y-110538499D01*
X190054017Y-110574410D01*
X178901929Y-99422324D01*
X178886264Y-99403236D01*
X178810129Y-99340754D01*
X178723267Y-99294325D01*
X178629017Y-99265735D01*
X178555560Y-99258500D01*
X178531000Y-99256081D01*
X178506440Y-99258500D01*
X175721106Y-99258500D01*
X174583829Y-98121224D01*
X174588347Y-98118809D01*
X174645448Y-98071948D01*
X174692309Y-98014847D01*
X174727131Y-97949700D01*
X174748574Y-97879013D01*
X174749376Y-97870872D01*
X174755159Y-97929590D01*
X174791354Y-98048911D01*
X174850133Y-98158878D01*
X174929236Y-98255264D01*
X175025622Y-98334367D01*
X175135589Y-98393146D01*
X175254910Y-98429341D01*
X175379000Y-98441563D01*
X175741750Y-98438500D01*
X175900000Y-98280250D01*
X175900000Y-96934500D01*
X176158000Y-96934500D01*
X176158000Y-98280250D01*
X176316250Y-98438500D01*
X176679000Y-98441563D01*
X176803090Y-98429341D01*
X176922411Y-98393146D01*
X177032378Y-98334367D01*
X177128764Y-98255264D01*
X177207867Y-98158878D01*
X177266646Y-98048911D01*
X177302841Y-97929590D01*
X177315063Y-97805500D01*
X177312000Y-97092750D01*
X177153750Y-96934500D01*
X176158000Y-96934500D01*
X175900000Y-96934500D01*
X175880000Y-96934500D01*
X175880000Y-96676500D01*
X175900000Y-96676500D01*
X175900000Y-95330750D01*
X176158000Y-95330750D01*
X176158000Y-96676500D01*
X177153750Y-96676500D01*
X177312000Y-96518250D01*
X177315063Y-95805500D01*
X177302841Y-95681410D01*
X177266646Y-95562089D01*
X177207867Y-95452122D01*
X177128764Y-95355736D01*
X177032378Y-95276633D01*
X176922411Y-95217854D01*
X176803090Y-95181659D01*
X176679000Y-95169437D01*
X176316250Y-95172500D01*
X176158000Y-95330750D01*
X175900000Y-95330750D01*
X175741750Y-95172500D01*
X175379000Y-95169437D01*
X175254910Y-95181659D01*
X175135589Y-95217854D01*
X175025622Y-95276633D01*
X174929236Y-95355736D01*
X174850133Y-95452122D01*
X174791354Y-95562089D01*
X174755159Y-95681410D01*
X174749376Y-95740128D01*
X174748574Y-95731987D01*
X174727131Y-95661300D01*
X174692309Y-95596153D01*
X174645448Y-95539052D01*
X174588347Y-95492191D01*
X174523200Y-95457369D01*
X174452513Y-95435926D01*
X174379000Y-95428686D01*
X173386001Y-95428686D01*
X173386001Y-91805500D01*
X173502186Y-91805500D01*
X173502186Y-93805500D01*
X173509426Y-93879013D01*
X173530869Y-93949700D01*
X173565691Y-94014847D01*
X173612552Y-94071948D01*
X173669653Y-94118809D01*
X173734800Y-94153631D01*
X173805487Y-94175074D01*
X173879000Y-94182314D01*
X175879000Y-94182314D01*
X175952513Y-94175074D01*
X176023200Y-94153631D01*
X176088347Y-94118809D01*
X176145448Y-94071948D01*
X176192309Y-94014847D01*
X176227131Y-93949700D01*
X176248574Y-93879013D01*
X176255814Y-93805500D01*
X176255814Y-93305500D01*
X182514395Y-93305500D01*
X189811580Y-100602687D01*
X189827236Y-100621764D01*
X189903371Y-100684246D01*
X189990233Y-100730675D01*
X190084483Y-100759265D01*
X190157940Y-100766500D01*
X190157949Y-100766500D01*
X190182499Y-100768918D01*
X190207049Y-100766500D01*
X195555440Y-100766500D01*
X195580000Y-100768919D01*
X195604560Y-100766500D01*
X195678017Y-100759265D01*
X195772267Y-100730675D01*
X195859129Y-100684246D01*
X195935264Y-100621764D01*
X195950929Y-100602676D01*
X197682425Y-98871181D01*
X197762681Y-98904424D01*
X197999348Y-98951500D01*
X198240652Y-98951500D01*
X198477319Y-98904424D01*
X198700255Y-98812081D01*
X198900892Y-98678019D01*
X199071519Y-98507392D01*
X199205581Y-98306755D01*
X199297924Y-98083819D01*
X199345000Y-97847152D01*
X199345000Y-97605848D01*
X199435000Y-97605848D01*
X199435000Y-97847152D01*
X199482076Y-98083819D01*
X199574419Y-98306755D01*
X199708481Y-98507392D01*
X199879108Y-98678019D01*
X200079745Y-98812081D01*
X200302681Y-98904424D01*
X200539348Y-98951500D01*
X200780652Y-98951500D01*
X201017319Y-98904424D01*
X201240255Y-98812081D01*
X201440892Y-98678019D01*
X201611519Y-98507392D01*
X201745581Y-98306755D01*
X201837924Y-98083819D01*
X201885000Y-97847152D01*
X201885000Y-97605848D01*
X201975000Y-97605848D01*
X201975000Y-97847152D01*
X202022076Y-98083819D01*
X202114419Y-98306755D01*
X202248481Y-98507392D01*
X202419108Y-98678019D01*
X202619745Y-98812081D01*
X202842681Y-98904424D01*
X203079348Y-98951500D01*
X203320652Y-98951500D01*
X203557319Y-98904424D01*
X203780255Y-98812081D01*
X203980892Y-98678019D01*
X204151519Y-98507392D01*
X204285581Y-98306755D01*
X204377924Y-98083819D01*
X204425000Y-97847152D01*
X204425000Y-97605848D01*
X204515000Y-97605848D01*
X204515000Y-97847152D01*
X204562076Y-98083819D01*
X204654419Y-98306755D01*
X204788481Y-98507392D01*
X204959108Y-98678019D01*
X205159745Y-98812081D01*
X205382681Y-98904424D01*
X205619348Y-98951500D01*
X205860652Y-98951500D01*
X206097319Y-98904424D01*
X206320255Y-98812081D01*
X206520892Y-98678019D01*
X206691519Y-98507392D01*
X206825581Y-98306755D01*
X206917924Y-98083819D01*
X206965000Y-97847152D01*
X206965000Y-97605848D01*
X207055000Y-97605848D01*
X207055000Y-97847152D01*
X207102076Y-98083819D01*
X207194419Y-98306755D01*
X207328481Y-98507392D01*
X207499108Y-98678019D01*
X207699745Y-98812081D01*
X207922681Y-98904424D01*
X208159348Y-98951500D01*
X208400652Y-98951500D01*
X208637319Y-98904424D01*
X208860255Y-98812081D01*
X209060892Y-98678019D01*
X209231519Y-98507392D01*
X209365581Y-98306755D01*
X209457924Y-98083819D01*
X209505000Y-97847152D01*
X209505000Y-97605848D01*
X209595000Y-97605848D01*
X209595000Y-97847152D01*
X209642076Y-98083819D01*
X209734419Y-98306755D01*
X209868481Y-98507392D01*
X210039108Y-98678019D01*
X210239745Y-98812081D01*
X210462681Y-98904424D01*
X210699348Y-98951500D01*
X210940652Y-98951500D01*
X211177319Y-98904424D01*
X211400255Y-98812081D01*
X211600892Y-98678019D01*
X211771519Y-98507392D01*
X211905581Y-98306755D01*
X211997924Y-98083819D01*
X212045000Y-97847152D01*
X212045000Y-97605848D01*
X211997924Y-97369181D01*
X211905581Y-97146245D01*
X211771519Y-96945608D01*
X211600892Y-96774981D01*
X211400255Y-96640919D01*
X211177319Y-96548576D01*
X210940652Y-96501500D01*
X210699348Y-96501500D01*
X210462681Y-96548576D01*
X210239745Y-96640919D01*
X210039108Y-96774981D01*
X209868481Y-96945608D01*
X209734419Y-97146245D01*
X209642076Y-97369181D01*
X209595000Y-97605848D01*
X209505000Y-97605848D01*
X209457924Y-97369181D01*
X209365581Y-97146245D01*
X209231519Y-96945608D01*
X209060892Y-96774981D01*
X208860255Y-96640919D01*
X208637319Y-96548576D01*
X208400652Y-96501500D01*
X208159348Y-96501500D01*
X207922681Y-96548576D01*
X207699745Y-96640919D01*
X207499108Y-96774981D01*
X207328481Y-96945608D01*
X207194419Y-97146245D01*
X207102076Y-97369181D01*
X207055000Y-97605848D01*
X206965000Y-97605848D01*
X206917924Y-97369181D01*
X206825581Y-97146245D01*
X206691519Y-96945608D01*
X206520892Y-96774981D01*
X206320255Y-96640919D01*
X206097319Y-96548576D01*
X205860652Y-96501500D01*
X205619348Y-96501500D01*
X205382681Y-96548576D01*
X205159745Y-96640919D01*
X204959108Y-96774981D01*
X204788481Y-96945608D01*
X204654419Y-97146245D01*
X204562076Y-97369181D01*
X204515000Y-97605848D01*
X204425000Y-97605848D01*
X204377924Y-97369181D01*
X204285581Y-97146245D01*
X204151519Y-96945608D01*
X203980892Y-96774981D01*
X203780255Y-96640919D01*
X203557319Y-96548576D01*
X203320652Y-96501500D01*
X203079348Y-96501500D01*
X202842681Y-96548576D01*
X202619745Y-96640919D01*
X202419108Y-96774981D01*
X202248481Y-96945608D01*
X202114419Y-97146245D01*
X202022076Y-97369181D01*
X201975000Y-97605848D01*
X201885000Y-97605848D01*
X201837924Y-97369181D01*
X201745581Y-97146245D01*
X201611519Y-96945608D01*
X201440892Y-96774981D01*
X201240255Y-96640919D01*
X201017319Y-96548576D01*
X200780652Y-96501500D01*
X200539348Y-96501500D01*
X200302681Y-96548576D01*
X200079745Y-96640919D01*
X199879108Y-96774981D01*
X199708481Y-96945608D01*
X199574419Y-97146245D01*
X199482076Y-97369181D01*
X199435000Y-97605848D01*
X199345000Y-97605848D01*
X199297924Y-97369181D01*
X199205581Y-97146245D01*
X199071519Y-96945608D01*
X198900892Y-96774981D01*
X198700255Y-96640919D01*
X198477319Y-96548576D01*
X198240652Y-96501500D01*
X197999348Y-96501500D01*
X197762681Y-96548576D01*
X197539745Y-96640919D01*
X197339108Y-96774981D01*
X197168481Y-96945608D01*
X197064843Y-97100713D01*
X197066063Y-96876500D01*
X197053841Y-96752410D01*
X197017646Y-96633089D01*
X196958867Y-96523122D01*
X196879764Y-96426736D01*
X196783378Y-96347633D01*
X196673411Y-96288854D01*
X196554090Y-96252659D01*
X196430000Y-96240437D01*
X196205787Y-96241657D01*
X196360892Y-96138019D01*
X196531519Y-95967392D01*
X196665581Y-95766755D01*
X196757924Y-95543819D01*
X196805000Y-95307152D01*
X196805000Y-95065848D01*
X196895000Y-95065848D01*
X196895000Y-95307152D01*
X196942076Y-95543819D01*
X197034419Y-95766755D01*
X197168481Y-95967392D01*
X197339108Y-96138019D01*
X197539745Y-96272081D01*
X197762681Y-96364424D01*
X197999348Y-96411500D01*
X198240652Y-96411500D01*
X198477319Y-96364424D01*
X198700255Y-96272081D01*
X198900892Y-96138019D01*
X199071519Y-95967392D01*
X199205581Y-95766755D01*
X199297924Y-95543819D01*
X199345000Y-95307152D01*
X199345000Y-95065848D01*
X199435000Y-95065848D01*
X199435000Y-95307152D01*
X199482076Y-95543819D01*
X199574419Y-95766755D01*
X199708481Y-95967392D01*
X199879108Y-96138019D01*
X200079745Y-96272081D01*
X200302681Y-96364424D01*
X200539348Y-96411500D01*
X200780652Y-96411500D01*
X201017319Y-96364424D01*
X201240255Y-96272081D01*
X201440892Y-96138019D01*
X201611519Y-95967392D01*
X201745581Y-95766755D01*
X201837924Y-95543819D01*
X201885000Y-95307152D01*
X201885000Y-95065848D01*
X201975000Y-95065848D01*
X201975000Y-95307152D01*
X202022076Y-95543819D01*
X202114419Y-95766755D01*
X202248481Y-95967392D01*
X202419108Y-96138019D01*
X202619745Y-96272081D01*
X202842681Y-96364424D01*
X203079348Y-96411500D01*
X203320652Y-96411500D01*
X203557319Y-96364424D01*
X203780255Y-96272081D01*
X203980892Y-96138019D01*
X204151519Y-95967392D01*
X204285581Y-95766755D01*
X204377924Y-95543819D01*
X204425000Y-95307152D01*
X204425000Y-95065848D01*
X204515000Y-95065848D01*
X204515000Y-95307152D01*
X204562076Y-95543819D01*
X204654419Y-95766755D01*
X204788481Y-95967392D01*
X204959108Y-96138019D01*
X205159745Y-96272081D01*
X205382681Y-96364424D01*
X205619348Y-96411500D01*
X205860652Y-96411500D01*
X206097319Y-96364424D01*
X206320255Y-96272081D01*
X206520892Y-96138019D01*
X206691519Y-95967392D01*
X206825581Y-95766755D01*
X206917924Y-95543819D01*
X206965000Y-95307152D01*
X206965000Y-95065848D01*
X207055000Y-95065848D01*
X207055000Y-95307152D01*
X207102076Y-95543819D01*
X207194419Y-95766755D01*
X207328481Y-95967392D01*
X207499108Y-96138019D01*
X207699745Y-96272081D01*
X207922681Y-96364424D01*
X208159348Y-96411500D01*
X208400652Y-96411500D01*
X208637319Y-96364424D01*
X208860255Y-96272081D01*
X209060892Y-96138019D01*
X209231519Y-95967392D01*
X209365581Y-95766755D01*
X209457924Y-95543819D01*
X209505000Y-95307152D01*
X209505000Y-95065848D01*
X209595000Y-95065848D01*
X209595000Y-95307152D01*
X209642076Y-95543819D01*
X209734419Y-95766755D01*
X209868481Y-95967392D01*
X210039108Y-96138019D01*
X210239745Y-96272081D01*
X210462681Y-96364424D01*
X210699348Y-96411500D01*
X210940652Y-96411500D01*
X211177319Y-96364424D01*
X211400255Y-96272081D01*
X211600892Y-96138019D01*
X211771519Y-95967392D01*
X211905581Y-95766755D01*
X211952272Y-95654034D01*
X212011827Y-95821365D01*
X212083124Y-95954752D01*
X212331397Y-96032669D01*
X213177566Y-95186500D01*
X213542434Y-95186500D01*
X214388603Y-96032669D01*
X214636876Y-95954752D01*
X214762220Y-95690884D01*
X214833678Y-95407633D01*
X214848502Y-95115884D01*
X214806125Y-94826849D01*
X214708173Y-94551635D01*
X214636876Y-94418248D01*
X214388603Y-94340331D01*
X213542434Y-95186500D01*
X213177566Y-95186500D01*
X212331397Y-94340331D01*
X212083124Y-94418248D01*
X211957780Y-94682116D01*
X211949917Y-94713283D01*
X211905581Y-94606245D01*
X211771519Y-94405608D01*
X211600892Y-94234981D01*
X211485529Y-94157897D01*
X212513831Y-94157897D01*
X213360000Y-95004066D01*
X214206169Y-94157897D01*
X214128252Y-93909624D01*
X213864384Y-93784280D01*
X213581133Y-93712822D01*
X213289384Y-93697998D01*
X213000349Y-93740375D01*
X212725135Y-93838327D01*
X212591748Y-93909624D01*
X212513831Y-94157897D01*
X211485529Y-94157897D01*
X211400255Y-94100919D01*
X211177319Y-94008576D01*
X210940652Y-93961500D01*
X210699348Y-93961500D01*
X210462681Y-94008576D01*
X210239745Y-94100919D01*
X210039108Y-94234981D01*
X209868481Y-94405608D01*
X209734419Y-94606245D01*
X209642076Y-94829181D01*
X209595000Y-95065848D01*
X209505000Y-95065848D01*
X209457924Y-94829181D01*
X209365581Y-94606245D01*
X209231519Y-94405608D01*
X209060892Y-94234981D01*
X208860255Y-94100919D01*
X208637319Y-94008576D01*
X208400652Y-93961500D01*
X208159348Y-93961500D01*
X207922681Y-94008576D01*
X207699745Y-94100919D01*
X207499108Y-94234981D01*
X207328481Y-94405608D01*
X207194419Y-94606245D01*
X207102076Y-94829181D01*
X207055000Y-95065848D01*
X206965000Y-95065848D01*
X206917924Y-94829181D01*
X206825581Y-94606245D01*
X206691519Y-94405608D01*
X206520892Y-94234981D01*
X206320255Y-94100919D01*
X206097319Y-94008576D01*
X205860652Y-93961500D01*
X205619348Y-93961500D01*
X205382681Y-94008576D01*
X205159745Y-94100919D01*
X204959108Y-94234981D01*
X204788481Y-94405608D01*
X204654419Y-94606245D01*
X204562076Y-94829181D01*
X204515000Y-95065848D01*
X204425000Y-95065848D01*
X204377924Y-94829181D01*
X204285581Y-94606245D01*
X204151519Y-94405608D01*
X203980892Y-94234981D01*
X203780255Y-94100919D01*
X203557319Y-94008576D01*
X203320652Y-93961500D01*
X203079348Y-93961500D01*
X202842681Y-94008576D01*
X202619745Y-94100919D01*
X202419108Y-94234981D01*
X202248481Y-94405608D01*
X202114419Y-94606245D01*
X202022076Y-94829181D01*
X201975000Y-95065848D01*
X201885000Y-95065848D01*
X201837924Y-94829181D01*
X201745581Y-94606245D01*
X201611519Y-94405608D01*
X201440892Y-94234981D01*
X201240255Y-94100919D01*
X201017319Y-94008576D01*
X200780652Y-93961500D01*
X200539348Y-93961500D01*
X200302681Y-94008576D01*
X200079745Y-94100919D01*
X199879108Y-94234981D01*
X199708481Y-94405608D01*
X199574419Y-94606245D01*
X199482076Y-94829181D01*
X199435000Y-95065848D01*
X199345000Y-95065848D01*
X199297924Y-94829181D01*
X199205581Y-94606245D01*
X199071519Y-94405608D01*
X198900892Y-94234981D01*
X198700255Y-94100919D01*
X198477319Y-94008576D01*
X198240652Y-93961500D01*
X197999348Y-93961500D01*
X197762681Y-94008576D01*
X197539745Y-94100919D01*
X197339108Y-94234981D01*
X197168481Y-94405608D01*
X197034419Y-94606245D01*
X196942076Y-94829181D01*
X196895000Y-95065848D01*
X196805000Y-95065848D01*
X196757924Y-94829181D01*
X196665581Y-94606245D01*
X196531519Y-94405608D01*
X196360892Y-94234981D01*
X196160255Y-94100919D01*
X195937319Y-94008576D01*
X195700652Y-93961500D01*
X195459348Y-93961500D01*
X195222681Y-94008576D01*
X194999745Y-94100919D01*
X194799108Y-94234981D01*
X194628481Y-94405608D01*
X194494419Y-94606245D01*
X194402076Y-94829181D01*
X194355000Y-95065848D01*
X194355000Y-95307152D01*
X194402076Y-95543819D01*
X194494419Y-95766755D01*
X194628481Y-95967392D01*
X194799108Y-96138019D01*
X194954213Y-96241657D01*
X194730000Y-96240437D01*
X194605910Y-96252659D01*
X194486589Y-96288854D01*
X194376622Y-96347633D01*
X194280236Y-96426736D01*
X194201133Y-96523122D01*
X194142354Y-96633089D01*
X194106159Y-96752410D01*
X194093937Y-96876500D01*
X194097000Y-97439250D01*
X194255250Y-97597500D01*
X195451000Y-97597500D01*
X195451000Y-97577500D01*
X195709000Y-97577500D01*
X195709000Y-97597500D01*
X195729000Y-97597500D01*
X195729000Y-97855500D01*
X195709000Y-97855500D01*
X195709000Y-99051250D01*
X195867250Y-99209500D01*
X195929555Y-99209839D01*
X195372895Y-99766500D01*
X190389607Y-99766500D01*
X189199607Y-98576500D01*
X194093937Y-98576500D01*
X194106159Y-98700590D01*
X194142354Y-98819911D01*
X194201133Y-98929878D01*
X194280236Y-99026264D01*
X194376622Y-99105367D01*
X194486589Y-99164146D01*
X194605910Y-99200341D01*
X194730000Y-99212563D01*
X195292750Y-99209500D01*
X195451000Y-99051250D01*
X195451000Y-97855500D01*
X194255250Y-97855500D01*
X194097000Y-98013750D01*
X194093937Y-98576500D01*
X189199607Y-98576500D01*
X183092429Y-92469324D01*
X183076764Y-92450236D01*
X183000629Y-92387754D01*
X182913767Y-92341325D01*
X182819517Y-92312735D01*
X182746060Y-92305500D01*
X182721500Y-92303081D01*
X182696940Y-92305500D01*
X176255814Y-92305500D01*
X176255814Y-91805500D01*
X176248574Y-91731987D01*
X176227131Y-91661300D01*
X176192309Y-91596153D01*
X176145448Y-91539052D01*
X176088347Y-91492191D01*
X176023200Y-91457369D01*
X175952513Y-91435926D01*
X175879000Y-91428686D01*
X173879000Y-91428686D01*
X173805487Y-91435926D01*
X173734800Y-91457369D01*
X173669653Y-91492191D01*
X173612552Y-91539052D01*
X173565691Y-91596153D01*
X173530869Y-91661300D01*
X173509426Y-91731987D01*
X173502186Y-91805500D01*
X173386001Y-91805500D01*
X173386001Y-85824880D01*
X173615348Y-85870500D01*
X173856652Y-85870500D01*
X174093319Y-85823424D01*
X174316255Y-85731081D01*
X174516892Y-85597019D01*
X174687519Y-85426392D01*
X174821581Y-85225755D01*
X174913924Y-85002819D01*
X174961000Y-84766152D01*
X174961000Y-84524848D01*
X175051000Y-84524848D01*
X175051000Y-84766152D01*
X175098076Y-85002819D01*
X175190419Y-85225755D01*
X175324481Y-85426392D01*
X175495108Y-85597019D01*
X175695745Y-85731081D01*
X175918681Y-85823424D01*
X176155348Y-85870500D01*
X176396652Y-85870500D01*
X176633319Y-85823424D01*
X176856255Y-85731081D01*
X177056892Y-85597019D01*
X177227519Y-85426392D01*
X177361581Y-85225755D01*
X177412336Y-85103221D01*
X177474580Y-85277875D01*
X177623725Y-85527422D01*
X177818689Y-85743077D01*
X178051979Y-85916553D01*
X178314630Y-86041183D01*
X178457475Y-86084510D01*
X178687000Y-85963954D01*
X178687000Y-84774500D01*
X178667000Y-84774500D01*
X178667000Y-84516500D01*
X178687000Y-84516500D01*
X178687000Y-83327046D01*
X178945000Y-83327046D01*
X178945000Y-84516500D01*
X178965000Y-84516500D01*
X178965000Y-84774500D01*
X178945000Y-84774500D01*
X178945000Y-85963954D01*
X179174525Y-86084510D01*
X179317370Y-86041183D01*
X179580021Y-85916553D01*
X179813311Y-85743077D01*
X180008275Y-85527422D01*
X180157420Y-85277875D01*
X180219664Y-85103221D01*
X180270419Y-85225755D01*
X180404481Y-85426392D01*
X180575108Y-85597019D01*
X180775745Y-85731081D01*
X180998681Y-85823424D01*
X181235348Y-85870500D01*
X181476652Y-85870500D01*
X181713319Y-85823424D01*
X181936255Y-85731081D01*
X182136892Y-85597019D01*
X182307519Y-85426392D01*
X182441581Y-85225755D01*
X182533924Y-85002819D01*
X182581000Y-84766152D01*
X182581000Y-84524848D01*
X182671000Y-84524848D01*
X182671000Y-84766152D01*
X182718076Y-85002819D01*
X182810419Y-85225755D01*
X182944481Y-85426392D01*
X183115108Y-85597019D01*
X183315745Y-85731081D01*
X183538681Y-85823424D01*
X183775348Y-85870500D01*
X184016652Y-85870500D01*
X184253319Y-85823424D01*
X184476255Y-85731081D01*
X184676892Y-85597019D01*
X184847519Y-85426392D01*
X184981581Y-85225755D01*
X185073924Y-85002819D01*
X185121000Y-84766152D01*
X185121000Y-84524848D01*
X185211000Y-84524848D01*
X185211000Y-84766152D01*
X185258076Y-85002819D01*
X185350419Y-85225755D01*
X185484481Y-85426392D01*
X185655108Y-85597019D01*
X185855745Y-85731081D01*
X186078681Y-85823424D01*
X186315348Y-85870500D01*
X186556652Y-85870500D01*
X186793319Y-85823424D01*
X187016255Y-85731081D01*
X187216892Y-85597019D01*
X187387519Y-85426392D01*
X187521581Y-85225755D01*
X187613924Y-85002819D01*
X187661000Y-84766152D01*
X187661000Y-84524848D01*
X187751000Y-84524848D01*
X187751000Y-84766152D01*
X187798076Y-85002819D01*
X187890419Y-85225755D01*
X188024481Y-85426392D01*
X188195108Y-85597019D01*
X188395745Y-85731081D01*
X188618681Y-85823424D01*
X188855348Y-85870500D01*
X189096652Y-85870500D01*
X189333319Y-85823424D01*
X189556255Y-85731081D01*
X189756892Y-85597019D01*
X189927519Y-85426392D01*
X190061581Y-85225755D01*
X190153924Y-85002819D01*
X190201000Y-84766152D01*
X190201000Y-84524848D01*
X190291000Y-84524848D01*
X190291000Y-84766152D01*
X190338076Y-85002819D01*
X190430419Y-85225755D01*
X190564481Y-85426392D01*
X190735108Y-85597019D01*
X190935745Y-85731081D01*
X191158681Y-85823424D01*
X191395348Y-85870500D01*
X191636652Y-85870500D01*
X191873319Y-85823424D01*
X192096255Y-85731081D01*
X192296892Y-85597019D01*
X192467519Y-85426392D01*
X192601581Y-85225755D01*
X192693924Y-85002819D01*
X192741000Y-84766152D01*
X192741000Y-84524848D01*
X192693924Y-84288181D01*
X192601581Y-84065245D01*
X192467519Y-83864608D01*
X192398411Y-83795500D01*
X192829186Y-83795500D01*
X192829186Y-85495500D01*
X192836426Y-85569013D01*
X192857869Y-85639700D01*
X192892691Y-85704847D01*
X192939552Y-85761948D01*
X192996653Y-85808809D01*
X193061800Y-85843631D01*
X193132487Y-85865074D01*
X193206000Y-85872314D01*
X194906000Y-85872314D01*
X194979513Y-85865074D01*
X195050200Y-85843631D01*
X195115347Y-85808809D01*
X195172448Y-85761948D01*
X195219309Y-85704847D01*
X195254131Y-85639700D01*
X195275574Y-85569013D01*
X195282814Y-85495500D01*
X195282814Y-83795500D01*
X195275574Y-83721987D01*
X195254131Y-83651300D01*
X195219309Y-83586153D01*
X195172448Y-83529052D01*
X195115347Y-83482191D01*
X195050200Y-83447369D01*
X194979513Y-83425926D01*
X194906000Y-83418686D01*
X193206000Y-83418686D01*
X193132487Y-83425926D01*
X193061800Y-83447369D01*
X192996653Y-83482191D01*
X192939552Y-83529052D01*
X192892691Y-83586153D01*
X192857869Y-83651300D01*
X192836426Y-83721987D01*
X192829186Y-83795500D01*
X192398411Y-83795500D01*
X192296892Y-83693981D01*
X192096255Y-83559919D01*
X191873319Y-83467576D01*
X191636652Y-83420500D01*
X191395348Y-83420500D01*
X191158681Y-83467576D01*
X190935745Y-83559919D01*
X190735108Y-83693981D01*
X190564481Y-83864608D01*
X190430419Y-84065245D01*
X190338076Y-84288181D01*
X190291000Y-84524848D01*
X190201000Y-84524848D01*
X190153924Y-84288181D01*
X190061581Y-84065245D01*
X189927519Y-83864608D01*
X189756892Y-83693981D01*
X189556255Y-83559919D01*
X189333319Y-83467576D01*
X189096652Y-83420500D01*
X188855348Y-83420500D01*
X188618681Y-83467576D01*
X188395745Y-83559919D01*
X188195108Y-83693981D01*
X188024481Y-83864608D01*
X187890419Y-84065245D01*
X187798076Y-84288181D01*
X187751000Y-84524848D01*
X187661000Y-84524848D01*
X187613924Y-84288181D01*
X187521581Y-84065245D01*
X187387519Y-83864608D01*
X187216892Y-83693981D01*
X187016255Y-83559919D01*
X186793319Y-83467576D01*
X186556652Y-83420500D01*
X186315348Y-83420500D01*
X186078681Y-83467576D01*
X185855745Y-83559919D01*
X185655108Y-83693981D01*
X185484481Y-83864608D01*
X185350419Y-84065245D01*
X185258076Y-84288181D01*
X185211000Y-84524848D01*
X185121000Y-84524848D01*
X185073924Y-84288181D01*
X184981581Y-84065245D01*
X184847519Y-83864608D01*
X184676892Y-83693981D01*
X184476255Y-83559919D01*
X184253319Y-83467576D01*
X184016652Y-83420500D01*
X183775348Y-83420500D01*
X183538681Y-83467576D01*
X183315745Y-83559919D01*
X183115108Y-83693981D01*
X182944481Y-83864608D01*
X182810419Y-84065245D01*
X182718076Y-84288181D01*
X182671000Y-84524848D01*
X182581000Y-84524848D01*
X182533924Y-84288181D01*
X182441581Y-84065245D01*
X182307519Y-83864608D01*
X182136892Y-83693981D01*
X181936255Y-83559919D01*
X181713319Y-83467576D01*
X181476652Y-83420500D01*
X181235348Y-83420500D01*
X180998681Y-83467576D01*
X180775745Y-83559919D01*
X180575108Y-83693981D01*
X180404481Y-83864608D01*
X180270419Y-84065245D01*
X180219664Y-84187779D01*
X180157420Y-84013125D01*
X180008275Y-83763578D01*
X179813311Y-83547923D01*
X179580021Y-83374447D01*
X179317370Y-83249817D01*
X179174525Y-83206490D01*
X178945000Y-83327046D01*
X178687000Y-83327046D01*
X178457475Y-83206490D01*
X178314630Y-83249817D01*
X178051979Y-83374447D01*
X177818689Y-83547923D01*
X177623725Y-83763578D01*
X177474580Y-84013125D01*
X177412336Y-84187779D01*
X177361581Y-84065245D01*
X177227519Y-83864608D01*
X177056892Y-83693981D01*
X176856255Y-83559919D01*
X176633319Y-83467576D01*
X176396652Y-83420500D01*
X176155348Y-83420500D01*
X175918681Y-83467576D01*
X175695745Y-83559919D01*
X175495108Y-83693981D01*
X175324481Y-83864608D01*
X175190419Y-84065245D01*
X175098076Y-84288181D01*
X175051000Y-84524848D01*
X174961000Y-84524848D01*
X174913924Y-84288181D01*
X174821581Y-84065245D01*
X174687519Y-83864608D01*
X174516892Y-83693981D01*
X174316255Y-83559919D01*
X174093319Y-83467576D01*
X173856652Y-83420500D01*
X173615348Y-83420500D01*
X173378681Y-83467576D01*
X173155745Y-83559919D01*
X172955108Y-83693981D01*
X172784481Y-83864608D01*
X172650419Y-84065245D01*
X172558076Y-84288181D01*
X172511000Y-84524848D01*
X172511000Y-84766152D01*
X172558076Y-85002819D01*
X172591319Y-85083076D01*
X172549825Y-85124570D01*
X172530737Y-85140235D01*
X172468255Y-85216370D01*
X172421826Y-85303233D01*
X172401909Y-85368892D01*
X172393236Y-85397482D01*
X172383582Y-85495499D01*
X169945000Y-85495499D01*
X169945000Y-79795000D01*
X215048937Y-79795000D01*
X215052000Y-80357750D01*
X215210250Y-80516000D01*
X216406000Y-80516000D01*
X216406000Y-79320250D01*
X216664000Y-79320250D01*
X216664000Y-80516000D01*
X217859750Y-80516000D01*
X218018000Y-80357750D01*
X218021063Y-79795000D01*
X218008841Y-79670910D01*
X217972646Y-79551589D01*
X217913867Y-79441622D01*
X217834764Y-79345236D01*
X217738378Y-79266133D01*
X217628411Y-79207354D01*
X217509090Y-79171159D01*
X217385000Y-79158937D01*
X216822250Y-79162000D01*
X216664000Y-79320250D01*
X216406000Y-79320250D01*
X216247750Y-79162000D01*
X215685000Y-79158937D01*
X215560910Y-79171159D01*
X215441589Y-79207354D01*
X215331622Y-79266133D01*
X215235236Y-79345236D01*
X215156133Y-79441622D01*
X215097354Y-79551589D01*
X215061159Y-79670910D01*
X215048937Y-79795000D01*
X169945000Y-79795000D01*
X169945000Y-63347509D01*
X169959400Y-63347509D01*
X169959400Y-63591491D01*
X170006999Y-63830786D01*
X170100367Y-64056197D01*
X170235917Y-64259061D01*
X170408439Y-64431583D01*
X170611303Y-64567133D01*
X170836714Y-64660501D01*
X171076009Y-64708100D01*
X171319991Y-64708100D01*
X171559286Y-64660501D01*
X171784697Y-64567133D01*
X171987561Y-64431583D01*
X172160083Y-64259061D01*
X172295633Y-64056197D01*
X172389001Y-63830786D01*
X172436600Y-63591491D01*
X172436600Y-63347509D01*
X172499400Y-63347509D01*
X172499400Y-63591491D01*
X172546999Y-63830786D01*
X172640367Y-64056197D01*
X172775917Y-64259061D01*
X172948439Y-64431583D01*
X173151303Y-64567133D01*
X173376714Y-64660501D01*
X173616009Y-64708100D01*
X173859991Y-64708100D01*
X174099286Y-64660501D01*
X174324697Y-64567133D01*
X174527561Y-64431583D01*
X174700083Y-64259061D01*
X174835633Y-64056197D01*
X174929001Y-63830786D01*
X174976600Y-63591491D01*
X174976600Y-63347509D01*
X175039400Y-63347509D01*
X175039400Y-63591491D01*
X175086999Y-63830786D01*
X175180367Y-64056197D01*
X175315917Y-64259061D01*
X175488439Y-64431583D01*
X175691303Y-64567133D01*
X175916714Y-64660501D01*
X176156009Y-64708100D01*
X176399991Y-64708100D01*
X176639286Y-64660501D01*
X176864697Y-64567133D01*
X177067561Y-64431583D01*
X177240083Y-64259061D01*
X177375633Y-64056197D01*
X177409366Y-63974759D01*
X177409920Y-63976586D01*
X177535903Y-64241545D01*
X177711157Y-64476835D01*
X177928946Y-64673414D01*
X178180901Y-64823727D01*
X178457339Y-64921998D01*
X178689000Y-64802285D01*
X178689000Y-63598500D01*
X178669000Y-63598500D01*
X178669000Y-63340500D01*
X178689000Y-63340500D01*
X178689000Y-62136715D01*
X178947000Y-62136715D01*
X178947000Y-63340500D01*
X178967000Y-63340500D01*
X178967000Y-63598500D01*
X178947000Y-63598500D01*
X178947000Y-64802285D01*
X179178661Y-64921998D01*
X179455099Y-64823727D01*
X179707054Y-64673414D01*
X179924843Y-64476835D01*
X180100097Y-64241545D01*
X180226080Y-63976586D01*
X180226634Y-63974759D01*
X180260367Y-64056197D01*
X180395917Y-64259061D01*
X180568439Y-64431583D01*
X180771303Y-64567133D01*
X180996714Y-64660501D01*
X181236009Y-64708100D01*
X181479991Y-64708100D01*
X181719286Y-64660501D01*
X181944697Y-64567133D01*
X182147561Y-64431583D01*
X182320083Y-64259061D01*
X182455633Y-64056197D01*
X182549001Y-63830786D01*
X182596600Y-63591491D01*
X182596600Y-63347509D01*
X182659400Y-63347509D01*
X182659400Y-63591491D01*
X182706999Y-63830786D01*
X182800367Y-64056197D01*
X182935917Y-64259061D01*
X183108439Y-64431583D01*
X183311303Y-64567133D01*
X183536714Y-64660501D01*
X183776009Y-64708100D01*
X184019991Y-64708100D01*
X184259286Y-64660501D01*
X184484697Y-64567133D01*
X184687561Y-64431583D01*
X184860083Y-64259061D01*
X184995633Y-64056197D01*
X185089001Y-63830786D01*
X185136600Y-63591491D01*
X185136600Y-63347509D01*
X185199400Y-63347509D01*
X185199400Y-63591491D01*
X185246999Y-63830786D01*
X185340367Y-64056197D01*
X185475917Y-64259061D01*
X185648439Y-64431583D01*
X185851303Y-64567133D01*
X186076714Y-64660501D01*
X186316009Y-64708100D01*
X186559991Y-64708100D01*
X186799286Y-64660501D01*
X187024697Y-64567133D01*
X187227561Y-64431583D01*
X187400083Y-64259061D01*
X187535633Y-64056197D01*
X187629001Y-63830786D01*
X187676600Y-63591491D01*
X187676600Y-63347509D01*
X187739400Y-63347509D01*
X187739400Y-63591491D01*
X187786999Y-63830786D01*
X187880367Y-64056197D01*
X188015917Y-64259061D01*
X188188439Y-64431583D01*
X188391303Y-64567133D01*
X188616714Y-64660501D01*
X188856009Y-64708100D01*
X189099991Y-64708100D01*
X189339286Y-64660501D01*
X189564697Y-64567133D01*
X189767561Y-64431583D01*
X189940083Y-64259061D01*
X190075633Y-64056197D01*
X190169001Y-63830786D01*
X190216600Y-63591491D01*
X190216600Y-63347509D01*
X190279400Y-63347509D01*
X190279400Y-63591491D01*
X190326999Y-63830786D01*
X190420367Y-64056197D01*
X190555917Y-64259061D01*
X190728439Y-64431583D01*
X190931303Y-64567133D01*
X191156714Y-64660501D01*
X191396009Y-64708100D01*
X191639991Y-64708100D01*
X191879286Y-64660501D01*
X192104697Y-64567133D01*
X192307561Y-64431583D01*
X192480083Y-64259061D01*
X192615633Y-64056197D01*
X192709001Y-63830786D01*
X192756600Y-63591491D01*
X192756600Y-63347509D01*
X192819400Y-63347509D01*
X192819400Y-63591491D01*
X192866999Y-63830786D01*
X192960367Y-64056197D01*
X193095917Y-64259061D01*
X193268439Y-64431583D01*
X193471303Y-64567133D01*
X193696714Y-64660501D01*
X193936009Y-64708100D01*
X194179991Y-64708100D01*
X194419286Y-64660501D01*
X194644697Y-64567133D01*
X194847561Y-64431583D01*
X195020083Y-64259061D01*
X195155633Y-64056197D01*
X195249001Y-63830786D01*
X195296600Y-63591491D01*
X195296600Y-63347509D01*
X196883400Y-63347509D01*
X196883400Y-63591491D01*
X196930999Y-63830786D01*
X197024367Y-64056197D01*
X197159917Y-64259061D01*
X197332439Y-64431583D01*
X197535303Y-64567133D01*
X197760714Y-64660501D01*
X198000009Y-64708100D01*
X198243991Y-64708100D01*
X198483286Y-64660501D01*
X198708697Y-64567133D01*
X198911561Y-64431583D01*
X199084083Y-64259061D01*
X199219633Y-64056197D01*
X199313001Y-63830786D01*
X199360600Y-63591491D01*
X199360600Y-63347509D01*
X199423400Y-63347509D01*
X199423400Y-63591491D01*
X199470999Y-63830786D01*
X199564367Y-64056197D01*
X199699917Y-64259061D01*
X199872439Y-64431583D01*
X200075303Y-64567133D01*
X200300714Y-64660501D01*
X200540009Y-64708100D01*
X200783991Y-64708100D01*
X201023286Y-64660501D01*
X201248697Y-64567133D01*
X201451561Y-64431583D01*
X201624083Y-64259061D01*
X201759633Y-64056197D01*
X201853001Y-63830786D01*
X201900600Y-63591491D01*
X201900600Y-63347509D01*
X201963400Y-63347509D01*
X201963400Y-63591491D01*
X202010999Y-63830786D01*
X202104367Y-64056197D01*
X202239917Y-64259061D01*
X202412439Y-64431583D01*
X202615303Y-64567133D01*
X202840714Y-64660501D01*
X203080009Y-64708100D01*
X203323991Y-64708100D01*
X203563286Y-64660501D01*
X203788697Y-64567133D01*
X203991561Y-64431583D01*
X204164083Y-64259061D01*
X204299633Y-64056197D01*
X204393001Y-63830786D01*
X204440600Y-63591491D01*
X204440600Y-63347509D01*
X204503400Y-63347509D01*
X204503400Y-63591491D01*
X204550999Y-63830786D01*
X204644367Y-64056197D01*
X204779917Y-64259061D01*
X204952439Y-64431583D01*
X205155303Y-64567133D01*
X205380714Y-64660501D01*
X205620009Y-64708100D01*
X205863991Y-64708100D01*
X206103286Y-64660501D01*
X206328697Y-64567133D01*
X206531561Y-64431583D01*
X206704083Y-64259061D01*
X206839633Y-64056197D01*
X206933001Y-63830786D01*
X206980600Y-63591491D01*
X206980600Y-63347509D01*
X207043400Y-63347509D01*
X207043400Y-63591491D01*
X207090999Y-63830786D01*
X207184367Y-64056197D01*
X207319917Y-64259061D01*
X207492439Y-64431583D01*
X207695303Y-64567133D01*
X207920714Y-64660501D01*
X208160009Y-64708100D01*
X208403991Y-64708100D01*
X208643286Y-64660501D01*
X208868697Y-64567133D01*
X209071561Y-64431583D01*
X209244083Y-64259061D01*
X209379633Y-64056197D01*
X209473001Y-63830786D01*
X209520600Y-63591491D01*
X209520600Y-63347509D01*
X209583400Y-63347509D01*
X209583400Y-63591491D01*
X209630999Y-63830786D01*
X209724367Y-64056197D01*
X209859917Y-64259061D01*
X210032439Y-64431583D01*
X210235303Y-64567133D01*
X210460714Y-64660501D01*
X210700009Y-64708100D01*
X210943991Y-64708100D01*
X211183286Y-64660501D01*
X211408697Y-64567133D01*
X211611561Y-64431583D01*
X211784083Y-64259061D01*
X211919633Y-64056197D01*
X212013001Y-63830786D01*
X212060600Y-63591491D01*
X212060600Y-63347509D01*
X212123400Y-63347509D01*
X212123400Y-63591491D01*
X212170999Y-63830786D01*
X212264367Y-64056197D01*
X212399917Y-64259061D01*
X212572439Y-64431583D01*
X212775303Y-64567133D01*
X213000714Y-64660501D01*
X213240009Y-64708100D01*
X213483991Y-64708100D01*
X213723286Y-64660501D01*
X213948697Y-64567133D01*
X214151561Y-64431583D01*
X214324083Y-64259061D01*
X214459633Y-64056197D01*
X214553001Y-63830786D01*
X214600600Y-63591491D01*
X214600600Y-63347509D01*
X214663400Y-63347509D01*
X214663400Y-63591491D01*
X214710999Y-63830786D01*
X214804367Y-64056197D01*
X214939917Y-64259061D01*
X215112439Y-64431583D01*
X215315303Y-64567133D01*
X215540714Y-64660501D01*
X215780009Y-64708100D01*
X216023991Y-64708100D01*
X216263286Y-64660501D01*
X216488697Y-64567133D01*
X216691561Y-64431583D01*
X216864083Y-64259061D01*
X216999633Y-64056197D01*
X217093001Y-63830786D01*
X217140600Y-63591491D01*
X217140600Y-63347509D01*
X217093001Y-63108214D01*
X216999633Y-62882803D01*
X216864083Y-62679939D01*
X216691561Y-62507417D01*
X216488697Y-62371867D01*
X216263286Y-62278499D01*
X216023991Y-62230900D01*
X215780009Y-62230900D01*
X215540714Y-62278499D01*
X215315303Y-62371867D01*
X215112439Y-62507417D01*
X214939917Y-62679939D01*
X214804367Y-62882803D01*
X214710999Y-63108214D01*
X214663400Y-63347509D01*
X214600600Y-63347509D01*
X214553001Y-63108214D01*
X214459633Y-62882803D01*
X214324083Y-62679939D01*
X214151561Y-62507417D01*
X213948697Y-62371867D01*
X213723286Y-62278499D01*
X213483991Y-62230900D01*
X213240009Y-62230900D01*
X213000714Y-62278499D01*
X212775303Y-62371867D01*
X212572439Y-62507417D01*
X212399917Y-62679939D01*
X212264367Y-62882803D01*
X212170999Y-63108214D01*
X212123400Y-63347509D01*
X212060600Y-63347509D01*
X212013001Y-63108214D01*
X211919633Y-62882803D01*
X211784083Y-62679939D01*
X211611561Y-62507417D01*
X211408697Y-62371867D01*
X211183286Y-62278499D01*
X210943991Y-62230900D01*
X210700009Y-62230900D01*
X210460714Y-62278499D01*
X210235303Y-62371867D01*
X210032439Y-62507417D01*
X209859917Y-62679939D01*
X209724367Y-62882803D01*
X209630999Y-63108214D01*
X209583400Y-63347509D01*
X209520600Y-63347509D01*
X209473001Y-63108214D01*
X209379633Y-62882803D01*
X209244083Y-62679939D01*
X209071561Y-62507417D01*
X208868697Y-62371867D01*
X208643286Y-62278499D01*
X208403991Y-62230900D01*
X208160009Y-62230900D01*
X207920714Y-62278499D01*
X207695303Y-62371867D01*
X207492439Y-62507417D01*
X207319917Y-62679939D01*
X207184367Y-62882803D01*
X207090999Y-63108214D01*
X207043400Y-63347509D01*
X206980600Y-63347509D01*
X206933001Y-63108214D01*
X206839633Y-62882803D01*
X206704083Y-62679939D01*
X206531561Y-62507417D01*
X206328697Y-62371867D01*
X206103286Y-62278499D01*
X205863991Y-62230900D01*
X205620009Y-62230900D01*
X205380714Y-62278499D01*
X205155303Y-62371867D01*
X204952439Y-62507417D01*
X204779917Y-62679939D01*
X204644367Y-62882803D01*
X204550999Y-63108214D01*
X204503400Y-63347509D01*
X204440600Y-63347509D01*
X204393001Y-63108214D01*
X204299633Y-62882803D01*
X204164083Y-62679939D01*
X203991561Y-62507417D01*
X203788697Y-62371867D01*
X203563286Y-62278499D01*
X203323991Y-62230900D01*
X203080009Y-62230900D01*
X202840714Y-62278499D01*
X202615303Y-62371867D01*
X202412439Y-62507417D01*
X202239917Y-62679939D01*
X202104367Y-62882803D01*
X202010999Y-63108214D01*
X201963400Y-63347509D01*
X201900600Y-63347509D01*
X201853001Y-63108214D01*
X201759633Y-62882803D01*
X201624083Y-62679939D01*
X201451561Y-62507417D01*
X201248697Y-62371867D01*
X201023286Y-62278499D01*
X200783991Y-62230900D01*
X200540009Y-62230900D01*
X200300714Y-62278499D01*
X200075303Y-62371867D01*
X199872439Y-62507417D01*
X199699917Y-62679939D01*
X199564367Y-62882803D01*
X199470999Y-63108214D01*
X199423400Y-63347509D01*
X199360600Y-63347509D01*
X199313001Y-63108214D01*
X199219633Y-62882803D01*
X199084083Y-62679939D01*
X198911561Y-62507417D01*
X198708697Y-62371867D01*
X198483286Y-62278499D01*
X198243991Y-62230900D01*
X198000009Y-62230900D01*
X197760714Y-62278499D01*
X197535303Y-62371867D01*
X197332439Y-62507417D01*
X197159917Y-62679939D01*
X197024367Y-62882803D01*
X196930999Y-63108214D01*
X196883400Y-63347509D01*
X195296600Y-63347509D01*
X195249001Y-63108214D01*
X195155633Y-62882803D01*
X195020083Y-62679939D01*
X194847561Y-62507417D01*
X194644697Y-62371867D01*
X194419286Y-62278499D01*
X194179991Y-62230900D01*
X193936009Y-62230900D01*
X193696714Y-62278499D01*
X193471303Y-62371867D01*
X193268439Y-62507417D01*
X193095917Y-62679939D01*
X192960367Y-62882803D01*
X192866999Y-63108214D01*
X192819400Y-63347509D01*
X192756600Y-63347509D01*
X192709001Y-63108214D01*
X192615633Y-62882803D01*
X192480083Y-62679939D01*
X192307561Y-62507417D01*
X192104697Y-62371867D01*
X191879286Y-62278499D01*
X191639991Y-62230900D01*
X191396009Y-62230900D01*
X191156714Y-62278499D01*
X190931303Y-62371867D01*
X190728439Y-62507417D01*
X190555917Y-62679939D01*
X190420367Y-62882803D01*
X190326999Y-63108214D01*
X190279400Y-63347509D01*
X190216600Y-63347509D01*
X190169001Y-63108214D01*
X190075633Y-62882803D01*
X189940083Y-62679939D01*
X189767561Y-62507417D01*
X189564697Y-62371867D01*
X189339286Y-62278499D01*
X189099991Y-62230900D01*
X188856009Y-62230900D01*
X188616714Y-62278499D01*
X188391303Y-62371867D01*
X188188439Y-62507417D01*
X188015917Y-62679939D01*
X187880367Y-62882803D01*
X187786999Y-63108214D01*
X187739400Y-63347509D01*
X187676600Y-63347509D01*
X187629001Y-63108214D01*
X187535633Y-62882803D01*
X187400083Y-62679939D01*
X187227561Y-62507417D01*
X187024697Y-62371867D01*
X186799286Y-62278499D01*
X186559991Y-62230900D01*
X186316009Y-62230900D01*
X186076714Y-62278499D01*
X185851303Y-62371867D01*
X185648439Y-62507417D01*
X185475917Y-62679939D01*
X185340367Y-62882803D01*
X185246999Y-63108214D01*
X185199400Y-63347509D01*
X185136600Y-63347509D01*
X185089001Y-63108214D01*
X184995633Y-62882803D01*
X184860083Y-62679939D01*
X184687561Y-62507417D01*
X184484697Y-62371867D01*
X184259286Y-62278499D01*
X184019991Y-62230900D01*
X183776009Y-62230900D01*
X183536714Y-62278499D01*
X183311303Y-62371867D01*
X183108439Y-62507417D01*
X182935917Y-62679939D01*
X182800367Y-62882803D01*
X182706999Y-63108214D01*
X182659400Y-63347509D01*
X182596600Y-63347509D01*
X182549001Y-63108214D01*
X182455633Y-62882803D01*
X182320083Y-62679939D01*
X182147561Y-62507417D01*
X181944697Y-62371867D01*
X181719286Y-62278499D01*
X181479991Y-62230900D01*
X181236009Y-62230900D01*
X180996714Y-62278499D01*
X180771303Y-62371867D01*
X180568439Y-62507417D01*
X180395917Y-62679939D01*
X180260367Y-62882803D01*
X180226634Y-62964241D01*
X180226080Y-62962414D01*
X180100097Y-62697455D01*
X179924843Y-62462165D01*
X179707054Y-62265586D01*
X179455099Y-62115273D01*
X179178661Y-62017002D01*
X178947000Y-62136715D01*
X178689000Y-62136715D01*
X178457339Y-62017002D01*
X178180901Y-62115273D01*
X177928946Y-62265586D01*
X177711157Y-62462165D01*
X177535903Y-62697455D01*
X177409920Y-62962414D01*
X177409366Y-62964241D01*
X177375633Y-62882803D01*
X177240083Y-62679939D01*
X177067561Y-62507417D01*
X176864697Y-62371867D01*
X176639286Y-62278499D01*
X176399991Y-62230900D01*
X176156009Y-62230900D01*
X175916714Y-62278499D01*
X175691303Y-62371867D01*
X175488439Y-62507417D01*
X175315917Y-62679939D01*
X175180367Y-62882803D01*
X175086999Y-63108214D01*
X175039400Y-63347509D01*
X174976600Y-63347509D01*
X174929001Y-63108214D01*
X174835633Y-62882803D01*
X174700083Y-62679939D01*
X174527561Y-62507417D01*
X174324697Y-62371867D01*
X174099286Y-62278499D01*
X173859991Y-62230900D01*
X173616009Y-62230900D01*
X173376714Y-62278499D01*
X173151303Y-62371867D01*
X172948439Y-62507417D01*
X172775917Y-62679939D01*
X172640367Y-62882803D01*
X172546999Y-63108214D01*
X172499400Y-63347509D01*
X172436600Y-63347509D01*
X172389001Y-63108214D01*
X172295633Y-62882803D01*
X172160083Y-62679939D01*
X171987561Y-62507417D01*
X171784697Y-62371867D01*
X171559286Y-62278499D01*
X171319991Y-62230900D01*
X171076009Y-62230900D01*
X170836714Y-62278499D01*
X170611303Y-62371867D01*
X170408439Y-62507417D01*
X170235917Y-62679939D01*
X170100367Y-62882803D01*
X170006999Y-63108214D01*
X169959400Y-63347509D01*
X169945000Y-63347509D01*
X169945000Y-61360000D01*
X216750315Y-61360000D01*
X218040001Y-62649686D01*
G37*
X218040001Y-62649686D02*
X218040000Y-73386353D01*
X218040000Y-73640354D01*
X218038065Y-73660000D01*
X218040000Y-73679646D01*
X218045788Y-73738413D01*
X218068660Y-73813813D01*
X218105803Y-73883302D01*
X218155789Y-73944211D01*
X218171052Y-73956737D01*
X220580001Y-76365686D01*
X220580000Y-109620646D01*
X220580001Y-109620656D01*
X220580000Y-110260815D01*
X218171048Y-112669767D01*
X218155790Y-112682289D01*
X218143268Y-112697547D01*
X218143265Y-112697550D01*
X218105803Y-112743198D01*
X218068661Y-112812686D01*
X218045788Y-112888087D01*
X218038065Y-112966500D01*
X218040001Y-112986156D01*
X218040000Y-113836500D01*
X169945000Y-113836500D01*
X169945000Y-111607509D01*
X179103400Y-111607509D01*
X179103400Y-111851491D01*
X179150999Y-112090786D01*
X179244367Y-112316197D01*
X179379917Y-112519061D01*
X179552439Y-112691583D01*
X179755303Y-112827133D01*
X179980714Y-112920501D01*
X180220009Y-112968100D01*
X180463991Y-112968100D01*
X180703286Y-112920501D01*
X180928697Y-112827133D01*
X181131561Y-112691583D01*
X181304083Y-112519061D01*
X181439633Y-112316197D01*
X181533001Y-112090786D01*
X181580600Y-111851491D01*
X181580600Y-111607509D01*
X181643400Y-111607509D01*
X181643400Y-111851491D01*
X181690999Y-112090786D01*
X181784367Y-112316197D01*
X181919917Y-112519061D01*
X182092439Y-112691583D01*
X182295303Y-112827133D01*
X182520714Y-112920501D01*
X182760009Y-112968100D01*
X183003991Y-112968100D01*
X183243286Y-112920501D01*
X183468697Y-112827133D01*
X183671561Y-112691583D01*
X183844083Y-112519061D01*
X183979633Y-112316197D01*
X184073001Y-112090786D01*
X184120600Y-111851491D01*
X184120600Y-111607509D01*
X184073001Y-111368214D01*
X183979633Y-111142803D01*
X183844083Y-110939939D01*
X183671561Y-110767417D01*
X183468697Y-110631867D01*
X183243286Y-110538499D01*
X183003991Y-110490900D01*
X182760009Y-110490900D01*
X182520714Y-110538499D01*
X182295303Y-110631867D01*
X182092439Y-110767417D01*
X181919917Y-110939939D01*
X181784367Y-111142803D01*
X181690999Y-111368214D01*
X181643400Y-111607509D01*
X181580600Y-111607509D01*
X181533001Y-111368214D01*
X181439633Y-111142803D01*
X181304083Y-110939939D01*
X181131561Y-110767417D01*
X180928697Y-110631867D01*
X180703286Y-110538499D01*
X180463991Y-110490900D01*
X180220009Y-110490900D01*
X179980714Y-110538499D01*
X179755303Y-110631867D01*
X179552439Y-110767417D01*
X179379917Y-110939939D01*
X179244367Y-111142803D01*
X179150999Y-111368214D01*
X179103400Y-111607509D01*
X169945000Y-111607509D01*
X169945000Y-107829348D01*
X177210000Y-107829348D01*
X177210000Y-108070652D01*
X177257076Y-108307319D01*
X177349419Y-108530255D01*
X177483481Y-108730892D01*
X177654108Y-108901519D01*
X177854745Y-109035581D01*
X178077681Y-109127924D01*
X178314348Y-109175000D01*
X178555652Y-109175000D01*
X178792319Y-109127924D01*
X179015255Y-109035581D01*
X179215892Y-108901519D01*
X179386519Y-108730892D01*
X179520581Y-108530255D01*
X179612924Y-108307319D01*
X179660000Y-108070652D01*
X179660000Y-107829348D01*
X179612924Y-107592681D01*
X179520581Y-107369745D01*
X179386519Y-107169108D01*
X179317411Y-107100000D01*
X179748186Y-107100000D01*
X179748186Y-108800000D01*
X179755426Y-108873513D01*
X179776869Y-108944200D01*
X179811691Y-109009347D01*
X179858552Y-109066448D01*
X179915653Y-109113309D01*
X179980800Y-109148131D01*
X180051487Y-109169574D01*
X180125000Y-109176814D01*
X181825000Y-109176814D01*
X181898513Y-109169574D01*
X181969200Y-109148131D01*
X182034347Y-109113309D01*
X182069695Y-109084300D01*
X184266910Y-111281516D01*
X184230999Y-111368214D01*
X184183400Y-111607509D01*
X184183400Y-111851491D01*
X184230999Y-112090786D01*
X184324367Y-112316197D01*
X184459917Y-112519061D01*
X184632439Y-112691583D01*
X184835303Y-112827133D01*
X185060714Y-112920501D01*
X185300009Y-112968100D01*
X185543991Y-112968100D01*
X185783286Y-112920501D01*
X186008697Y-112827133D01*
X186211561Y-112691583D01*
X186384083Y-112519061D01*
X186519633Y-112316197D01*
X186613001Y-112090786D01*
X186660600Y-111851491D01*
X186660600Y-111607509D01*
X186723400Y-111607509D01*
X186723400Y-111851491D01*
X186770999Y-112090786D01*
X186864367Y-112316197D01*
X186999917Y-112519061D01*
X187172439Y-112691583D01*
X187375303Y-112827133D01*
X187600714Y-112920501D01*
X187840009Y-112968100D01*
X188083991Y-112968100D01*
X188323286Y-112920501D01*
X188548697Y-112827133D01*
X188751561Y-112691583D01*
X188924083Y-112519061D01*
X189059633Y-112316197D01*
X189153001Y-112090786D01*
X189200600Y-111851491D01*
X189200600Y-111607509D01*
X189153001Y-111368214D01*
X189059633Y-111142803D01*
X188924083Y-110939939D01*
X188751561Y-110767417D01*
X188548697Y-110631867D01*
X188323286Y-110538499D01*
X188083991Y-110490900D01*
X187840009Y-110490900D01*
X187600714Y-110538499D01*
X187375303Y-110631867D01*
X187172439Y-110767417D01*
X186999917Y-110939939D01*
X186864367Y-111142803D01*
X186770999Y-111368214D01*
X186723400Y-111607509D01*
X186660600Y-111607509D01*
X186613001Y-111368214D01*
X186519633Y-111142803D01*
X186384083Y-110939939D01*
X186211561Y-110767417D01*
X186008697Y-110631867D01*
X185783286Y-110538499D01*
X185543991Y-110490900D01*
X185300009Y-110490900D01*
X185060714Y-110538499D01*
X184974016Y-110574410D01*
X182201814Y-107802209D01*
X182201814Y-107100000D01*
X182194574Y-107026487D01*
X182173131Y-106955800D01*
X182138309Y-106890653D01*
X182091448Y-106833552D01*
X182034347Y-106786691D01*
X181969200Y-106751869D01*
X181898513Y-106730426D01*
X181825000Y-106723186D01*
X180125000Y-106723186D01*
X180051487Y-106730426D01*
X179980800Y-106751869D01*
X179915653Y-106786691D01*
X179858552Y-106833552D01*
X179811691Y-106890653D01*
X179776869Y-106955800D01*
X179755426Y-107026487D01*
X179748186Y-107100000D01*
X179317411Y-107100000D01*
X179215892Y-106998481D01*
X179015255Y-106864419D01*
X178935000Y-106831176D01*
X178935000Y-105474400D01*
X179013795Y-105432283D01*
X179106886Y-105355886D01*
X179183283Y-105262795D01*
X179240052Y-105156588D01*
X179275010Y-105041347D01*
X179286814Y-104921500D01*
X179286814Y-104346500D01*
X179275010Y-104226653D01*
X179240052Y-104111412D01*
X179183283Y-104005205D01*
X179169292Y-103988157D01*
X179263378Y-103937867D01*
X179359764Y-103858764D01*
X179438867Y-103762378D01*
X179497646Y-103652411D01*
X179533841Y-103533090D01*
X179546063Y-103409000D01*
X179543000Y-103171250D01*
X179384750Y-103013000D01*
X178564000Y-103013000D01*
X178564000Y-103033000D01*
X178306000Y-103033000D01*
X178306000Y-103013000D01*
X177485250Y-103013000D01*
X177327000Y-103171250D01*
X177323937Y-103409000D01*
X177336159Y-103533090D01*
X177372354Y-103652411D01*
X177431133Y-103762378D01*
X177510236Y-103858764D01*
X177606622Y-103937867D01*
X177700708Y-103988157D01*
X177686717Y-104005205D01*
X177629948Y-104111412D01*
X177594990Y-104226653D01*
X177583186Y-104346500D01*
X177583186Y-104921500D01*
X177594990Y-105041347D01*
X177629948Y-105156588D01*
X177686717Y-105262795D01*
X177763114Y-105355886D01*
X177856205Y-105432283D01*
X177935000Y-105474400D01*
X177935001Y-106831176D01*
X177854745Y-106864419D01*
X177654108Y-106998481D01*
X177483481Y-107169108D01*
X177349419Y-107369745D01*
X177257076Y-107592681D01*
X177210000Y-107829348D01*
X169945000Y-107829348D01*
X169945000Y-102359000D01*
X177323937Y-102359000D01*
X177327000Y-102596750D01*
X177485250Y-102755000D01*
X178306000Y-102755000D01*
X178306000Y-101884250D01*
X178564000Y-101884250D01*
X178564000Y-102755000D01*
X179384750Y-102755000D01*
X179543000Y-102596750D01*
X179546063Y-102359000D01*
X179533841Y-102234910D01*
X179497646Y-102115589D01*
X179438867Y-102005622D01*
X179359764Y-101909236D01*
X179263378Y-101830133D01*
X179153411Y-101771354D01*
X179034090Y-101735159D01*
X178910000Y-101722937D01*
X178722250Y-101726000D01*
X178564000Y-101884250D01*
X178306000Y-101884250D01*
X178147750Y-101726000D01*
X177960000Y-101722937D01*
X177835910Y-101735159D01*
X177716589Y-101771354D01*
X177606622Y-101830133D01*
X177510236Y-101909236D01*
X177431133Y-102005622D01*
X177372354Y-102115589D01*
X177336159Y-102234910D01*
X177323937Y-102359000D01*
X169945000Y-102359000D01*
X169945000Y-85495499D01*
X172383582Y-85495499D01*
X172386001Y-85520059D01*
X172386002Y-95937931D01*
X172383582Y-95962501D01*
X172393236Y-96060518D01*
X172416746Y-96138019D01*
X172421827Y-96154768D01*
X172468256Y-96241630D01*
X172530738Y-96317765D01*
X172549820Y-96333425D01*
X172702186Y-96485791D01*
X172702186Y-97805500D01*
X172709426Y-97879013D01*
X172730869Y-97949700D01*
X172765691Y-98014847D01*
X172812552Y-98071948D01*
X172869653Y-98118809D01*
X172934800Y-98153631D01*
X173005487Y-98175074D01*
X173079000Y-98182314D01*
X173273670Y-98182314D01*
X173311254Y-98252629D01*
X173373736Y-98328764D01*
X173392824Y-98344429D01*
X175143075Y-100094681D01*
X175158736Y-100113764D01*
X175234871Y-100176246D01*
X175321733Y-100222675D01*
X175415983Y-100251265D01*
X175489440Y-100258500D01*
X175489441Y-100258500D01*
X175513999Y-100260919D01*
X175538557Y-100258500D01*
X178323895Y-100258500D01*
X189346910Y-111281517D01*
X189310999Y-111368214D01*
X189263400Y-111607509D01*
X189263400Y-111851491D01*
X189310999Y-112090786D01*
X189404367Y-112316197D01*
X189539917Y-112519061D01*
X189712439Y-112691583D01*
X189915303Y-112827133D01*
X190140714Y-112920501D01*
X190380009Y-112968100D01*
X190623991Y-112968100D01*
X190863286Y-112920501D01*
X191088697Y-112827133D01*
X191291561Y-112691583D01*
X191464083Y-112519061D01*
X191599633Y-112316197D01*
X191633366Y-112234759D01*
X191633920Y-112236586D01*
X191759903Y-112501545D01*
X191935157Y-112736835D01*
X192152946Y-112933414D01*
X192404901Y-113083727D01*
X192681339Y-113181998D01*
X192913000Y-113062285D01*
X192913000Y-111858500D01*
X193171000Y-111858500D01*
X193171000Y-113062285D01*
X193402661Y-113181998D01*
X193679099Y-113083727D01*
X193931054Y-112933414D01*
X194148843Y-112736835D01*
X194312000Y-112517786D01*
X194475157Y-112736835D01*
X194692946Y-112933414D01*
X194944901Y-113083727D01*
X195221339Y-113181998D01*
X195453000Y-113062285D01*
X195453000Y-111858500D01*
X193171000Y-111858500D01*
X192913000Y-111858500D01*
X192893000Y-111858500D01*
X192893000Y-111600500D01*
X192913000Y-111600500D01*
X192913000Y-110396715D01*
X193171000Y-110396715D01*
X193171000Y-111600500D01*
X195453000Y-111600500D01*
X195453000Y-110396715D01*
X195711000Y-110396715D01*
X195711000Y-111600500D01*
X195731000Y-111600500D01*
X195731000Y-111858500D01*
X195711000Y-111858500D01*
X195711000Y-113062285D01*
X195942661Y-113181998D01*
X196219099Y-113083727D01*
X196471054Y-112933414D01*
X196688843Y-112736835D01*
X196864097Y-112501545D01*
X196990080Y-112236586D01*
X196990634Y-112234759D01*
X197024367Y-112316197D01*
X197159917Y-112519061D01*
X197332439Y-112691583D01*
X197535303Y-112827133D01*
X197760714Y-112920501D01*
X198000009Y-112968100D01*
X198243991Y-112968100D01*
X198483286Y-112920501D01*
X198708697Y-112827133D01*
X198911561Y-112691583D01*
X199084083Y-112519061D01*
X199219633Y-112316197D01*
X199313001Y-112090786D01*
X199360600Y-111851491D01*
X199360600Y-111607509D01*
X201963400Y-111607509D01*
X201963400Y-111851491D01*
X202010999Y-112090786D01*
X202104367Y-112316197D01*
X202239917Y-112519061D01*
X202412439Y-112691583D01*
X202615303Y-112827133D01*
X202840714Y-112920501D01*
X203080009Y-112968100D01*
X203323991Y-112968100D01*
X203563286Y-112920501D01*
X203788697Y-112827133D01*
X203991561Y-112691583D01*
X204164083Y-112519061D01*
X204299633Y-112316197D01*
X204393001Y-112090786D01*
X204440600Y-111851491D01*
X204440600Y-111607509D01*
X204503400Y-111607509D01*
X204503400Y-111851491D01*
X204550999Y-112090786D01*
X204644367Y-112316197D01*
X204779917Y-112519061D01*
X204952439Y-112691583D01*
X205155303Y-112827133D01*
X205380714Y-112920501D01*
X205620009Y-112968100D01*
X205863991Y-112968100D01*
X206103286Y-112920501D01*
X206328697Y-112827133D01*
X206531561Y-112691583D01*
X206704083Y-112519061D01*
X206839633Y-112316197D01*
X206933001Y-112090786D01*
X206980600Y-111851491D01*
X206980600Y-111607509D01*
X207043400Y-111607509D01*
X207043400Y-111851491D01*
X207090999Y-112090786D01*
X207184367Y-112316197D01*
X207319917Y-112519061D01*
X207492439Y-112691583D01*
X207695303Y-112827133D01*
X207920714Y-112920501D01*
X208160009Y-112968100D01*
X208403991Y-112968100D01*
X208643286Y-112920501D01*
X208868697Y-112827133D01*
X209071561Y-112691583D01*
X209244083Y-112519061D01*
X209379633Y-112316197D01*
X209473001Y-112090786D01*
X209520600Y-111851491D01*
X209520600Y-111607509D01*
X209583400Y-111607509D01*
X209583400Y-111851491D01*
X209630999Y-112090786D01*
X209724367Y-112316197D01*
X209859917Y-112519061D01*
X210032439Y-112691583D01*
X210235303Y-112827133D01*
X210460714Y-112920501D01*
X210700009Y-112968100D01*
X210943991Y-112968100D01*
X211183286Y-112920501D01*
X211408697Y-112827133D01*
X211611561Y-112691583D01*
X211784083Y-112519061D01*
X211919633Y-112316197D01*
X212013001Y-112090786D01*
X212060600Y-111851491D01*
X212060600Y-111607509D01*
X212123400Y-111607509D01*
X212123400Y-111851491D01*
X212170999Y-112090786D01*
X212264367Y-112316197D01*
X212399917Y-112519061D01*
X212572439Y-112691583D01*
X212775303Y-112827133D01*
X213000714Y-112920501D01*
X213240009Y-112968100D01*
X213483991Y-112968100D01*
X213723286Y-112920501D01*
X213948697Y-112827133D01*
X214151561Y-112691583D01*
X214324083Y-112519061D01*
X214459633Y-112316197D01*
X214553001Y-112090786D01*
X214600600Y-111851491D01*
X214600600Y-111607509D01*
X214663400Y-111607509D01*
X214663400Y-111851491D01*
X214710999Y-112090786D01*
X214804367Y-112316197D01*
X214939917Y-112519061D01*
X215112439Y-112691583D01*
X215315303Y-112827133D01*
X215540714Y-112920501D01*
X215780009Y-112968100D01*
X216023991Y-112968100D01*
X216263286Y-112920501D01*
X216488697Y-112827133D01*
X216691561Y-112691583D01*
X216864083Y-112519061D01*
X216999633Y-112316197D01*
X217093001Y-112090786D01*
X217140600Y-111851491D01*
X217140600Y-111607509D01*
X217093001Y-111368214D01*
X216999633Y-111142803D01*
X216864083Y-110939939D01*
X216691561Y-110767417D01*
X216488697Y-110631867D01*
X216263286Y-110538499D01*
X216023991Y-110490900D01*
X215780009Y-110490900D01*
X215540714Y-110538499D01*
X215315303Y-110631867D01*
X215112439Y-110767417D01*
X214939917Y-110939939D01*
X214804367Y-111142803D01*
X214710999Y-111368214D01*
X214663400Y-111607509D01*
X214600600Y-111607509D01*
X214553001Y-111368214D01*
X214459633Y-111142803D01*
X214324083Y-110939939D01*
X214151561Y-110767417D01*
X213948697Y-110631867D01*
X213723286Y-110538499D01*
X213483991Y-110490900D01*
X213240009Y-110490900D01*
X213000714Y-110538499D01*
X212775303Y-110631867D01*
X212572439Y-110767417D01*
X212399917Y-110939939D01*
X212264367Y-111142803D01*
X212170999Y-111368214D01*
X212123400Y-111607509D01*
X212060600Y-111607509D01*
X212013001Y-111368214D01*
X211919633Y-111142803D01*
X211784083Y-110939939D01*
X211611561Y-110767417D01*
X211408697Y-110631867D01*
X211183286Y-110538499D01*
X210943991Y-110490900D01*
X210700009Y-110490900D01*
X210460714Y-110538499D01*
X210235303Y-110631867D01*
X210032439Y-110767417D01*
X209859917Y-110939939D01*
X209724367Y-111142803D01*
X209630999Y-111368214D01*
X209583400Y-111607509D01*
X209520600Y-111607509D01*
X209473001Y-111368214D01*
X209379633Y-111142803D01*
X209244083Y-110939939D01*
X209071561Y-110767417D01*
X208868697Y-110631867D01*
X208643286Y-110538499D01*
X208403991Y-110490900D01*
X208160009Y-110490900D01*
X207920714Y-110538499D01*
X207695303Y-110631867D01*
X207492439Y-110767417D01*
X207319917Y-110939939D01*
X207184367Y-111142803D01*
X207090999Y-111368214D01*
X207043400Y-111607509D01*
X206980600Y-111607509D01*
X206933001Y-111368214D01*
X206839633Y-111142803D01*
X206704083Y-110939939D01*
X206531561Y-110767417D01*
X206328697Y-110631867D01*
X206103286Y-110538499D01*
X205863991Y-110490900D01*
X205620009Y-110490900D01*
X205380714Y-110538499D01*
X205155303Y-110631867D01*
X204952439Y-110767417D01*
X204779917Y-110939939D01*
X204644367Y-111142803D01*
X204550999Y-111368214D01*
X204503400Y-111607509D01*
X204440600Y-111607509D01*
X204393001Y-111368214D01*
X204357089Y-111281516D01*
X216871187Y-98767420D01*
X216890264Y-98751764D01*
X216952746Y-98675629D01*
X216999175Y-98588767D01*
X217027765Y-98494517D01*
X217035000Y-98421060D01*
X217035000Y-98421051D01*
X217037418Y-98396501D01*
X217035000Y-98371951D01*
X217035000Y-84303824D01*
X217115255Y-84270581D01*
X217315892Y-84136519D01*
X217486519Y-83965892D01*
X217620581Y-83765255D01*
X217712924Y-83542319D01*
X217760000Y-83305652D01*
X217760000Y-83064348D01*
X217712924Y-82827681D01*
X217620581Y-82604745D01*
X217486519Y-82404108D01*
X217315892Y-82233481D01*
X217160787Y-82129843D01*
X217385000Y-82131063D01*
X217509090Y-82118841D01*
X217628411Y-82082646D01*
X217738378Y-82023867D01*
X217834764Y-81944764D01*
X217913867Y-81848378D01*
X217972646Y-81738411D01*
X218008841Y-81619090D01*
X218021063Y-81495000D01*
X218018000Y-80932250D01*
X217859750Y-80774000D01*
X216664000Y-80774000D01*
X216664000Y-80794000D01*
X216406000Y-80794000D01*
X216406000Y-80774000D01*
X215210250Y-80774000D01*
X215052000Y-80932250D01*
X215048937Y-81495000D01*
X215061159Y-81619090D01*
X215097354Y-81738411D01*
X215156133Y-81848378D01*
X215235236Y-81944764D01*
X215331622Y-82023867D01*
X215441589Y-82082646D01*
X215560910Y-82118841D01*
X215685000Y-82131063D01*
X215909213Y-82129843D01*
X215754108Y-82233481D01*
X215583481Y-82404108D01*
X215449419Y-82604745D01*
X215357076Y-82827681D01*
X215310000Y-83064348D01*
X215310000Y-83305652D01*
X215357076Y-83542319D01*
X215449419Y-83765255D01*
X215583481Y-83965892D01*
X215754108Y-84136519D01*
X215954745Y-84270581D01*
X216035001Y-84303824D01*
X216035000Y-98189393D01*
X203649984Y-110574411D01*
X203563286Y-110538499D01*
X203323991Y-110490900D01*
X203080009Y-110490900D01*
X202840714Y-110538499D01*
X202615303Y-110631867D01*
X202412439Y-110767417D01*
X202239917Y-110939939D01*
X202104367Y-111142803D01*
X202010999Y-111368214D01*
X201963400Y-111607509D01*
X199360600Y-111607509D01*
X199313001Y-111368214D01*
X199219633Y-111142803D01*
X199084083Y-110939939D01*
X198911561Y-110767417D01*
X198708697Y-110631867D01*
X198483286Y-110538499D01*
X198243991Y-110490900D01*
X198000009Y-110490900D01*
X197760714Y-110538499D01*
X197535303Y-110631867D01*
X197332439Y-110767417D01*
X197159917Y-110939939D01*
X197024367Y-111142803D01*
X196990634Y-111224241D01*
X196990080Y-111222414D01*
X196864097Y-110957455D01*
X196688843Y-110722165D01*
X196471054Y-110525586D01*
X196219099Y-110375273D01*
X195942661Y-110277002D01*
X195711000Y-110396715D01*
X195453000Y-110396715D01*
X195221339Y-110277002D01*
X194944901Y-110375273D01*
X194692946Y-110525586D01*
X194475157Y-110722165D01*
X194312000Y-110941214D01*
X194148843Y-110722165D01*
X193931054Y-110525586D01*
X193679099Y-110375273D01*
X193402661Y-110277002D01*
X193171000Y-110396715D01*
X192913000Y-110396715D01*
X192681339Y-110277002D01*
X192650718Y-110287887D01*
X196979357Y-105959250D01*
X205602690Y-105959250D01*
X205627250Y-105961669D01*
X205651810Y-105959250D01*
X205725267Y-105952015D01*
X205819517Y-105923425D01*
X205906379Y-105876996D01*
X205982514Y-105814514D01*
X205998179Y-105795426D01*
X209857420Y-101936187D01*
X209857429Y-101936176D01*
X212922425Y-98871181D01*
X213002681Y-98904424D01*
X213239348Y-98951500D01*
X213480652Y-98951500D01*
X213717319Y-98904424D01*
X213940255Y-98812081D01*
X214140892Y-98678019D01*
X214311519Y-98507392D01*
X214445581Y-98306755D01*
X214537924Y-98083819D01*
X214585000Y-97847152D01*
X214585000Y-97605848D01*
X214537924Y-97369181D01*
X214445581Y-97146245D01*
X214311519Y-96945608D01*
X214140892Y-96774981D01*
X213940255Y-96640919D01*
X213827534Y-96594228D01*
X213994865Y-96534673D01*
X214128252Y-96463376D01*
X214206169Y-96215103D01*
X213360000Y-95368934D01*
X212513831Y-96215103D01*
X212591748Y-96463376D01*
X212855616Y-96588720D01*
X212886783Y-96596583D01*
X212779745Y-96640919D01*
X212579108Y-96774981D01*
X212408481Y-96945608D01*
X212274419Y-97146245D01*
X212182076Y-97369181D01*
X212135000Y-97605848D01*
X212135000Y-97847152D01*
X212182076Y-98083819D01*
X212215319Y-98164075D01*
X209150324Y-101229071D01*
X209150313Y-101229080D01*
X205420145Y-104959250D01*
X196796810Y-104959250D01*
X196772250Y-104956831D01*
X196747690Y-104959250D01*
X196674233Y-104966485D01*
X196579983Y-104995075D01*
X196493121Y-105041504D01*
X196416986Y-105103986D01*
X196401330Y-105123063D01*
X190949984Y-110574410D01*
X190863286Y-110538499D01*
X190623991Y-110490900D01*
X190380009Y-110490900D01*
X190140714Y-110538499D01*
X190054017Y-110574410D01*
X178901929Y-99422324D01*
X178886264Y-99403236D01*
X178810129Y-99340754D01*
X178723267Y-99294325D01*
X178629017Y-99265735D01*
X178555560Y-99258500D01*
X178531000Y-99256081D01*
X178506440Y-99258500D01*
X175721106Y-99258500D01*
X174583829Y-98121224D01*
X174588347Y-98118809D01*
X174645448Y-98071948D01*
X174692309Y-98014847D01*
X174727131Y-97949700D01*
X174748574Y-97879013D01*
X174749376Y-97870872D01*
X174755159Y-97929590D01*
X174791354Y-98048911D01*
X174850133Y-98158878D01*
X174929236Y-98255264D01*
X175025622Y-98334367D01*
X175135589Y-98393146D01*
X175254910Y-98429341D01*
X175379000Y-98441563D01*
X175741750Y-98438500D01*
X175900000Y-98280250D01*
X175900000Y-96934500D01*
X176158000Y-96934500D01*
X176158000Y-98280250D01*
X176316250Y-98438500D01*
X176679000Y-98441563D01*
X176803090Y-98429341D01*
X176922411Y-98393146D01*
X177032378Y-98334367D01*
X177128764Y-98255264D01*
X177207867Y-98158878D01*
X177266646Y-98048911D01*
X177302841Y-97929590D01*
X177315063Y-97805500D01*
X177312000Y-97092750D01*
X177153750Y-96934500D01*
X176158000Y-96934500D01*
X175900000Y-96934500D01*
X175880000Y-96934500D01*
X175880000Y-96676500D01*
X175900000Y-96676500D01*
X175900000Y-95330750D01*
X176158000Y-95330750D01*
X176158000Y-96676500D01*
X177153750Y-96676500D01*
X177312000Y-96518250D01*
X177315063Y-95805500D01*
X177302841Y-95681410D01*
X177266646Y-95562089D01*
X177207867Y-95452122D01*
X177128764Y-95355736D01*
X177032378Y-95276633D01*
X176922411Y-95217854D01*
X176803090Y-95181659D01*
X176679000Y-95169437D01*
X176316250Y-95172500D01*
X176158000Y-95330750D01*
X175900000Y-95330750D01*
X175741750Y-95172500D01*
X175379000Y-95169437D01*
X175254910Y-95181659D01*
X175135589Y-95217854D01*
X175025622Y-95276633D01*
X174929236Y-95355736D01*
X174850133Y-95452122D01*
X174791354Y-95562089D01*
X174755159Y-95681410D01*
X174749376Y-95740128D01*
X174748574Y-95731987D01*
X174727131Y-95661300D01*
X174692309Y-95596153D01*
X174645448Y-95539052D01*
X174588347Y-95492191D01*
X174523200Y-95457369D01*
X174452513Y-95435926D01*
X174379000Y-95428686D01*
X173386001Y-95428686D01*
X173386001Y-91805500D01*
X173502186Y-91805500D01*
X173502186Y-93805500D01*
X173509426Y-93879013D01*
X173530869Y-93949700D01*
X173565691Y-94014847D01*
X173612552Y-94071948D01*
X173669653Y-94118809D01*
X173734800Y-94153631D01*
X173805487Y-94175074D01*
X173879000Y-94182314D01*
X175879000Y-94182314D01*
X175952513Y-94175074D01*
X176023200Y-94153631D01*
X176088347Y-94118809D01*
X176145448Y-94071948D01*
X176192309Y-94014847D01*
X176227131Y-93949700D01*
X176248574Y-93879013D01*
X176255814Y-93805500D01*
X176255814Y-93305500D01*
X182514395Y-93305500D01*
X189811580Y-100602687D01*
X189827236Y-100621764D01*
X189903371Y-100684246D01*
X189990233Y-100730675D01*
X190084483Y-100759265D01*
X190157940Y-100766500D01*
X190157949Y-100766500D01*
X190182499Y-100768918D01*
X190207049Y-100766500D01*
X195555440Y-100766500D01*
X195580000Y-100768919D01*
X195604560Y-100766500D01*
X195678017Y-100759265D01*
X195772267Y-100730675D01*
X195859129Y-100684246D01*
X195935264Y-100621764D01*
X195950929Y-100602676D01*
X197682425Y-98871181D01*
X197762681Y-98904424D01*
X197999348Y-98951500D01*
X198240652Y-98951500D01*
X198477319Y-98904424D01*
X198700255Y-98812081D01*
X198900892Y-98678019D01*
X199071519Y-98507392D01*
X199205581Y-98306755D01*
X199297924Y-98083819D01*
X199345000Y-97847152D01*
X199345000Y-97605848D01*
X199435000Y-97605848D01*
X199435000Y-97847152D01*
X199482076Y-98083819D01*
X199574419Y-98306755D01*
X199708481Y-98507392D01*
X199879108Y-98678019D01*
X200079745Y-98812081D01*
X200302681Y-98904424D01*
X200539348Y-98951500D01*
X200780652Y-98951500D01*
X201017319Y-98904424D01*
X201240255Y-98812081D01*
X201440892Y-98678019D01*
X201611519Y-98507392D01*
X201745581Y-98306755D01*
X201837924Y-98083819D01*
X201885000Y-97847152D01*
X201885000Y-97605848D01*
X201975000Y-97605848D01*
X201975000Y-97847152D01*
X202022076Y-98083819D01*
X202114419Y-98306755D01*
X202248481Y-98507392D01*
X202419108Y-98678019D01*
X202619745Y-98812081D01*
X202842681Y-98904424D01*
X203079348Y-98951500D01*
X203320652Y-98951500D01*
X203557319Y-98904424D01*
X203780255Y-98812081D01*
X203980892Y-98678019D01*
X204151519Y-98507392D01*
X204285581Y-98306755D01*
X204377924Y-98083819D01*
X204425000Y-97847152D01*
X204425000Y-97605848D01*
X204515000Y-97605848D01*
X204515000Y-97847152D01*
X204562076Y-98083819D01*
X204654419Y-98306755D01*
X204788481Y-98507392D01*
X204959108Y-98678019D01*
X205159745Y-98812081D01*
X205382681Y-98904424D01*
X205619348Y-98951500D01*
X205860652Y-98951500D01*
X206097319Y-98904424D01*
X206320255Y-98812081D01*
X206520892Y-98678019D01*
X206691519Y-98507392D01*
X206825581Y-98306755D01*
X206917924Y-98083819D01*
X206965000Y-97847152D01*
X206965000Y-97605848D01*
X207055000Y-97605848D01*
X207055000Y-97847152D01*
X207102076Y-98083819D01*
X207194419Y-98306755D01*
X207328481Y-98507392D01*
X207499108Y-98678019D01*
X207699745Y-98812081D01*
X207922681Y-98904424D01*
X208159348Y-98951500D01*
X208400652Y-98951500D01*
X208637319Y-98904424D01*
X208860255Y-98812081D01*
X209060892Y-98678019D01*
X209231519Y-98507392D01*
X209365581Y-98306755D01*
X209457924Y-98083819D01*
X209505000Y-97847152D01*
X209505000Y-97605848D01*
X209595000Y-97605848D01*
X209595000Y-97847152D01*
X209642076Y-98083819D01*
X209734419Y-98306755D01*
X209868481Y-98507392D01*
X210039108Y-98678019D01*
X210239745Y-98812081D01*
X210462681Y-98904424D01*
X210699348Y-98951500D01*
X210940652Y-98951500D01*
X211177319Y-98904424D01*
X211400255Y-98812081D01*
X211600892Y-98678019D01*
X211771519Y-98507392D01*
X211905581Y-98306755D01*
X211997924Y-98083819D01*
X212045000Y-97847152D01*
X212045000Y-97605848D01*
X211997924Y-97369181D01*
X211905581Y-97146245D01*
X211771519Y-96945608D01*
X211600892Y-96774981D01*
X211400255Y-96640919D01*
X211177319Y-96548576D01*
X210940652Y-96501500D01*
X210699348Y-96501500D01*
X210462681Y-96548576D01*
X210239745Y-96640919D01*
X210039108Y-96774981D01*
X209868481Y-96945608D01*
X209734419Y-97146245D01*
X209642076Y-97369181D01*
X209595000Y-97605848D01*
X209505000Y-97605848D01*
X209457924Y-97369181D01*
X209365581Y-97146245D01*
X209231519Y-96945608D01*
X209060892Y-96774981D01*
X208860255Y-96640919D01*
X208637319Y-96548576D01*
X208400652Y-96501500D01*
X208159348Y-96501500D01*
X207922681Y-96548576D01*
X207699745Y-96640919D01*
X207499108Y-96774981D01*
X207328481Y-96945608D01*
X207194419Y-97146245D01*
X207102076Y-97369181D01*
X207055000Y-97605848D01*
X206965000Y-97605848D01*
X206917924Y-97369181D01*
X206825581Y-97146245D01*
X206691519Y-96945608D01*
X206520892Y-96774981D01*
X206320255Y-96640919D01*
X206097319Y-96548576D01*
X205860652Y-96501500D01*
X205619348Y-96501500D01*
X205382681Y-96548576D01*
X205159745Y-96640919D01*
X204959108Y-96774981D01*
X204788481Y-96945608D01*
X204654419Y-97146245D01*
X204562076Y-97369181D01*
X204515000Y-97605848D01*
X204425000Y-97605848D01*
X204377924Y-97369181D01*
X204285581Y-97146245D01*
X204151519Y-96945608D01*
X203980892Y-96774981D01*
X203780255Y-96640919D01*
X203557319Y-96548576D01*
X203320652Y-96501500D01*
X203079348Y-96501500D01*
X202842681Y-96548576D01*
X202619745Y-96640919D01*
X202419108Y-96774981D01*
X202248481Y-96945608D01*
X202114419Y-97146245D01*
X202022076Y-97369181D01*
X201975000Y-97605848D01*
X201885000Y-97605848D01*
X201837924Y-97369181D01*
X201745581Y-97146245D01*
X201611519Y-96945608D01*
X201440892Y-96774981D01*
X201240255Y-96640919D01*
X201017319Y-96548576D01*
X200780652Y-96501500D01*
X200539348Y-96501500D01*
X200302681Y-96548576D01*
X200079745Y-96640919D01*
X199879108Y-96774981D01*
X199708481Y-96945608D01*
X199574419Y-97146245D01*
X199482076Y-97369181D01*
X199435000Y-97605848D01*
X199345000Y-97605848D01*
X199297924Y-97369181D01*
X199205581Y-97146245D01*
X199071519Y-96945608D01*
X198900892Y-96774981D01*
X198700255Y-96640919D01*
X198477319Y-96548576D01*
X198240652Y-96501500D01*
X197999348Y-96501500D01*
X197762681Y-96548576D01*
X197539745Y-96640919D01*
X197339108Y-96774981D01*
X197168481Y-96945608D01*
X197064843Y-97100713D01*
X197066063Y-96876500D01*
X197053841Y-96752410D01*
X197017646Y-96633089D01*
X196958867Y-96523122D01*
X196879764Y-96426736D01*
X196783378Y-96347633D01*
X196673411Y-96288854D01*
X196554090Y-96252659D01*
X196430000Y-96240437D01*
X196205787Y-96241657D01*
X196360892Y-96138019D01*
X196531519Y-95967392D01*
X196665581Y-95766755D01*
X196757924Y-95543819D01*
X196805000Y-95307152D01*
X196805000Y-95065848D01*
X196895000Y-95065848D01*
X196895000Y-95307152D01*
X196942076Y-95543819D01*
X197034419Y-95766755D01*
X197168481Y-95967392D01*
X197339108Y-96138019D01*
X197539745Y-96272081D01*
X197762681Y-96364424D01*
X197999348Y-96411500D01*
X198240652Y-96411500D01*
X198477319Y-96364424D01*
X198700255Y-96272081D01*
X198900892Y-96138019D01*
X199071519Y-95967392D01*
X199205581Y-95766755D01*
X199297924Y-95543819D01*
X199345000Y-95307152D01*
X199345000Y-95065848D01*
X199435000Y-95065848D01*
X199435000Y-95307152D01*
X199482076Y-95543819D01*
X199574419Y-95766755D01*
X199708481Y-95967392D01*
X199879108Y-96138019D01*
X200079745Y-96272081D01*
X200302681Y-96364424D01*
X200539348Y-96411500D01*
X200780652Y-96411500D01*
X201017319Y-96364424D01*
X201240255Y-96272081D01*
X201440892Y-96138019D01*
X201611519Y-95967392D01*
X201745581Y-95766755D01*
X201837924Y-95543819D01*
X201885000Y-95307152D01*
X201885000Y-95065848D01*
X201975000Y-95065848D01*
X201975000Y-95307152D01*
X202022076Y-95543819D01*
X202114419Y-95766755D01*
X202248481Y-95967392D01*
X202419108Y-96138019D01*
X202619745Y-96272081D01*
X202842681Y-96364424D01*
X203079348Y-96411500D01*
X203320652Y-96411500D01*
X203557319Y-96364424D01*
X203780255Y-96272081D01*
X203980892Y-96138019D01*
X204151519Y-95967392D01*
X204285581Y-95766755D01*
X204377924Y-95543819D01*
X204425000Y-95307152D01*
X204425000Y-95065848D01*
X204515000Y-95065848D01*
X204515000Y-95307152D01*
X204562076Y-95543819D01*
X204654419Y-95766755D01*
X204788481Y-95967392D01*
X204959108Y-96138019D01*
X205159745Y-96272081D01*
X205382681Y-96364424D01*
X205619348Y-96411500D01*
X205860652Y-96411500D01*
X206097319Y-96364424D01*
X206320255Y-96272081D01*
X206520892Y-96138019D01*
X206691519Y-95967392D01*
X206825581Y-95766755D01*
X206917924Y-95543819D01*
X206965000Y-95307152D01*
X206965000Y-95065848D01*
X207055000Y-95065848D01*
X207055000Y-95307152D01*
X207102076Y-95543819D01*
X207194419Y-95766755D01*
X207328481Y-95967392D01*
X207499108Y-96138019D01*
X207699745Y-96272081D01*
X207922681Y-96364424D01*
X208159348Y-96411500D01*
X208400652Y-96411500D01*
X208637319Y-96364424D01*
X208860255Y-96272081D01*
X209060892Y-96138019D01*
X209231519Y-95967392D01*
X209365581Y-95766755D01*
X209457924Y-95543819D01*
X209505000Y-95307152D01*
X209505000Y-95065848D01*
X209595000Y-95065848D01*
X209595000Y-95307152D01*
X209642076Y-95543819D01*
X209734419Y-95766755D01*
X209868481Y-95967392D01*
X210039108Y-96138019D01*
X210239745Y-96272081D01*
X210462681Y-96364424D01*
X210699348Y-96411500D01*
X210940652Y-96411500D01*
X211177319Y-96364424D01*
X211400255Y-96272081D01*
X211600892Y-96138019D01*
X211771519Y-95967392D01*
X211905581Y-95766755D01*
X211952272Y-95654034D01*
X212011827Y-95821365D01*
X212083124Y-95954752D01*
X212331397Y-96032669D01*
X213177566Y-95186500D01*
X213542434Y-95186500D01*
X214388603Y-96032669D01*
X214636876Y-95954752D01*
X214762220Y-95690884D01*
X214833678Y-95407633D01*
X214848502Y-95115884D01*
X214806125Y-94826849D01*
X214708173Y-94551635D01*
X214636876Y-94418248D01*
X214388603Y-94340331D01*
X213542434Y-95186500D01*
X213177566Y-95186500D01*
X212331397Y-94340331D01*
X212083124Y-94418248D01*
X211957780Y-94682116D01*
X211949917Y-94713283D01*
X211905581Y-94606245D01*
X211771519Y-94405608D01*
X211600892Y-94234981D01*
X211485529Y-94157897D01*
X212513831Y-94157897D01*
X213360000Y-95004066D01*
X214206169Y-94157897D01*
X214128252Y-93909624D01*
X213864384Y-93784280D01*
X213581133Y-93712822D01*
X213289384Y-93697998D01*
X213000349Y-93740375D01*
X212725135Y-93838327D01*
X212591748Y-93909624D01*
X212513831Y-94157897D01*
X211485529Y-94157897D01*
X211400255Y-94100919D01*
X211177319Y-94008576D01*
X210940652Y-93961500D01*
X210699348Y-93961500D01*
X210462681Y-94008576D01*
X210239745Y-94100919D01*
X210039108Y-94234981D01*
X209868481Y-94405608D01*
X209734419Y-94606245D01*
X209642076Y-94829181D01*
X209595000Y-95065848D01*
X209505000Y-95065848D01*
X209457924Y-94829181D01*
X209365581Y-94606245D01*
X209231519Y-94405608D01*
X209060892Y-94234981D01*
X208860255Y-94100919D01*
X208637319Y-94008576D01*
X208400652Y-93961500D01*
X208159348Y-93961500D01*
X207922681Y-94008576D01*
X207699745Y-94100919D01*
X207499108Y-94234981D01*
X207328481Y-94405608D01*
X207194419Y-94606245D01*
X207102076Y-94829181D01*
X207055000Y-95065848D01*
X206965000Y-95065848D01*
X206917924Y-94829181D01*
X206825581Y-94606245D01*
X206691519Y-94405608D01*
X206520892Y-94234981D01*
X206320255Y-94100919D01*
X206097319Y-94008576D01*
X205860652Y-93961500D01*
X205619348Y-93961500D01*
X205382681Y-94008576D01*
X205159745Y-94100919D01*
X204959108Y-94234981D01*
X204788481Y-94405608D01*
X204654419Y-94606245D01*
X204562076Y-94829181D01*
X204515000Y-95065848D01*
X204425000Y-95065848D01*
X204377924Y-94829181D01*
X204285581Y-94606245D01*
X204151519Y-94405608D01*
X203980892Y-94234981D01*
X203780255Y-94100919D01*
X203557319Y-94008576D01*
X203320652Y-93961500D01*
X203079348Y-93961500D01*
X202842681Y-94008576D01*
X202619745Y-94100919D01*
X202419108Y-94234981D01*
X202248481Y-94405608D01*
X202114419Y-94606245D01*
X202022076Y-94829181D01*
X201975000Y-95065848D01*
X201885000Y-95065848D01*
X201837924Y-94829181D01*
X201745581Y-94606245D01*
X201611519Y-94405608D01*
X201440892Y-94234981D01*
X201240255Y-94100919D01*
X201017319Y-94008576D01*
X200780652Y-93961500D01*
X200539348Y-93961500D01*
X200302681Y-94008576D01*
X200079745Y-94100919D01*
X199879108Y-94234981D01*
X199708481Y-94405608D01*
X199574419Y-94606245D01*
X199482076Y-94829181D01*
X199435000Y-95065848D01*
X199345000Y-95065848D01*
X199297924Y-94829181D01*
X199205581Y-94606245D01*
X199071519Y-94405608D01*
X198900892Y-94234981D01*
X198700255Y-94100919D01*
X198477319Y-94008576D01*
X198240652Y-93961500D01*
X197999348Y-93961500D01*
X197762681Y-94008576D01*
X197539745Y-94100919D01*
X197339108Y-94234981D01*
X197168481Y-94405608D01*
X197034419Y-94606245D01*
X196942076Y-94829181D01*
X196895000Y-95065848D01*
X196805000Y-95065848D01*
X196757924Y-94829181D01*
X196665581Y-94606245D01*
X196531519Y-94405608D01*
X196360892Y-94234981D01*
X196160255Y-94100919D01*
X195937319Y-94008576D01*
X195700652Y-93961500D01*
X195459348Y-93961500D01*
X195222681Y-94008576D01*
X194999745Y-94100919D01*
X194799108Y-94234981D01*
X194628481Y-94405608D01*
X194494419Y-94606245D01*
X194402076Y-94829181D01*
X194355000Y-95065848D01*
X194355000Y-95307152D01*
X194402076Y-95543819D01*
X194494419Y-95766755D01*
X194628481Y-95967392D01*
X194799108Y-96138019D01*
X194954213Y-96241657D01*
X194730000Y-96240437D01*
X194605910Y-96252659D01*
X194486589Y-96288854D01*
X194376622Y-96347633D01*
X194280236Y-96426736D01*
X194201133Y-96523122D01*
X194142354Y-96633089D01*
X194106159Y-96752410D01*
X194093937Y-96876500D01*
X194097000Y-97439250D01*
X194255250Y-97597500D01*
X195451000Y-97597500D01*
X195451000Y-97577500D01*
X195709000Y-97577500D01*
X195709000Y-97597500D01*
X195729000Y-97597500D01*
X195729000Y-97855500D01*
X195709000Y-97855500D01*
X195709000Y-99051250D01*
X195867250Y-99209500D01*
X195929555Y-99209839D01*
X195372895Y-99766500D01*
X190389607Y-99766500D01*
X189199607Y-98576500D01*
X194093937Y-98576500D01*
X194106159Y-98700590D01*
X194142354Y-98819911D01*
X194201133Y-98929878D01*
X194280236Y-99026264D01*
X194376622Y-99105367D01*
X194486589Y-99164146D01*
X194605910Y-99200341D01*
X194730000Y-99212563D01*
X195292750Y-99209500D01*
X195451000Y-99051250D01*
X195451000Y-97855500D01*
X194255250Y-97855500D01*
X194097000Y-98013750D01*
X194093937Y-98576500D01*
X189199607Y-98576500D01*
X183092429Y-92469324D01*
X183076764Y-92450236D01*
X183000629Y-92387754D01*
X182913767Y-92341325D01*
X182819517Y-92312735D01*
X182746060Y-92305500D01*
X182721500Y-92303081D01*
X182696940Y-92305500D01*
X176255814Y-92305500D01*
X176255814Y-91805500D01*
X176248574Y-91731987D01*
X176227131Y-91661300D01*
X176192309Y-91596153D01*
X176145448Y-91539052D01*
X176088347Y-91492191D01*
X176023200Y-91457369D01*
X175952513Y-91435926D01*
X175879000Y-91428686D01*
X173879000Y-91428686D01*
X173805487Y-91435926D01*
X173734800Y-91457369D01*
X173669653Y-91492191D01*
X173612552Y-91539052D01*
X173565691Y-91596153D01*
X173530869Y-91661300D01*
X173509426Y-91731987D01*
X173502186Y-91805500D01*
X173386001Y-91805500D01*
X173386001Y-85824880D01*
X173615348Y-85870500D01*
X173856652Y-85870500D01*
X174093319Y-85823424D01*
X174316255Y-85731081D01*
X174516892Y-85597019D01*
X174687519Y-85426392D01*
X174821581Y-85225755D01*
X174913924Y-85002819D01*
X174961000Y-84766152D01*
X174961000Y-84524848D01*
X175051000Y-84524848D01*
X175051000Y-84766152D01*
X175098076Y-85002819D01*
X175190419Y-85225755D01*
X175324481Y-85426392D01*
X175495108Y-85597019D01*
X175695745Y-85731081D01*
X175918681Y-85823424D01*
X176155348Y-85870500D01*
X176396652Y-85870500D01*
X176633319Y-85823424D01*
X176856255Y-85731081D01*
X177056892Y-85597019D01*
X177227519Y-85426392D01*
X177361581Y-85225755D01*
X177412336Y-85103221D01*
X177474580Y-85277875D01*
X177623725Y-85527422D01*
X177818689Y-85743077D01*
X178051979Y-85916553D01*
X178314630Y-86041183D01*
X178457475Y-86084510D01*
X178687000Y-85963954D01*
X178687000Y-84774500D01*
X178667000Y-84774500D01*
X178667000Y-84516500D01*
X178687000Y-84516500D01*
X178687000Y-83327046D01*
X178945000Y-83327046D01*
X178945000Y-84516500D01*
X178965000Y-84516500D01*
X178965000Y-84774500D01*
X178945000Y-84774500D01*
X178945000Y-85963954D01*
X179174525Y-86084510D01*
X179317370Y-86041183D01*
X179580021Y-85916553D01*
X179813311Y-85743077D01*
X180008275Y-85527422D01*
X180157420Y-85277875D01*
X180219664Y-85103221D01*
X180270419Y-85225755D01*
X180404481Y-85426392D01*
X180575108Y-85597019D01*
X180775745Y-85731081D01*
X180998681Y-85823424D01*
X181235348Y-85870500D01*
X181476652Y-85870500D01*
X181713319Y-85823424D01*
X181936255Y-85731081D01*
X182136892Y-85597019D01*
X182307519Y-85426392D01*
X182441581Y-85225755D01*
X182533924Y-85002819D01*
X182581000Y-84766152D01*
X182581000Y-84524848D01*
X182671000Y-84524848D01*
X182671000Y-84766152D01*
X182718076Y-85002819D01*
X182810419Y-85225755D01*
X182944481Y-85426392D01*
X183115108Y-85597019D01*
X183315745Y-85731081D01*
X183538681Y-85823424D01*
X183775348Y-85870500D01*
X184016652Y-85870500D01*
X184253319Y-85823424D01*
X184476255Y-85731081D01*
X184676892Y-85597019D01*
X184847519Y-85426392D01*
X184981581Y-85225755D01*
X185073924Y-85002819D01*
X185121000Y-84766152D01*
X185121000Y-84524848D01*
X185211000Y-84524848D01*
X185211000Y-84766152D01*
X185258076Y-85002819D01*
X185350419Y-85225755D01*
X185484481Y-85426392D01*
X185655108Y-85597019D01*
X185855745Y-85731081D01*
X186078681Y-85823424D01*
X186315348Y-85870500D01*
X186556652Y-85870500D01*
X186793319Y-85823424D01*
X187016255Y-85731081D01*
X187216892Y-85597019D01*
X187387519Y-85426392D01*
X187521581Y-85225755D01*
X187613924Y-85002819D01*
X187661000Y-84766152D01*
X187661000Y-84524848D01*
X187751000Y-84524848D01*
X187751000Y-84766152D01*
X187798076Y-85002819D01*
X187890419Y-85225755D01*
X188024481Y-85426392D01*
X188195108Y-85597019D01*
X188395745Y-85731081D01*
X188618681Y-85823424D01*
X188855348Y-85870500D01*
X189096652Y-85870500D01*
X189333319Y-85823424D01*
X189556255Y-85731081D01*
X189756892Y-85597019D01*
X189927519Y-85426392D01*
X190061581Y-85225755D01*
X190153924Y-85002819D01*
X190201000Y-84766152D01*
X190201000Y-84524848D01*
X190291000Y-84524848D01*
X190291000Y-84766152D01*
X190338076Y-85002819D01*
X190430419Y-85225755D01*
X190564481Y-85426392D01*
X190735108Y-85597019D01*
X190935745Y-85731081D01*
X191158681Y-85823424D01*
X191395348Y-85870500D01*
X191636652Y-85870500D01*
X191873319Y-85823424D01*
X192096255Y-85731081D01*
X192296892Y-85597019D01*
X192467519Y-85426392D01*
X192601581Y-85225755D01*
X192693924Y-85002819D01*
X192741000Y-84766152D01*
X192741000Y-84524848D01*
X192693924Y-84288181D01*
X192601581Y-84065245D01*
X192467519Y-83864608D01*
X192398411Y-83795500D01*
X192829186Y-83795500D01*
X192829186Y-85495500D01*
X192836426Y-85569013D01*
X192857869Y-85639700D01*
X192892691Y-85704847D01*
X192939552Y-85761948D01*
X192996653Y-85808809D01*
X193061800Y-85843631D01*
X193132487Y-85865074D01*
X193206000Y-85872314D01*
X194906000Y-85872314D01*
X194979513Y-85865074D01*
X195050200Y-85843631D01*
X195115347Y-85808809D01*
X195172448Y-85761948D01*
X195219309Y-85704847D01*
X195254131Y-85639700D01*
X195275574Y-85569013D01*
X195282814Y-85495500D01*
X195282814Y-83795500D01*
X195275574Y-83721987D01*
X195254131Y-83651300D01*
X195219309Y-83586153D01*
X195172448Y-83529052D01*
X195115347Y-83482191D01*
X195050200Y-83447369D01*
X194979513Y-83425926D01*
X194906000Y-83418686D01*
X193206000Y-83418686D01*
X193132487Y-83425926D01*
X193061800Y-83447369D01*
X192996653Y-83482191D01*
X192939552Y-83529052D01*
X192892691Y-83586153D01*
X192857869Y-83651300D01*
X192836426Y-83721987D01*
X192829186Y-83795500D01*
X192398411Y-83795500D01*
X192296892Y-83693981D01*
X192096255Y-83559919D01*
X191873319Y-83467576D01*
X191636652Y-83420500D01*
X191395348Y-83420500D01*
X191158681Y-83467576D01*
X190935745Y-83559919D01*
X190735108Y-83693981D01*
X190564481Y-83864608D01*
X190430419Y-84065245D01*
X190338076Y-84288181D01*
X190291000Y-84524848D01*
X190201000Y-84524848D01*
X190153924Y-84288181D01*
X190061581Y-84065245D01*
X189927519Y-83864608D01*
X189756892Y-83693981D01*
X189556255Y-83559919D01*
X189333319Y-83467576D01*
X189096652Y-83420500D01*
X188855348Y-83420500D01*
X188618681Y-83467576D01*
X188395745Y-83559919D01*
X188195108Y-83693981D01*
X188024481Y-83864608D01*
X187890419Y-84065245D01*
X187798076Y-84288181D01*
X187751000Y-84524848D01*
X187661000Y-84524848D01*
X187613924Y-84288181D01*
X187521581Y-84065245D01*
X187387519Y-83864608D01*
X187216892Y-83693981D01*
X187016255Y-83559919D01*
X186793319Y-83467576D01*
X186556652Y-83420500D01*
X186315348Y-83420500D01*
X186078681Y-83467576D01*
X185855745Y-83559919D01*
X185655108Y-83693981D01*
X185484481Y-83864608D01*
X185350419Y-84065245D01*
X185258076Y-84288181D01*
X185211000Y-84524848D01*
X185121000Y-84524848D01*
X185073924Y-84288181D01*
X184981581Y-84065245D01*
X184847519Y-83864608D01*
X184676892Y-83693981D01*
X184476255Y-83559919D01*
X184253319Y-83467576D01*
X184016652Y-83420500D01*
X183775348Y-83420500D01*
X183538681Y-83467576D01*
X183315745Y-83559919D01*
X183115108Y-83693981D01*
X182944481Y-83864608D01*
X182810419Y-84065245D01*
X182718076Y-84288181D01*
X182671000Y-84524848D01*
X182581000Y-84524848D01*
X182533924Y-84288181D01*
X182441581Y-84065245D01*
X182307519Y-83864608D01*
X182136892Y-83693981D01*
X181936255Y-83559919D01*
X181713319Y-83467576D01*
X181476652Y-83420500D01*
X181235348Y-83420500D01*
X180998681Y-83467576D01*
X180775745Y-83559919D01*
X180575108Y-83693981D01*
X180404481Y-83864608D01*
X180270419Y-84065245D01*
X180219664Y-84187779D01*
X180157420Y-84013125D01*
X180008275Y-83763578D01*
X179813311Y-83547923D01*
X179580021Y-83374447D01*
X179317370Y-83249817D01*
X179174525Y-83206490D01*
X178945000Y-83327046D01*
X178687000Y-83327046D01*
X178457475Y-83206490D01*
X178314630Y-83249817D01*
X178051979Y-83374447D01*
X177818689Y-83547923D01*
X177623725Y-83763578D01*
X177474580Y-84013125D01*
X177412336Y-84187779D01*
X177361581Y-84065245D01*
X177227519Y-83864608D01*
X177056892Y-83693981D01*
X176856255Y-83559919D01*
X176633319Y-83467576D01*
X176396652Y-83420500D01*
X176155348Y-83420500D01*
X175918681Y-83467576D01*
X175695745Y-83559919D01*
X175495108Y-83693981D01*
X175324481Y-83864608D01*
X175190419Y-84065245D01*
X175098076Y-84288181D01*
X175051000Y-84524848D01*
X174961000Y-84524848D01*
X174913924Y-84288181D01*
X174821581Y-84065245D01*
X174687519Y-83864608D01*
X174516892Y-83693981D01*
X174316255Y-83559919D01*
X174093319Y-83467576D01*
X173856652Y-83420500D01*
X173615348Y-83420500D01*
X173378681Y-83467576D01*
X173155745Y-83559919D01*
X172955108Y-83693981D01*
X172784481Y-83864608D01*
X172650419Y-84065245D01*
X172558076Y-84288181D01*
X172511000Y-84524848D01*
X172511000Y-84766152D01*
X172558076Y-85002819D01*
X172591319Y-85083076D01*
X172549825Y-85124570D01*
X172530737Y-85140235D01*
X172468255Y-85216370D01*
X172421826Y-85303233D01*
X172401909Y-85368892D01*
X172393236Y-85397482D01*
X172383582Y-85495499D01*
X169945000Y-85495499D01*
X169945000Y-79795000D01*
X215048937Y-79795000D01*
X215052000Y-80357750D01*
X215210250Y-80516000D01*
X216406000Y-80516000D01*
X216406000Y-79320250D01*
X216664000Y-79320250D01*
X216664000Y-80516000D01*
X217859750Y-80516000D01*
X218018000Y-80357750D01*
X218021063Y-79795000D01*
X218008841Y-79670910D01*
X217972646Y-79551589D01*
X217913867Y-79441622D01*
X217834764Y-79345236D01*
X217738378Y-79266133D01*
X217628411Y-79207354D01*
X217509090Y-79171159D01*
X217385000Y-79158937D01*
X216822250Y-79162000D01*
X216664000Y-79320250D01*
X216406000Y-79320250D01*
X216247750Y-79162000D01*
X215685000Y-79158937D01*
X215560910Y-79171159D01*
X215441589Y-79207354D01*
X215331622Y-79266133D01*
X215235236Y-79345236D01*
X215156133Y-79441622D01*
X215097354Y-79551589D01*
X215061159Y-79670910D01*
X215048937Y-79795000D01*
X169945000Y-79795000D01*
X169945000Y-63347509D01*
X169959400Y-63347509D01*
X169959400Y-63591491D01*
X170006999Y-63830786D01*
X170100367Y-64056197D01*
X170235917Y-64259061D01*
X170408439Y-64431583D01*
X170611303Y-64567133D01*
X170836714Y-64660501D01*
X171076009Y-64708100D01*
X171319991Y-64708100D01*
X171559286Y-64660501D01*
X171784697Y-64567133D01*
X171987561Y-64431583D01*
X172160083Y-64259061D01*
X172295633Y-64056197D01*
X172389001Y-63830786D01*
X172436600Y-63591491D01*
X172436600Y-63347509D01*
X172499400Y-63347509D01*
X172499400Y-63591491D01*
X172546999Y-63830786D01*
X172640367Y-64056197D01*
X172775917Y-64259061D01*
X172948439Y-64431583D01*
X173151303Y-64567133D01*
X173376714Y-64660501D01*
X173616009Y-64708100D01*
X173859991Y-64708100D01*
X174099286Y-64660501D01*
X174324697Y-64567133D01*
X174527561Y-64431583D01*
X174700083Y-64259061D01*
X174835633Y-64056197D01*
X174929001Y-63830786D01*
X174976600Y-63591491D01*
X174976600Y-63347509D01*
X175039400Y-63347509D01*
X175039400Y-63591491D01*
X175086999Y-63830786D01*
X175180367Y-64056197D01*
X175315917Y-64259061D01*
X175488439Y-64431583D01*
X175691303Y-64567133D01*
X175916714Y-64660501D01*
X176156009Y-64708100D01*
X176399991Y-64708100D01*
X176639286Y-64660501D01*
X176864697Y-64567133D01*
X177067561Y-64431583D01*
X177240083Y-64259061D01*
X177375633Y-64056197D01*
X177409366Y-63974759D01*
X177409920Y-63976586D01*
X177535903Y-64241545D01*
X177711157Y-64476835D01*
X177928946Y-64673414D01*
X178180901Y-64823727D01*
X178457339Y-64921998D01*
X178689000Y-64802285D01*
X178689000Y-63598500D01*
X178669000Y-63598500D01*
X178669000Y-63340500D01*
X178689000Y-63340500D01*
X178689000Y-62136715D01*
X178947000Y-62136715D01*
X178947000Y-63340500D01*
X178967000Y-63340500D01*
X178967000Y-63598500D01*
X178947000Y-63598500D01*
X178947000Y-64802285D01*
X179178661Y-64921998D01*
X179455099Y-64823727D01*
X179707054Y-64673414D01*
X179924843Y-64476835D01*
X180100097Y-64241545D01*
X180226080Y-63976586D01*
X180226634Y-63974759D01*
X180260367Y-64056197D01*
X180395917Y-64259061D01*
X180568439Y-64431583D01*
X180771303Y-64567133D01*
X180996714Y-64660501D01*
X181236009Y-64708100D01*
X181479991Y-64708100D01*
X181719286Y-64660501D01*
X181944697Y-64567133D01*
X182147561Y-64431583D01*
X182320083Y-64259061D01*
X182455633Y-64056197D01*
X182549001Y-63830786D01*
X182596600Y-63591491D01*
X182596600Y-63347509D01*
X182659400Y-63347509D01*
X182659400Y-63591491D01*
X182706999Y-63830786D01*
X182800367Y-64056197D01*
X182935917Y-64259061D01*
X183108439Y-64431583D01*
X183311303Y-64567133D01*
X183536714Y-64660501D01*
X183776009Y-64708100D01*
X184019991Y-64708100D01*
X184259286Y-64660501D01*
X184484697Y-64567133D01*
X184687561Y-64431583D01*
X184860083Y-64259061D01*
X184995633Y-64056197D01*
X185089001Y-63830786D01*
X185136600Y-63591491D01*
X185136600Y-63347509D01*
X185199400Y-63347509D01*
X185199400Y-63591491D01*
X185246999Y-63830786D01*
X185340367Y-64056197D01*
X185475917Y-64259061D01*
X185648439Y-64431583D01*
X185851303Y-64567133D01*
X186076714Y-64660501D01*
X186316009Y-64708100D01*
X186559991Y-64708100D01*
X186799286Y-64660501D01*
X187024697Y-64567133D01*
X187227561Y-64431583D01*
X187400083Y-64259061D01*
X187535633Y-64056197D01*
X187629001Y-63830786D01*
X187676600Y-63591491D01*
X187676600Y-63347509D01*
X187739400Y-63347509D01*
X187739400Y-63591491D01*
X187786999Y-63830786D01*
X187880367Y-64056197D01*
X188015917Y-64259061D01*
X188188439Y-64431583D01*
X188391303Y-64567133D01*
X188616714Y-64660501D01*
X188856009Y-64708100D01*
X189099991Y-64708100D01*
X189339286Y-64660501D01*
X189564697Y-64567133D01*
X189767561Y-64431583D01*
X189940083Y-64259061D01*
X190075633Y-64056197D01*
X190169001Y-63830786D01*
X190216600Y-63591491D01*
X190216600Y-63347509D01*
X190279400Y-63347509D01*
X190279400Y-63591491D01*
X190326999Y-63830786D01*
X190420367Y-64056197D01*
X190555917Y-64259061D01*
X190728439Y-64431583D01*
X190931303Y-64567133D01*
X191156714Y-64660501D01*
X191396009Y-64708100D01*
X191639991Y-64708100D01*
X191879286Y-64660501D01*
X192104697Y-64567133D01*
X192307561Y-64431583D01*
X192480083Y-64259061D01*
X192615633Y-64056197D01*
X192709001Y-63830786D01*
X192756600Y-63591491D01*
X192756600Y-63347509D01*
X192819400Y-63347509D01*
X192819400Y-63591491D01*
X192866999Y-63830786D01*
X192960367Y-64056197D01*
X193095917Y-64259061D01*
X193268439Y-64431583D01*
X193471303Y-64567133D01*
X193696714Y-64660501D01*
X193936009Y-64708100D01*
X194179991Y-64708100D01*
X194419286Y-64660501D01*
X194644697Y-64567133D01*
X194847561Y-64431583D01*
X195020083Y-64259061D01*
X195155633Y-64056197D01*
X195249001Y-63830786D01*
X195296600Y-63591491D01*
X195296600Y-63347509D01*
X196883400Y-63347509D01*
X196883400Y-63591491D01*
X196930999Y-63830786D01*
X197024367Y-64056197D01*
X197159917Y-64259061D01*
X197332439Y-64431583D01*
X197535303Y-64567133D01*
X197760714Y-64660501D01*
X198000009Y-64708100D01*
X198243991Y-64708100D01*
X198483286Y-64660501D01*
X198708697Y-64567133D01*
X198911561Y-64431583D01*
X199084083Y-64259061D01*
X199219633Y-64056197D01*
X199313001Y-63830786D01*
X199360600Y-63591491D01*
X199360600Y-63347509D01*
X199423400Y-63347509D01*
X199423400Y-63591491D01*
X199470999Y-63830786D01*
X199564367Y-64056197D01*
X199699917Y-64259061D01*
X199872439Y-64431583D01*
X200075303Y-64567133D01*
X200300714Y-64660501D01*
X200540009Y-64708100D01*
X200783991Y-64708100D01*
X201023286Y-64660501D01*
X201248697Y-64567133D01*
X201451561Y-64431583D01*
X201624083Y-64259061D01*
X201759633Y-64056197D01*
X201853001Y-63830786D01*
X201900600Y-63591491D01*
X201900600Y-63347509D01*
X201963400Y-63347509D01*
X201963400Y-63591491D01*
X202010999Y-63830786D01*
X202104367Y-64056197D01*
X202239917Y-64259061D01*
X202412439Y-64431583D01*
X202615303Y-64567133D01*
X202840714Y-64660501D01*
X203080009Y-64708100D01*
X203323991Y-64708100D01*
X203563286Y-64660501D01*
X203788697Y-64567133D01*
X203991561Y-64431583D01*
X204164083Y-64259061D01*
X204299633Y-64056197D01*
X204393001Y-63830786D01*
X204440600Y-63591491D01*
X204440600Y-63347509D01*
X204503400Y-63347509D01*
X204503400Y-63591491D01*
X204550999Y-63830786D01*
X204644367Y-64056197D01*
X204779917Y-64259061D01*
X204952439Y-64431583D01*
X205155303Y-64567133D01*
X205380714Y-64660501D01*
X205620009Y-64708100D01*
X205863991Y-64708100D01*
X206103286Y-64660501D01*
X206328697Y-64567133D01*
X206531561Y-64431583D01*
X206704083Y-64259061D01*
X206839633Y-64056197D01*
X206933001Y-63830786D01*
X206980600Y-63591491D01*
X206980600Y-63347509D01*
X207043400Y-63347509D01*
X207043400Y-63591491D01*
X207090999Y-63830786D01*
X207184367Y-64056197D01*
X207319917Y-64259061D01*
X207492439Y-64431583D01*
X207695303Y-64567133D01*
X207920714Y-64660501D01*
X208160009Y-64708100D01*
X208403991Y-64708100D01*
X208643286Y-64660501D01*
X208868697Y-64567133D01*
X209071561Y-64431583D01*
X209244083Y-64259061D01*
X209379633Y-64056197D01*
X209473001Y-63830786D01*
X209520600Y-63591491D01*
X209520600Y-63347509D01*
X209583400Y-63347509D01*
X209583400Y-63591491D01*
X209630999Y-63830786D01*
X209724367Y-64056197D01*
X209859917Y-64259061D01*
X210032439Y-64431583D01*
X210235303Y-64567133D01*
X210460714Y-64660501D01*
X210700009Y-64708100D01*
X210943991Y-64708100D01*
X211183286Y-64660501D01*
X211408697Y-64567133D01*
X211611561Y-64431583D01*
X211784083Y-64259061D01*
X211919633Y-64056197D01*
X212013001Y-63830786D01*
X212060600Y-63591491D01*
X212060600Y-63347509D01*
X212123400Y-63347509D01*
X212123400Y-63591491D01*
X212170999Y-63830786D01*
X212264367Y-64056197D01*
X212399917Y-64259061D01*
X212572439Y-64431583D01*
X212775303Y-64567133D01*
X213000714Y-64660501D01*
X213240009Y-64708100D01*
X213483991Y-64708100D01*
X213723286Y-64660501D01*
X213948697Y-64567133D01*
X214151561Y-64431583D01*
X214324083Y-64259061D01*
X214459633Y-64056197D01*
X214553001Y-63830786D01*
X214600600Y-63591491D01*
X214600600Y-63347509D01*
X214663400Y-63347509D01*
X214663400Y-63591491D01*
X214710999Y-63830786D01*
X214804367Y-64056197D01*
X214939917Y-64259061D01*
X215112439Y-64431583D01*
X215315303Y-64567133D01*
X215540714Y-64660501D01*
X215780009Y-64708100D01*
X216023991Y-64708100D01*
X216263286Y-64660501D01*
X216488697Y-64567133D01*
X216691561Y-64431583D01*
X216864083Y-64259061D01*
X216999633Y-64056197D01*
X217093001Y-63830786D01*
X217140600Y-63591491D01*
X217140600Y-63347509D01*
X217093001Y-63108214D01*
X216999633Y-62882803D01*
X216864083Y-62679939D01*
X216691561Y-62507417D01*
X216488697Y-62371867D01*
X216263286Y-62278499D01*
X216023991Y-62230900D01*
X215780009Y-62230900D01*
X215540714Y-62278499D01*
X215315303Y-62371867D01*
X215112439Y-62507417D01*
X214939917Y-62679939D01*
X214804367Y-62882803D01*
X214710999Y-63108214D01*
X214663400Y-63347509D01*
X214600600Y-63347509D01*
X214553001Y-63108214D01*
X214459633Y-62882803D01*
X214324083Y-62679939D01*
X214151561Y-62507417D01*
X213948697Y-62371867D01*
X213723286Y-62278499D01*
X213483991Y-62230900D01*
X213240009Y-62230900D01*
X213000714Y-62278499D01*
X212775303Y-62371867D01*
X212572439Y-62507417D01*
X212399917Y-62679939D01*
X212264367Y-62882803D01*
X212170999Y-63108214D01*
X212123400Y-63347509D01*
X212060600Y-63347509D01*
X212013001Y-63108214D01*
X211919633Y-62882803D01*
X211784083Y-62679939D01*
X211611561Y-62507417D01*
X211408697Y-62371867D01*
X211183286Y-62278499D01*
X210943991Y-62230900D01*
X210700009Y-62230900D01*
X210460714Y-62278499D01*
X210235303Y-62371867D01*
X210032439Y-62507417D01*
X209859917Y-62679939D01*
X209724367Y-62882803D01*
X209630999Y-63108214D01*
X209583400Y-63347509D01*
X209520600Y-63347509D01*
X209473001Y-63108214D01*
X209379633Y-62882803D01*
X209244083Y-62679939D01*
X209071561Y-62507417D01*
X208868697Y-62371867D01*
X208643286Y-62278499D01*
X208403991Y-62230900D01*
X208160009Y-62230900D01*
X207920714Y-62278499D01*
X207695303Y-62371867D01*
X207492439Y-62507417D01*
X207319917Y-62679939D01*
X207184367Y-62882803D01*
X207090999Y-63108214D01*
X207043400Y-63347509D01*
X206980600Y-63347509D01*
X206933001Y-63108214D01*
X206839633Y-62882803D01*
X206704083Y-62679939D01*
X206531561Y-62507417D01*
X206328697Y-62371867D01*
X206103286Y-62278499D01*
X205863991Y-62230900D01*
X205620009Y-62230900D01*
X205380714Y-62278499D01*
X205155303Y-62371867D01*
X204952439Y-62507417D01*
X204779917Y-62679939D01*
X204644367Y-62882803D01*
X204550999Y-63108214D01*
X204503400Y-63347509D01*
X204440600Y-63347509D01*
X204393001Y-63108214D01*
X204299633Y-62882803D01*
X204164083Y-62679939D01*
X203991561Y-62507417D01*
X203788697Y-62371867D01*
X203563286Y-62278499D01*
X203323991Y-62230900D01*
X203080009Y-62230900D01*
X202840714Y-62278499D01*
X202615303Y-62371867D01*
X202412439Y-62507417D01*
X202239917Y-62679939D01*
X202104367Y-62882803D01*
X202010999Y-63108214D01*
X201963400Y-63347509D01*
X201900600Y-63347509D01*
X201853001Y-63108214D01*
X201759633Y-62882803D01*
X201624083Y-62679939D01*
X201451561Y-62507417D01*
X201248697Y-62371867D01*
X201023286Y-62278499D01*
X200783991Y-62230900D01*
X200540009Y-62230900D01*
X200300714Y-62278499D01*
X200075303Y-62371867D01*
X199872439Y-62507417D01*
X199699917Y-62679939D01*
X199564367Y-62882803D01*
X199470999Y-63108214D01*
X199423400Y-63347509D01*
X199360600Y-63347509D01*
X199313001Y-63108214D01*
X199219633Y-62882803D01*
X199084083Y-62679939D01*
X198911561Y-62507417D01*
X198708697Y-62371867D01*
X198483286Y-62278499D01*
X198243991Y-62230900D01*
X198000009Y-62230900D01*
X197760714Y-62278499D01*
X197535303Y-62371867D01*
X197332439Y-62507417D01*
X197159917Y-62679939D01*
X197024367Y-62882803D01*
X196930999Y-63108214D01*
X196883400Y-63347509D01*
X195296600Y-63347509D01*
X195249001Y-63108214D01*
X195155633Y-62882803D01*
X195020083Y-62679939D01*
X194847561Y-62507417D01*
X194644697Y-62371867D01*
X194419286Y-62278499D01*
X194179991Y-62230900D01*
X193936009Y-62230900D01*
X193696714Y-62278499D01*
X193471303Y-62371867D01*
X193268439Y-62507417D01*
X193095917Y-62679939D01*
X192960367Y-62882803D01*
X192866999Y-63108214D01*
X192819400Y-63347509D01*
X192756600Y-63347509D01*
X192709001Y-63108214D01*
X192615633Y-62882803D01*
X192480083Y-62679939D01*
X192307561Y-62507417D01*
X192104697Y-62371867D01*
X191879286Y-62278499D01*
X191639991Y-62230900D01*
X191396009Y-62230900D01*
X191156714Y-62278499D01*
X190931303Y-62371867D01*
X190728439Y-62507417D01*
X190555917Y-62679939D01*
X190420367Y-62882803D01*
X190326999Y-63108214D01*
X190279400Y-63347509D01*
X190216600Y-63347509D01*
X190169001Y-63108214D01*
X190075633Y-62882803D01*
X189940083Y-62679939D01*
X189767561Y-62507417D01*
X189564697Y-62371867D01*
X189339286Y-62278499D01*
X189099991Y-62230900D01*
X188856009Y-62230900D01*
X188616714Y-62278499D01*
X188391303Y-62371867D01*
X188188439Y-62507417D01*
X188015917Y-62679939D01*
X187880367Y-62882803D01*
X187786999Y-63108214D01*
X187739400Y-63347509D01*
X187676600Y-63347509D01*
X187629001Y-63108214D01*
X187535633Y-62882803D01*
X187400083Y-62679939D01*
X187227561Y-62507417D01*
X187024697Y-62371867D01*
X186799286Y-62278499D01*
X186559991Y-62230900D01*
X186316009Y-62230900D01*
X186076714Y-62278499D01*
X185851303Y-62371867D01*
X185648439Y-62507417D01*
X185475917Y-62679939D01*
X185340367Y-62882803D01*
X185246999Y-63108214D01*
X185199400Y-63347509D01*
X185136600Y-63347509D01*
X185089001Y-63108214D01*
X184995633Y-62882803D01*
X184860083Y-62679939D01*
X184687561Y-62507417D01*
X184484697Y-62371867D01*
X184259286Y-62278499D01*
X184019991Y-62230900D01*
X183776009Y-62230900D01*
X183536714Y-62278499D01*
X183311303Y-62371867D01*
X183108439Y-62507417D01*
X182935917Y-62679939D01*
X182800367Y-62882803D01*
X182706999Y-63108214D01*
X182659400Y-63347509D01*
X182596600Y-63347509D01*
X182549001Y-63108214D01*
X182455633Y-62882803D01*
X182320083Y-62679939D01*
X182147561Y-62507417D01*
X181944697Y-62371867D01*
X181719286Y-62278499D01*
X181479991Y-62230900D01*
X181236009Y-62230900D01*
X180996714Y-62278499D01*
X180771303Y-62371867D01*
X180568439Y-62507417D01*
X180395917Y-62679939D01*
X180260367Y-62882803D01*
X180226634Y-62964241D01*
X180226080Y-62962414D01*
X180100097Y-62697455D01*
X179924843Y-62462165D01*
X179707054Y-62265586D01*
X179455099Y-62115273D01*
X179178661Y-62017002D01*
X178947000Y-62136715D01*
X178689000Y-62136715D01*
X178457339Y-62017002D01*
X178180901Y-62115273D01*
X177928946Y-62265586D01*
X177711157Y-62462165D01*
X177535903Y-62697455D01*
X177409920Y-62962414D01*
X177409366Y-62964241D01*
X177375633Y-62882803D01*
X177240083Y-62679939D01*
X177067561Y-62507417D01*
X176864697Y-62371867D01*
X176639286Y-62278499D01*
X176399991Y-62230900D01*
X176156009Y-62230900D01*
X175916714Y-62278499D01*
X175691303Y-62371867D01*
X175488439Y-62507417D01*
X175315917Y-62679939D01*
X175180367Y-62882803D01*
X175086999Y-63108214D01*
X175039400Y-63347509D01*
X174976600Y-63347509D01*
X174929001Y-63108214D01*
X174835633Y-62882803D01*
X174700083Y-62679939D01*
X174527561Y-62507417D01*
X174324697Y-62371867D01*
X174099286Y-62278499D01*
X173859991Y-62230900D01*
X173616009Y-62230900D01*
X173376714Y-62278499D01*
X173151303Y-62371867D01*
X172948439Y-62507417D01*
X172775917Y-62679939D01*
X172640367Y-62882803D01*
X172546999Y-63108214D01*
X172499400Y-63347509D01*
X172436600Y-63347509D01*
X172389001Y-63108214D01*
X172295633Y-62882803D01*
X172160083Y-62679939D01*
X171987561Y-62507417D01*
X171784697Y-62371867D01*
X171559286Y-62278499D01*
X171319991Y-62230900D01*
X171076009Y-62230900D01*
X170836714Y-62278499D01*
X170611303Y-62371867D01*
X170408439Y-62507417D01*
X170235917Y-62679939D01*
X170100367Y-62882803D01*
X170006999Y-63108214D01*
X169959400Y-63347509D01*
X169945000Y-63347509D01*
X169945000Y-61360000D01*
X216750315Y-61360000D01*
X218040001Y-62649686D01*
M02*
